SplineFontDB: 3.0
FontName: Terminal-Grotesque
FullName: Terminal Grotesque Regular
FamilyName: Terminal Grotesque
Weight: Book
Copyright: Copyright Raphaël Bastide 2011
Version: 1.0
ItalicAngle: 0
UnderlinePosition: 127
UnderlineWidth: 51
Ascent: 819
Descent: 205
LayerCount: 2
Layer: 0 1 "Back"  1
Layer: 1 1 "Fore"  0
XUID: [1021 366 1577494475 15539195]
FSType: 4
OS2Version: 2
OS2_WeightWidthSlopeOnly: 0
OS2_UseTypoMetrics: 1
CreationTime: 1315634130
ModificationTime: 1320254623
PfmFamily: 81
TTFWeight: 400
TTFWidth: 5
LineGap: 0
VLineGap: 0
Panose: 0 0 4 0 0 0 0 0 0 0
OS2TypoAscent: -179
OS2TypoAOffset: 1
OS2TypoDescent: 13
OS2TypoDOffset: 1
OS2TypoLinegap: 0
OS2WinAscent: 0
OS2WinAOffset: 1
OS2WinDescent: 0
OS2WinDOffset: 1
HheadAscent: 0
HheadAOffset: 1
HheadDescent: 0
HheadDOffset: 1
OS2SubXSize: 512
OS2SubYSize: 512
OS2SubXOff: 0
OS2SubYOff: -96
OS2SupXSize: 512
OS2SupYSize: 512
OS2SupXOff: 0
OS2SupYOff: 512
OS2StrikeYSize: 51
OS2StrikeYPos: 204
OS2Vendor: 'FSTR'
OS2CodePages: 000001fb.00000000
OS2UnicodeRanges: a0000007.4000000a.00000000.00000000
Lookup: 258 0 0 "Pairwise Positioning (kerning) in Latin lookup 0"  {"Pairwise Positioning (kerning) in Latin lookup 0-1"  "Pairwise Positioning (kerning) in Latin lookup 0-2"  } ['test' ('DFLT' <'dflt' > 'latn' <'dflt' > ) ]
DEI: 91125
ShortTable: maxp 16
  1
  0
  213
  128
  11
  0
  0
  2
  0
  0
  0
  0
  0
  0
  0
  0
EndShort

StartChar: .notdef
Encoding: 65536 -1 0
Width: 448
Flags: W
LayerCount: 2
Fore
SplineSet
320 90 m 1,0,-1
 320 192 l 1,1,-1
 218 192 l 1,2,-1
 218 90 l 1,3,-1
 320 90 l 1,0,-1
421 209 m 1,4,-1
 421 311 l 1,5,-1
 218 311 l 1,6,-1
 218 209 l 1,7,-1
 421 209 l 1,4,-1
320 328 m 1,8,-1
 320 430 l 1,9,-1
 218 430 l 1,10,-1
 218 328 l 1,11,-1
 320 328 l 1,8,-1
421 447 m 1,12,-1
 421 548 l 1,13,-1
 320 548 l 2,14,15
 277 548 277 548 248 519 c 0,16,17
 218 488 218 488 218 447 c 1,18,-1
 421 447 l 1,12,-1
0 0 m 1,19,-1
 0 640 l 1,20,-1
 640 640 l 1,21,-1
 640 0 l 1,22,-1
 0 0 l 1,19,-1
EndSplineSet
EndChar

StartChar: exclam
Encoding: 33 33 4
Width: 160
Flags: W
LayerCount: 2
Fore
SplineSet
0 0 m 1,0,-1
 0 96 l 1,1,-1
 96 96 l 1,2,-1
 96 0 l 1,3,-1
 0 0 l 1,0,-1
0 192 m 1,4,-1
 0 640 l 1,5,-1
 96 640 l 1,6,-1
 96 192 l 1,7,-1
 0 192 l 1,4,-1
EndSplineSet
EndChar

StartChar: quotedbl
Encoding: 34 34 5
Width: 256
Flags: W
LayerCount: 2
Fore
SplineSet
0 480 m 1,0,-1
 0 640 l 1,1,-1
 64 640 l 1,2,-1
 64 480 l 1,3,-1
 0 480 l 1,0,-1
128 480 m 1,4,-1
 128 640 l 1,5,-1
 192 640 l 1,6,-1
 192 480 l 1,7,-1
 128 480 l 1,4,-1
EndSplineSet
EndChar

StartChar: numbersign
Encoding: 35 35 6
Width: 704
Flags: W
LayerCount: 2
Fore
SplineSet
352 224 m 1,0,-1
 352 320 l 1,1,-1
 384 320 l 1,2,-1
 384 416 l 1,3,-1
 224 416 l 1,4,-1
 224 320 l 1,5,-1
 192 320 l 1,6,-1
 192 224 l 1,7,-1
 352 224 l 1,0,-1
0 0 m 1,8,-1
 0 64 l 1,9,-1
 32 64 l 1,10,-1
 32 160 l 1,11,-1
 -64 160 l 1,12,-1
 -64 224 l 1,13,-1
 96 224 l 1,14,-1
 96 320 l 1,15,-1
 128 320 l 1,16,-1
 128 416 l 1,17,-1
 32 416 l 1,18,-1
 32 480 l 1,19,-1
 192 480 l 1,20,-1
 192 576 l 1,21,-1
 224 576 l 1,22,-1
 224 640 l 1,23,-1
 320 640 l 1,24,-1
 320 576 l 1,25,-1
 288 576 l 1,26,-1
 288 480 l 1,27,-1
 448 480 l 1,28,-1
 448 576 l 1,29,-1
 480 576 l 1,30,-1
 480 640 l 1,31,-1
 576 640 l 1,32,-1
 576 576 l 1,33,-1
 544 576 l 1,34,-1
 544 480 l 1,35,-1
 640 480 l 1,36,-1
 640 416 l 1,37,-1
 480 416 l 1,38,-1
 480 320 l 1,39,-1
 448 320 l 1,40,-1
 448 224 l 1,41,-1
 544 224 l 1,42,-1
 544 160 l 1,43,-1
 384 160 l 1,44,-1
 384 64 l 1,45,-1
 352 64 l 1,46,-1
 352 0 l 1,47,-1
 256 0 l 1,48,-1
 256 64 l 1,49,-1
 288 64 l 1,50,-1
 288 160 l 1,51,-1
 128 160 l 1,52,-1
 128 64 l 1,53,-1
 96 64 l 1,54,-1
 96 0 l 1,55,-1
 0 0 l 1,8,-1
EndSplineSet
EndChar

StartChar: dollar
Encoding: 36 36 7
Width: 480
Flags: W
LayerCount: 2
Fore
SplineSet
288 96 m 1,0,-1
 288 128 l 1,1,-1
 320 128 l 1,2,-1
 320 224 l 1,3,-1
 288 224 l 1,4,-1
 288 256 l 1,5,-1
 256 256 l 1,6,-1
 256 96 l 1,7,-1
 288 96 l 1,0,-1
192 384 m 1,8,-1
 192 544 l 1,9,-1
 128 544 l 1,10,-1
 128 512 l 1,11,-1
 96 512 l 1,12,-1
 96 416 l 1,13,-1
 160 416 l 1,14,-1
 160 384 l 1,15,-1
 192 384 l 1,8,-1
192 -64 m 1,16,-1
 192 0 l 1,17,-1
 128 0 l 1,18,-1
 128 32 l 1,19,-1
 64 32 l 1,20,-1
 64 64 l 1,21,-1
 32 64 l 1,22,-1
 32 96 l 1,23,-1
 0 96 l 1,24,-1
 0 160 l 1,25,-1
 96 160 l 1,26,-1
 96 128 l 1,27,-1
 128 128 l 1,28,-1
 128 96 l 1,29,-1
 192 96 l 1,30,-1
 192 288 l 1,31,-1
 160 288 l 1,32,-1
 160 320 l 1,33,-1
 64 320 l 1,34,-1
 64 352 l 1,35,-1
 32 352 l 1,36,-1
 32 384 l 1,37,-1
 0 384 l 1,38,-1
 0 544 l 1,39,-1
 32 544 l 1,40,-1
 32 576 l 1,41,-1
 64 576 l 1,42,-1
 64 608 l 1,43,-1
 96 608 l 1,44,-1
 96 640 l 1,45,-1
 192 640 l 1,46,-1
 192 704 l 1,47,-1
 256 704 l 1,48,-1
 256 640 l 1,49,-1
 320 640 l 1,50,-1
 320 608 l 1,51,-1
 352 608 l 1,52,-1
 352 576 l 1,53,-1
 384 576 l 1,54,-1
 384 512 l 1,55,-1
 288 512 l 1,56,-1
 288 544 l 1,57,-1
 256 544 l 1,58,-1
 256 352 l 1,59,-1
 320 352 l 1,60,-1
 320 320 l 1,61,-1
 384 320 l 1,62,-1
 384 256 l 1,63,-1
 416 256 l 1,64,-1
 416 96 l 1,65,-1
 384 96 l 1,66,-1
 384 64 l 1,67,-1
 352 64 l 1,68,-1
 352 32 l 1,69,-1
 288 32 l 1,70,-1
 288 0 l 1,71,-1
 256 0 l 1,72,-1
 256 -64 l 1,73,-1
 192 -64 l 1,16,-1
EndSplineSet
EndChar

StartChar: percent
Encoding: 37 37 8
Width: 608
Flags: W
LayerCount: 2
Fore
SplineSet
480 64 m 1,0,-1
 480 160 l 1,1,-1
 416 160 l 1,2,-1
 416 64 l 1,3,-1
 480 64 l 1,0,-1
416 0 m 1,4,-1
 416 32 l 1,5,-1
 384 32 l 1,6,-1
 384 64 l 1,7,-1
 352 64 l 1,8,-1
 352 160 l 1,9,-1
 384 160 l 1,10,-1
 384 192 l 1,11,-1
 416 192 l 1,12,-1
 416 224 l 1,13,-1
 480 224 l 1,14,-1
 480 192 l 1,15,-1
 512 192 l 1,16,-1
 512 160 l 1,17,-1
 544 160 l 1,18,-1
 544 64 l 1,19,-1
 512 64 l 1,20,-1
 512 32 l 1,21,-1
 480 32 l 1,22,-1
 480 0 l 1,23,-1
 416 0 l 1,4,-1
128 480 m 1,24,-1
 128 576 l 1,25,-1
 64 576 l 1,26,-1
 64 480 l 1,27,-1
 128 480 l 1,24,-1
64 416 m 1,28,-1
 64 448 l 1,29,-1
 32 448 l 1,30,-1
 32 480 l 1,31,-1
 0 480 l 1,32,-1
 0 576 l 1,33,-1
 32 576 l 1,34,-1
 32 608 l 1,35,-1
 64 608 l 1,36,-1
 64 640 l 1,37,-1
 128 640 l 1,38,-1
 128 608 l 1,39,-1
 160 608 l 1,40,-1
 160 576 l 1,41,-1
 192 576 l 1,42,-1
 192 480 l 1,43,-1
 160 480 l 1,44,-1
 160 448 l 1,45,-1
 128 448 l 1,46,-1
 128 416 l 1,47,-1
 64 416 l 1,28,-1
0 0 m 1,48,-1
 0 32 l 1,49,-1
 32 32 l 1,50,-1
 32 96 l 1,51,-1
 64 96 l 1,52,-1
 64 128 l 1,53,-1
 96 128 l 1,54,-1
 96 160 l 1,55,-1
 128 160 l 1,56,-1
 128 224 l 1,57,-1
 160 224 l 1,58,-1
 160 256 l 1,59,-1
 192 256 l 1,60,-1
 192 288 l 1,61,-1
 224 288 l 1,62,-1
 224 352 l 1,63,-1
 256 352 l 1,64,-1
 256 384 l 1,65,-1
 288 384 l 1,66,-1
 288 416 l 1,67,-1
 320 416 l 1,68,-1
 320 480 l 1,69,-1
 352 480 l 1,70,-1
 352 512 l 1,71,-1
 384 512 l 1,72,-1
 384 544 l 1,73,-1
 416 544 l 1,74,-1
 416 608 l 1,75,-1
 448 608 l 1,76,-1
 448 640 l 1,77,-1
 544 640 l 1,78,-1
 544 608 l 1,79,-1
 512 608 l 1,80,-1
 512 544 l 1,81,-1
 480 544 l 1,82,-1
 480 512 l 1,83,-1
 448 512 l 1,84,-1
 448 480 l 1,85,-1
 416 480 l 1,86,-1
 416 416 l 1,87,-1
 384 416 l 1,88,-1
 384 384 l 1,89,-1
 352 384 l 1,90,-1
 352 352 l 1,91,-1
 320 352 l 1,92,-1
 320 288 l 1,93,-1
 288 288 l 1,94,-1
 288 256 l 1,95,-1
 256 256 l 1,96,-1
 256 224 l 1,97,-1
 224 224 l 1,98,-1
 224 160 l 1,99,-1
 192 160 l 1,100,-1
 192 128 l 1,101,-1
 160 128 l 1,102,-1
 160 96 l 1,103,-1
 128 96 l 1,104,-1
 128 32 l 1,105,-1
 96 32 l 1,106,-1
 96 0 l 1,107,-1
 0 0 l 1,48,-1
EndSplineSet
EndChar

StartChar: ampersand
Encoding: 38 38 9
Width: 576
Flags: W
LayerCount: 2
Fore
SplineSet
128 0 m 1,0,-1
 128 32 l 1,1,-1
 64 32 l 1,2,-1
 64 64 l 1,3,-1
 32 64 l 1,4,-1
 32 128 l 1,5,-1
 0 128 l 1,6,-1
 0 256 l 1,7,-1
 32 256 l 1,8,-1
 32 320 l 1,9,-1
 64 320 l 1,10,-1
 64 352 l 1,11,-1
 96 352 l 1,12,-1
 96 384 l 1,13,-1
 64 384 l 1,14,-1
 64 416 l 1,15,-1
 32 416 l 1,16,-1
 32 512 l 1,17,-1
 64 512 l 1,18,-1
 64 576 l 1,19,-1
 96 576 l 1,20,-1
 96 608 l 1,21,-1
 160 608 l 1,22,-1
 160 640 l 1,23,-1
 288 640 l 1,24,-1
 288 608 l 1,25,-1
 352 608 l 1,26,-1
 352 576 l 1,27,-1
 384 576 l 1,28,-1
 384 544 l 1,29,-1
 416 544 l 1,30,-1
 416 448 l 1,31,-1
 384 448 l 1,32,-1
 384 416 l 1,33,-1
 288 416 l 1,34,-1
 288 448 l 1,35,-1
 320 448 l 1,36,-1
 320 512 l 1,37,-1
 288 512 l 1,38,-1
 288 544 l 1,39,-1
 160 544 l 1,40,-1
 160 512 l 1,41,-1
 128 512 l 1,42,-1
 128 416 l 1,43,-1
 160 416 l 1,44,-1
 160 384 l 1,45,-1
 224 384 l 1,46,-1
 224 320 l 1,47,-1
 160 320 l 1,48,-1
 160 288 l 1,49,-1
 128 288 l 1,50,-1
 128 256 l 1,51,-1
 96 256 l 1,52,-1
 96 128 l 1,53,-1
 128 128 l 1,54,-1
 128 96 l 1,55,-1
 320 96 l 1,56,-1
 320 128 l 1,57,-1
 352 128 l 1,58,-1
 352 224 l 1,59,-1
 320 224 l 1,60,-1
 320 288 l 1,61,-1
 512 288 l 1,62,-1
 512 224 l 1,63,-1
 448 224 l 1,64,-1
 448 96 l 1,65,-1
 416 96 l 1,66,-1
 416 64 l 1,67,-1
 384 64 l 1,68,-1
 384 32 l 1,69,-1
 352 32 l 1,70,-1
 352 0 l 1,71,-1
 128 0 l 1,0,-1
EndSplineSet
EndChar

StartChar: quotesingle
Encoding: 39 39 10
Width: 128
Flags: W
LayerCount: 2
Fore
SplineSet
0 480 m 1,0,-1
 0 640 l 1,1,-1
 64 640 l 1,2,-1
 64 480 l 1,3,-1
 0 480 l 1,0,-1
EndSplineSet
EndChar

StartChar: parenleft
Encoding: 40 40 11
Width: 288
Flags: W
LayerCount: 2
Fore
SplineSet
128 0 m 1,0,-1
 128 32 l 1,1,-1
 96 32 l 1,2,-1
 96 64 l 1,3,-1
 64 64 l 1,4,-1
 64 96 l 1,5,-1
 32 96 l 1,6,-1
 32 192 l 1,7,-1
 0 192 l 1,8,-1
 0 448 l 1,9,-1
 32 448 l 1,10,-1
 32 544 l 1,11,-1
 64 544 l 1,12,-1
 64 576 l 1,13,-1
 96 576 l 1,14,-1
 96 608 l 1,15,-1
 128 608 l 1,16,-1
 128 640 l 1,17,-1
 224 640 l 1,18,-1
 224 608 l 1,19,-1
 192 608 l 1,20,-1
 192 576 l 1,21,-1
 160 576 l 1,22,-1
 160 512 l 1,23,-1
 128 512 l 1,24,-1
 128 416 l 1,25,-1
 96 416 l 1,26,-1
 96 224 l 1,27,-1
 128 224 l 1,28,-1
 128 128 l 1,29,-1
 160 128 l 1,30,-1
 160 64 l 1,31,-1
 192 64 l 1,32,-1
 192 32 l 1,33,-1
 224 32 l 1,34,-1
 224 0 l 1,35,-1
 128 0 l 1,0,-1
EndSplineSet
EndChar

StartChar: parenright
Encoding: 41 41 12
Width: 288
Flags: W
LayerCount: 2
Fore
SplineSet
0 0 m 1,0,-1
 0 32 l 1,1,-1
 32 32 l 1,2,-1
 32 64 l 1,3,-1
 64 64 l 1,4,-1
 64 128 l 1,5,-1
 96 128 l 1,6,-1
 96 224 l 1,7,-1
 128 224 l 1,8,-1
 128 416 l 1,9,-1
 96 416 l 1,10,-1
 96 512 l 1,11,-1
 64 512 l 1,12,-1
 64 576 l 1,13,-1
 32 576 l 1,14,-1
 32 608 l 1,15,-1
 0 608 l 1,16,-1
 0 640 l 1,17,-1
 96 640 l 1,18,-1
 96 608 l 1,19,-1
 128 608 l 1,20,-1
 128 576 l 1,21,-1
 160 576 l 1,22,-1
 160 544 l 1,23,-1
 192 544 l 1,24,-1
 192 448 l 1,25,-1
 224 448 l 1,26,-1
 224 192 l 1,27,-1
 192 192 l 1,28,-1
 192 96 l 1,29,-1
 160 96 l 1,30,-1
 160 64 l 1,31,-1
 128 64 l 1,32,-1
 128 32 l 1,33,-1
 96 32 l 1,34,-1
 96 0 l 1,35,-1
 0 0 l 1,0,-1
EndSplineSet
EndChar

StartChar: asterisk
Encoding: 42 42 13
Width: 288
Flags: W
LayerCount: 2
Fore
SplineSet
32 448 m 1,0,-1
 32 512 l 1,1,-1
 64 512 l 1,2,-1
 64 544 l 1,3,-1
 32 544 l 1,4,-1
 32 576 l 1,5,-1
 0 576 l 1,6,-1
 0 608 l 1,7,-1
 96 608 l 1,8,-1
 96 672 l 1,9,-1
 128 672 l 1,10,-1
 128 608 l 1,11,-1
 224 608 l 1,12,-1
 224 576 l 1,13,-1
 192 576 l 1,14,-1
 192 544 l 1,15,-1
 160 544 l 1,16,-1
 160 512 l 1,17,-1
 192 512 l 1,18,-1
 192 448 l 1,19,-1
 160 448 l 1,20,-1
 160 480 l 1,21,-1
 128 480 l 1,22,-1
 128 512 l 1,23,-1
 96 512 l 1,24,-1
 96 480 l 1,25,-1
 64 480 l 1,26,-1
 64 448 l 1,27,-1
 32 448 l 1,0,-1
EndSplineSet
EndChar

StartChar: plus
Encoding: 43 43 14
Width: 544
Flags: W
LayerCount: 2
Fore
SplineSet
192 32 m 1,0,-1
 192 224 l 1,1,-1
 0 224 l 1,2,-1
 0 320 l 1,3,-1
 192 320 l 1,4,-1
 192 512 l 1,5,-1
 288 512 l 1,6,-1
 288 320 l 1,7,-1
 480 320 l 1,8,-1
 480 224 l 1,9,-1
 288 224 l 1,10,-1
 288 32 l 1,11,-1
 192 32 l 1,0,-1
EndSplineSet
EndChar

StartChar: comma
Encoding: 44 44 15
Width: 160
Flags: W
LayerCount: 2
Fore
SplineSet
0 -96 m 1,0,-1
 0 -64 l 1,1,-1
 32 -64 l 1,2,-1
 32 -32 l 1,3,-1
 64 -32 l 1,4,-1
 64 0 l 1,5,-1
 0 0 l 1,6,-1
 0 96 l 1,7,-1
 96 96 l 1,8,-1
 96 -64 l 1,9,-1
 64 -64 l 1,10,-1
 64 -96 l 1,11,-1
 0 -96 l 1,0,-1
EndSplineSet
EndChar

StartChar: hyphen
Encoding: 45 45 16
Width: 456
Flags: W
LayerCount: 2
Fore
SplineSet
384 224 m 1,0,-1
 384 240 l 2,1,2
 384 233 384 233 388 228 c 1,3,4
 393 224 393 224 400 224 c 2,5,-1
 384 224 l 1,0,-1
416 224 m 1,6,-1
 416 240 l 2,7,8
 416 233 416 233 420 228 c 1,9,10
 425 224 425 224 432 224 c 2,11,-1
 416 224 l 1,6,-1
448 224 m 1,12,-1
 448 240 l 2,13,14
 448 233 448 233 452 228 c 1,15,16
 457 224 457 224 464 224 c 2,17,-1
 448 224 l 1,12,-1
384 256 m 1,18,-1
 384 272 l 2,19,20
 384 265 384 265 388 260 c 1,21,22
 393 256 393 256 400 256 c 2,23,-1
 384 256 l 1,18,-1
416 256 m 1,24,-1
 416 272 l 2,25,26
 416 265 416 265 420 260 c 1,27,28
 425 256 425 256 432 256 c 2,29,-1
 416 256 l 1,24,-1
448 256 m 1,30,-1
 448 272 l 2,31,32
 448 265 448 265 452 260 c 1,33,34
 457 256 457 256 464 256 c 2,35,-1
 448 256 l 1,30,-1
480 256 m 1,36,-1
 480 272 l 2,37,38
 480 265 480 265 484 260 c 1,39,40
 489 256 489 256 496 256 c 2,41,-1
 480 256 l 1,36,-1
384 288 m 1,42,-1
 384 304 l 2,43,44
 384 297 384 297 388 292 c 1,45,46
 393 288 393 288 400 288 c 2,47,-1
 384 288 l 1,42,-1
416 288 m 1,48,-1
 416 304 l 2,49,50
 416 297 416 297 420 292 c 1,51,52
 425 288 425 288 432 288 c 2,53,-1
 416 288 l 1,48,-1
448 288 m 1,54,-1
 448 304 l 2,55,56
 448 297 448 297 452 292 c 1,57,58
 457 288 457 288 464 288 c 2,59,-1
 448 288 l 1,54,-1
0 224 m 1,60,-1
 0 320 l 1,61,-1
 352 320 l 1,62,-1
 352 304 l 2,63,64
 352 297 352 297 356 292 c 1,65,66
 361 288 361 288 368 288 c 2,67,-1
 352 288 l 1,68,-1
 352 272 l 2,69,70
 352 265 352 265 356 260 c 1,71,72
 361 256 361 256 368 256 c 2,73,-1
 352 256 l 1,74,-1
 352 240 l 2,75,76
 352 233 352 233 356 228 c 1,77,78
 361 224 361 224 368 224 c 2,79,-1
 0 224 l 1,60,-1
EndSplineSet
EndChar

StartChar: period
Encoding: 46 46 17
Width: 160
Flags: W
LayerCount: 2
Fore
SplineSet
0 0 m 1,0,-1
 0 96 l 1,1,-1
 96 96 l 1,2,-1
 96 0 l 1,3,-1
 0 0 l 1,0,-1
EndSplineSet
EndChar

StartChar: slash
Encoding: 47 47 18
Width: 508
Flags: W
LayerCount: 2
Fore
SplineSet
0 -64 m 1,0,-1
 0 0 l 1,1,-1
 32 0 l 1,2,-1
 32 64 l 1,3,-1
 64 64 l 1,4,-1
 64 128 l 1,5,-1
 96 128 l 1,6,-1
 96 192 l 1,7,-1
 128 192 l 1,8,-1
 128 256 l 1,9,-1
 160 256 l 1,10,-1
 160 320 l 1,11,-1
 192 320 l 1,12,-1
 192 384 l 1,13,-1
 224 384 l 1,14,-1
 224 448 l 1,15,-1
 256 448 l 1,16,-1
 256 512 l 1,17,-1
 288 512 l 1,18,-1
 288 576 l 1,19,-1
 320 576 l 1,20,-1
 320 640 l 1,21,-1
 352 640 l 1,22,-1
 352 704 l 1,23,-1
 448 704 l 1,24,-1
 448 640 l 1,25,-1
 416 640 l 1,26,-1
 416 576 l 1,27,-1
 384 576 l 1,28,-1
 384 512 l 1,29,-1
 352 512 l 1,30,-1
 352 448 l 1,31,-1
 320 448 l 1,32,-1
 320 384 l 1,33,-1
 288 384 l 1,34,-1
 288 320 l 1,35,-1
 256 320 l 1,36,-1
 256 256 l 1,37,-1
 224 256 l 1,38,-1
 224 192 l 1,39,-1
 192 192 l 1,40,-1
 192 128 l 1,41,-1
 160 128 l 1,42,-1
 160 64 l 1,43,-1
 128 64 l 1,44,-1
 128 0 l 1,45,-1
 96 0 l 1,46,-1
 96 -64 l 1,47,-1
 0 -64 l 1,0,-1
EndSplineSet
EndChar

StartChar: zero
Encoding: 48 48 19
Width: 544
Flags: W
LayerCount: 2
Fore
SplineSet
320 96 m 1,0,-1
 320 128 l 1,1,-1
 352 128 l 1,2,-1
 352 224 l 1,3,-1
 384 224 l 1,4,-1
 384 416 l 1,5,-1
 352 416 l 1,6,-1
 352 512 l 1,7,-1
 320 512 l 1,8,-1
 320 544 l 1,9,-1
 160 544 l 1,10,-1
 160 512 l 1,11,-1
 128 512 l 1,12,-1
 128 416 l 1,13,-1
 96 416 l 1,14,-1
 96 224 l 1,15,-1
 128 224 l 1,16,-1
 128 128 l 1,17,-1
 160 128 l 1,18,-1
 160 96 l 1,19,-1
 320 96 l 1,0,-1
128 0 m 1,20,-1
 128 32 l 1,21,-1
 64 32 l 1,22,-1
 64 96 l 1,23,-1
 32 96 l 1,24,-1
 32 192 l 1,25,-1
 0 192 l 1,26,-1
 0 448 l 1,27,-1
 32 448 l 1,28,-1
 32 544 l 1,29,-1
 64 544 l 1,30,-1
 64 608 l 1,31,-1
 128 608 l 1,32,-1
 128 640 l 1,33,-1
 352 640 l 1,34,-1
 352 608 l 1,35,-1
 416 608 l 1,36,-1
 416 544 l 1,37,-1
 448 544 l 1,38,-1
 448 448 l 1,39,-1
 480 448 l 1,40,-1
 480 192 l 1,41,-1
 448 192 l 1,42,-1
 448 96 l 1,43,-1
 416 96 l 1,44,-1
 416 32 l 1,45,-1
 352 32 l 1,46,-1
 352 0 l 1,47,-1
 128 0 l 1,20,-1
EndSplineSet
EndChar

StartChar: one
Encoding: 49 49 20
Width: 256
Flags: W
LayerCount: 2
Fore
SplineSet
96 0 m 1,0,-1
 96 480 l 1,1,-1
 0 480 l 1,2,-1
 0 544 l 1,3,-1
 32 544 l 1,4,-1
 32 576 l 1,5,-1
 64 576 l 1,6,-1
 64 608 l 1,7,-1
 96 608 l 1,8,-1
 96 640 l 1,9,-1
 192 640 l 1,10,-1
 192 0 l 1,11,-1
 96 0 l 1,0,-1
EndSplineSet
EndChar

StartChar: two
Encoding: 50 50 21
Width: 544
Flags: W
LayerCount: 2
Fore
SplineSet
32 0 m 1,0,-1
 32 96 l 1,1,-1
 64 96 l 1,2,-1
 64 128 l 1,3,-1
 96 128 l 1,4,-1
 96 160 l 1,5,-1
 128 160 l 1,6,-1
 128 192 l 1,7,-1
 160 192 l 1,8,-1
 160 224 l 1,9,-1
 192 224 l 1,10,-1
 192 256 l 1,11,-1
 224 256 l 1,12,-1
 224 288 l 1,13,-1
 256 288 l 1,14,-1
 256 320 l 1,15,-1
 288 320 l 1,16,-1
 288 352 l 1,17,-1
 320 352 l 1,18,-1
 320 384 l 1,19,-1
 352 384 l 1,20,-1
 352 512 l 1,21,-1
 320 512 l 1,22,-1
 320 544 l 1,23,-1
 192 544 l 1,24,-1
 192 512 l 1,25,-1
 160 512 l 1,26,-1
 160 480 l 1,27,-1
 128 480 l 1,28,-1
 128 416 l 1,29,-1
 32 416 l 1,30,-1
 32 480 l 1,31,-1
 64 480 l 1,32,-1
 64 544 l 1,33,-1
 96 544 l 1,34,-1
 96 576 l 1,35,-1
 128 576 l 1,36,-1
 128 608 l 1,37,-1
 160 608 l 1,38,-1
 160 640 l 1,39,-1
 352 640 l 1,40,-1
 352 608 l 1,41,-1
 384 608 l 1,42,-1
 384 576 l 1,43,-1
 416 576 l 1,44,-1
 416 544 l 1,45,-1
 448 544 l 1,46,-1
 448 352 l 1,47,-1
 416 352 l 1,48,-1
 416 320 l 1,49,-1
 384 320 l 1,50,-1
 384 288 l 1,51,-1
 352 288 l 1,52,-1
 352 256 l 1,53,-1
 320 256 l 1,54,-1
 320 224 l 1,55,-1
 288 224 l 1,56,-1
 288 192 l 1,57,-1
 256 192 l 1,58,-1
 256 160 l 1,59,-1
 224 160 l 1,60,-1
 224 128 l 1,61,-1
 192 128 l 1,62,-1
 192 96 l 1,63,-1
 480 96 l 1,64,-1
 480 0 l 1,65,-1
 32 0 l 1,0,-1
EndSplineSet
EndChar

StartChar: three
Encoding: 51 51 22
Width: 480
Flags: W
LayerCount: 2
Fore
SplineSet
96 0 m 1,0,-1
 96 32 l 1,1,-1
 64 32 l 1,2,-1
 64 64 l 1,3,-1
 32 64 l 1,4,-1
 32 96 l 1,5,-1
 0 96 l 1,6,-1
 0 160 l 1,7,-1
 96 160 l 1,8,-1
 96 128 l 1,9,-1
 128 128 l 1,10,-1
 128 96 l 1,11,-1
 288 96 l 1,12,-1
 288 128 l 1,13,-1
 320 128 l 1,14,-1
 320 256 l 1,15,-1
 288 256 l 1,16,-1
 288 288 l 1,17,-1
 160 288 l 1,18,-1
 160 384 l 1,19,-1
 288 384 l 1,20,-1
 288 416 l 1,21,-1
 320 416 l 1,22,-1
 320 512 l 1,23,-1
 288 512 l 1,24,-1
 288 544 l 1,25,-1
 128 544 l 1,26,-1
 128 512 l 1,27,-1
 96 512 l 1,28,-1
 96 480 l 1,29,-1
 0 480 l 1,30,-1
 0 544 l 1,31,-1
 32 544 l 1,32,-1
 32 576 l 1,33,-1
 64 576 l 1,34,-1
 64 608 l 1,35,-1
 96 608 l 1,36,-1
 96 640 l 1,37,-1
 288 640 l 1,38,-1
 288 608 l 1,39,-1
 352 608 l 1,40,-1
 352 576 l 1,41,-1
 384 576 l 1,42,-1
 384 544 l 1,43,-1
 416 544 l 1,44,-1
 416 384 l 1,45,-1
 384 384 l 1,46,-1
 384 352 l 1,47,-1
 352 352 l 1,48,-1
 352 320 l 1,49,-1
 384 320 l 1,50,-1
 384 288 l 1,51,-1
 416 288 l 1,52,-1
 416 96 l 1,53,-1
 384 96 l 1,54,-1
 384 64 l 1,55,-1
 352 64 l 1,56,-1
 352 32 l 1,57,-1
 288 32 l 1,58,-1
 288 0 l 1,59,-1
 96 0 l 1,0,-1
EndSplineSet
EndChar

StartChar: four
Encoding: 52 52 23
Width: 544
Flags: W
LayerCount: 2
Fore
SplineSet
288 256 m 1,0,-1
 288 480 l 1,1,-1
 256 480 l 1,2,-1
 256 448 l 1,3,-1
 224 448 l 1,4,-1
 224 416 l 1,5,-1
 192 416 l 1,6,-1
 192 384 l 1,7,-1
 160 384 l 1,8,-1
 160 352 l 1,9,-1
 128 352 l 1,10,-1
 128 320 l 1,11,-1
 96 320 l 1,12,-1
 96 256 l 1,13,-1
 288 256 l 1,0,-1
288 0 m 1,14,-1
 288 160 l 1,15,-1
 0 160 l 1,16,-1
 0 352 l 1,17,-1
 32 352 l 1,18,-1
 32 384 l 1,19,-1
 64 384 l 1,20,-1
 64 416 l 1,21,-1
 96 416 l 1,22,-1
 96 448 l 1,23,-1
 128 448 l 1,24,-1
 128 480 l 1,25,-1
 160 480 l 1,26,-1
 160 512 l 1,27,-1
 192 512 l 1,28,-1
 192 544 l 1,29,-1
 224 544 l 1,30,-1
 224 576 l 1,31,-1
 256 576 l 1,32,-1
 256 608 l 1,33,-1
 288 608 l 1,34,-1
 288 640 l 1,35,-1
 384 640 l 1,36,-1
 384 256 l 1,37,-1
 480 256 l 1,38,-1
 480 160 l 1,39,-1
 384 160 l 1,40,-1
 384 0 l 1,41,-1
 288 0 l 1,14,-1
EndSplineSet
EndChar

StartChar: five
Encoding: 53 53 24
Width: 512
Flags: W
LayerCount: 2
Fore
SplineSet
128 0 m 1,0,-1
 128 32 l 1,1,-1
 64 32 l 1,2,-1
 64 64 l 1,3,-1
 32 64 l 1,4,-1
 32 96 l 1,5,-1
 0 96 l 1,6,-1
 0 192 l 1,7,-1
 96 192 l 1,8,-1
 96 128 l 1,9,-1
 128 128 l 1,10,-1
 128 96 l 1,11,-1
 256 96 l 1,12,-1
 256 128 l 1,13,-1
 320 128 l 1,14,-1
 320 192 l 1,15,-1
 352 192 l 1,16,-1
 352 256 l 1,17,-1
 320 256 l 1,18,-1
 320 288 l 1,19,-1
 288 288 l 1,20,-1
 288 320 l 1,21,-1
 256 320 l 1,22,-1
 256 352 l 1,23,-1
 32 352 l 1,24,-1
 32 480 l 1,25,-1
 64 480 l 1,26,-1
 64 576 l 1,27,-1
 96 576 l 1,28,-1
 96 640 l 1,29,-1
 384 640 l 1,30,-1
 384 544 l 1,31,-1
 160 544 l 1,32,-1
 160 480 l 1,33,-1
 128 480 l 1,34,-1
 128 448 l 1,35,-1
 288 448 l 1,36,-1
 288 416 l 1,37,-1
 352 416 l 1,38,-1
 352 384 l 1,39,-1
 384 384 l 1,40,-1
 384 352 l 1,41,-1
 416 352 l 1,42,-1
 416 288 l 1,43,-1
 448 288 l 1,44,-1
 448 160 l 1,45,-1
 416 160 l 1,46,-1
 416 96 l 1,47,-1
 384 96 l 1,48,-1
 384 64 l 1,49,-1
 352 64 l 1,50,-1
 352 32 l 1,51,-1
 288 32 l 1,52,-1
 288 0 l 1,53,-1
 128 0 l 1,0,-1
EndSplineSet
EndChar

StartChar: six
Encoding: 54 54 25
Width: 512
Flags: W
LayerCount: 2
Fore
SplineSet
320 96 m 1,0,-1
 320 128 l 1,1,-1
 352 128 l 1,2,-1
 352 256 l 1,3,-1
 320 256 l 1,4,-1
 320 288 l 1,5,-1
 160 288 l 1,6,-1
 160 256 l 1,7,-1
 128 256 l 1,8,-1
 128 128 l 1,9,-1
 160 128 l 1,10,-1
 160 96 l 1,11,-1
 320 96 l 1,0,-1
128 0 m 1,12,-1
 128 32 l 1,13,-1
 64 32 l 1,14,-1
 64 96 l 1,15,-1
 32 96 l 1,16,-1
 32 192 l 1,17,-1
 0 192 l 1,18,-1
 0 448 l 1,19,-1
 32 448 l 1,20,-1
 32 544 l 1,21,-1
 64 544 l 1,22,-1
 64 608 l 1,23,-1
 128 608 l 1,24,-1
 128 640 l 1,25,-1
 352 640 l 1,26,-1
 352 608 l 1,27,-1
 416 608 l 1,28,-1
 416 544 l 1,29,-1
 448 544 l 1,30,-1
 448 480 l 1,31,-1
 352 480 l 1,32,-1
 352 512 l 1,33,-1
 320 512 l 1,34,-1
 320 544 l 1,35,-1
 160 544 l 1,36,-1
 160 512 l 1,37,-1
 128 512 l 1,38,-1
 128 416 l 1,39,-1
 96 416 l 1,40,-1
 96 320 l 1,41,-1
 128 320 l 1,42,-1
 128 352 l 1,43,-1
 160 352 l 1,44,-1
 160 384 l 1,45,-1
 384 384 l 1,46,-1
 384 352 l 1,47,-1
 416 352 l 1,48,-1
 416 320 l 1,49,-1
 448 320 l 1,50,-1
 448 96 l 1,51,-1
 416 96 l 1,52,-1
 416 32 l 1,53,-1
 352 32 l 1,54,-1
 352 0 l 1,55,-1
 128 0 l 1,12,-1
EndSplineSet
EndChar

StartChar: seven
Encoding: 55 55 26
Width: 544
Flags: W
LayerCount: 2
Fore
SplineSet
128 0 m 1,0,-1
 128 128 l 1,1,-1
 160 128 l 1,2,-1
 160 192 l 1,3,-1
 192 192 l 1,4,-1
 192 288 l 1,5,-1
 224 288 l 1,6,-1
 224 352 l 1,7,-1
 256 352 l 1,8,-1
 256 416 l 1,9,-1
 288 416 l 1,10,-1
 288 480 l 1,11,-1
 320 480 l 1,12,-1
 320 512 l 1,13,-1
 352 512 l 1,14,-1
 352 544 l 1,15,-1
 0 544 l 1,16,-1
 0 640 l 1,17,-1
 480 640 l 1,18,-1
 480 544 l 1,19,-1
 448 544 l 1,20,-1
 448 480 l 1,21,-1
 416 480 l 1,22,-1
 416 448 l 1,23,-1
 384 448 l 1,24,-1
 384 384 l 1,25,-1
 352 384 l 1,26,-1
 352 320 l 1,27,-1
 320 320 l 1,28,-1
 320 256 l 1,29,-1
 288 256 l 1,30,-1
 288 192 l 1,31,-1
 256 192 l 1,32,-1
 256 96 l 1,33,-1
 224 96 l 1,34,-1
 224 0 l 1,35,-1
 128 0 l 1,0,-1
EndSplineSet
EndChar

StartChar: eight
Encoding: 56 56 27
Width: 512
Flags: W
LayerCount: 2
Fore
SplineSet
320 96 m 1,0,-1
 320 128 l 1,1,-1
 352 128 l 1,2,-1
 352 256 l 1,3,-1
 320 256 l 1,4,-1
 320 288 l 1,5,-1
 288 288 l 1,6,-1
 288 320 l 1,7,-1
 160 320 l 1,8,-1
 160 288 l 1,9,-1
 128 288 l 1,10,-1
 128 256 l 1,11,-1
 96 256 l 1,12,-1
 96 128 l 1,13,-1
 128 128 l 1,14,-1
 128 96 l 1,15,-1
 320 96 l 1,0,-1
288 384 m 1,16,-1
 288 416 l 1,17,-1
 320 416 l 1,18,-1
 320 512 l 1,19,-1
 288 512 l 1,20,-1
 288 544 l 1,21,-1
 160 544 l 1,22,-1
 160 512 l 1,23,-1
 128 512 l 1,24,-1
 128 416 l 1,25,-1
 160 416 l 1,26,-1
 160 384 l 1,27,-1
 288 384 l 1,16,-1
128 0 m 1,28,-1
 128 32 l 1,29,-1
 64 32 l 1,30,-1
 64 64 l 1,31,-1
 32 64 l 1,32,-1
 32 128 l 1,33,-1
 0 128 l 1,34,-1
 0 256 l 1,35,-1
 32 256 l 1,36,-1
 32 320 l 1,37,-1
 64 320 l 1,38,-1
 64 352 l 1,39,-1
 96 352 l 1,40,-1
 96 384 l 1,41,-1
 64 384 l 1,42,-1
 64 416 l 1,43,-1
 32 416 l 1,44,-1
 32 512 l 1,45,-1
 64 512 l 1,46,-1
 64 576 l 1,47,-1
 96 576 l 1,48,-1
 96 608 l 1,49,-1
 160 608 l 1,50,-1
 160 640 l 1,51,-1
 288 640 l 1,52,-1
 288 608 l 1,53,-1
 352 608 l 1,54,-1
 352 576 l 1,55,-1
 384 576 l 1,56,-1
 384 512 l 1,57,-1
 416 512 l 1,58,-1
 416 416 l 1,59,-1
 384 416 l 1,60,-1
 384 384 l 1,61,-1
 352 384 l 1,62,-1
 352 352 l 1,63,-1
 384 352 l 1,64,-1
 384 320 l 1,65,-1
 416 320 l 1,66,-1
 416 256 l 1,67,-1
 448 256 l 1,68,-1
 448 128 l 1,69,-1
 416 128 l 1,70,-1
 416 64 l 1,71,-1
 384 64 l 1,72,-1
 384 32 l 1,73,-1
 320 32 l 1,74,-1
 320 0 l 1,75,-1
 128 0 l 1,28,-1
EndSplineSet
EndChar

StartChar: nine
Encoding: 57 57 28
Width: 512
Flags: W
LayerCount: 2
Fore
SplineSet
288 352 m 1,0,-1
 288 384 l 1,1,-1
 320 384 l 1,2,-1
 320 512 l 1,3,-1
 288 512 l 1,4,-1
 288 544 l 1,5,-1
 128 544 l 1,6,-1
 128 512 l 1,7,-1
 96 512 l 1,8,-1
 96 384 l 1,9,-1
 128 384 l 1,10,-1
 128 352 l 1,11,-1
 288 352 l 1,0,-1
96 0 m 1,12,-1
 96 32 l 1,13,-1
 32 32 l 1,14,-1
 32 96 l 1,15,-1
 0 96 l 1,16,-1
 0 160 l 1,17,-1
 96 160 l 1,18,-1
 96 128 l 1,19,-1
 128 128 l 1,20,-1
 128 96 l 1,21,-1
 288 96 l 1,22,-1
 288 128 l 1,23,-1
 320 128 l 1,24,-1
 320 224 l 1,25,-1
 352 224 l 1,26,-1
 352 320 l 1,27,-1
 320 320 l 1,28,-1
 320 288 l 1,29,-1
 288 288 l 1,30,-1
 288 256 l 1,31,-1
 64 256 l 1,32,-1
 64 288 l 1,33,-1
 32 288 l 1,34,-1
 32 352 l 1,35,-1
 0 352 l 1,36,-1
 0 512 l 1,37,-1
 32 512 l 1,38,-1
 32 608 l 1,39,-1
 96 608 l 1,40,-1
 96 640 l 1,41,-1
 320 640 l 1,42,-1
 320 608 l 1,43,-1
 384 608 l 1,44,-1
 384 544 l 1,45,-1
 416 544 l 1,46,-1
 416 448 l 1,47,-1
 448 448 l 1,48,-1
 448 192 l 1,49,-1
 416 192 l 1,50,-1
 416 96 l 1,51,-1
 384 96 l 1,52,-1
 384 32 l 1,53,-1
 320 32 l 1,54,-1
 320 0 l 1,55,-1
 96 0 l 1,12,-1
EndSplineSet
EndChar

StartChar: colon
Encoding: 58 58 29
Width: 160
Flags: W
LayerCount: 2
Fore
SplineSet
0 32 m 1,0,-1
 0 128 l 1,1,-1
 96 128 l 1,2,-1
 96 32 l 1,3,-1
 0 32 l 1,0,-1
0 320 m 1,4,-1
 0 416 l 1,5,-1
 96 416 l 1,6,-1
 96 320 l 1,7,-1
 0 320 l 1,4,-1
EndSplineSet
EndChar

StartChar: semicolon
Encoding: 59 59 30
Width: 160
Flags: W
LayerCount: 2
Fore
SplineSet
0 -96 m 1,0,-1
 0 -64 l 1,1,-1
 32 -64 l 1,2,-1
 32 -32 l 1,3,-1
 64 -32 l 1,4,-1
 64 0 l 1,5,-1
 0 0 l 1,6,-1
 0 96 l 1,7,-1
 96 96 l 1,8,-1
 96 -64 l 1,9,-1
 64 -64 l 1,10,-1
 64 -96 l 1,11,-1
 0 -96 l 1,0,-1
0 352 m 1,12,-1
 0 448 l 1,13,-1
 96 448 l 1,14,-1
 96 352 l 1,15,-1
 0 352 l 1,12,-1
EndSplineSet
EndChar

StartChar: less
Encoding: 60 60 31
Width: 352
Flags: W
LayerCount: 2
Fore
SplineSet
224 64 m 1,0,-1
 224 96 l 1,1,-1
 192 96 l 1,2,-1
 192 128 l 1,3,-1
 160 128 l 1,4,-1
 160 160 l 1,5,-1
 128 160 l 1,6,-1
 128 192 l 1,7,-1
 96 192 l 1,8,-1
 96 224 l 1,9,-1
 64 224 l 1,10,-1
 64 256 l 1,11,-1
 32 256 l 1,12,-1
 32 288 l 1,13,-1
 0 288 l 1,14,-1
 0 320 l 1,15,-1
 32 320 l 1,16,-1
 32 352 l 1,17,-1
 64 352 l 1,18,-1
 64 384 l 1,19,-1
 96 384 l 1,20,-1
 96 416 l 1,21,-1
 128 416 l 1,22,-1
 128 448 l 1,23,-1
 160 448 l 1,24,-1
 160 480 l 1,25,-1
 192 480 l 1,26,-1
 192 512 l 1,27,-1
 224 512 l 1,28,-1
 224 544 l 1,29,-1
 256 544 l 1,30,-1
 256 512 l 1,31,-1
 288 512 l 1,32,-1
 288 480 l 1,33,-1
 256 480 l 1,34,-1
 256 448 l 1,35,-1
 224 448 l 1,36,-1
 224 416 l 1,37,-1
 192 416 l 1,38,-1
 192 384 l 1,39,-1
 160 384 l 1,40,-1
 160 352 l 1,41,-1
 128 352 l 1,42,-1
 128 320 l 1,43,-1
 96 320 l 1,44,-1
 96 288 l 1,45,-1
 128 288 l 1,46,-1
 128 256 l 1,47,-1
 160 256 l 1,48,-1
 160 224 l 1,49,-1
 192 224 l 1,50,-1
 192 192 l 1,51,-1
 224 192 l 1,52,-1
 224 160 l 1,53,-1
 256 160 l 1,54,-1
 256 128 l 1,55,-1
 288 128 l 1,56,-1
 288 96 l 1,57,-1
 256 96 l 1,58,-1
 256 64 l 1,59,-1
 224 64 l 1,0,-1
EndSplineSet
EndChar

StartChar: equal
Encoding: 61 61 32
Width: 576
Flags: W
LayerCount: 2
Fore
SplineSet
0 128 m 1,0,-1
 0 224 l 1,1,-1
 512 224 l 1,2,-1
 512 128 l 1,3,-1
 0 128 l 1,0,-1
0 352 m 1,4,-1
 0 448 l 1,5,-1
 512 448 l 1,6,-1
 512 352 l 1,7,-1
 0 352 l 1,4,-1
EndSplineSet
EndChar

StartChar: greater
Encoding: 62 62 33
Width: 352
Flags: W
LayerCount: 2
Fore
SplineSet
32 64 m 1,0,-1
 32 96 l 1,1,-1
 0 96 l 1,2,-1
 0 128 l 1,3,-1
 32 128 l 1,4,-1
 32 160 l 1,5,-1
 64 160 l 1,6,-1
 64 192 l 1,7,-1
 96 192 l 1,8,-1
 96 224 l 1,9,-1
 128 224 l 1,10,-1
 128 256 l 1,11,-1
 160 256 l 1,12,-1
 160 288 l 1,13,-1
 192 288 l 1,14,-1
 192 320 l 1,15,-1
 160 320 l 1,16,-1
 160 352 l 1,17,-1
 128 352 l 1,18,-1
 128 384 l 1,19,-1
 96 384 l 1,20,-1
 96 416 l 1,21,-1
 64 416 l 1,22,-1
 64 448 l 1,23,-1
 32 448 l 1,24,-1
 32 480 l 1,25,-1
 0 480 l 1,26,-1
 0 512 l 1,27,-1
 32 512 l 1,28,-1
 32 544 l 1,29,-1
 64 544 l 1,30,-1
 64 512 l 1,31,-1
 96 512 l 1,32,-1
 96 480 l 1,33,-1
 128 480 l 1,34,-1
 128 448 l 1,35,-1
 160 448 l 1,36,-1
 160 416 l 1,37,-1
 192 416 l 1,38,-1
 192 384 l 1,39,-1
 224 384 l 1,40,-1
 224 352 l 1,41,-1
 256 352 l 1,42,-1
 256 320 l 1,43,-1
 288 320 l 1,44,-1
 288 288 l 1,45,-1
 256 288 l 1,46,-1
 256 256 l 1,47,-1
 224 256 l 1,48,-1
 224 224 l 1,49,-1
 192 224 l 1,50,-1
 192 192 l 1,51,-1
 160 192 l 1,52,-1
 160 160 l 1,53,-1
 128 160 l 1,54,-1
 128 128 l 1,55,-1
 96 128 l 1,56,-1
 96 96 l 1,57,-1
 64 96 l 1,58,-1
 64 64 l 1,59,-1
 32 64 l 1,0,-1
EndSplineSet
EndChar

StartChar: question
Encoding: 63 63 34
Width: 512
Flags: W
LayerCount: 2
Fore
SplineSet
192 0 m 1,0,-1
 192 96 l 1,1,-1
 288 96 l 1,2,-1
 288 0 l 1,3,-1
 192 0 l 1,0,-1
192 192 m 1,4,-1
 192 288 l 1,5,-1
 224 288 l 1,6,-1
 224 320 l 1,7,-1
 256 320 l 1,8,-1
 256 352 l 1,9,-1
 288 352 l 1,10,-1
 288 384 l 1,11,-1
 320 384 l 1,12,-1
 320 416 l 1,13,-1
 352 416 l 1,14,-1
 352 512 l 1,15,-1
 320 512 l 1,16,-1
 320 544 l 1,17,-1
 160 544 l 1,18,-1
 160 512 l 1,19,-1
 128 512 l 1,20,-1
 128 480 l 1,21,-1
 96 480 l 1,22,-1
 96 416 l 1,23,-1
 0 416 l 1,24,-1
 0 480 l 1,25,-1
 32 480 l 1,26,-1
 32 544 l 1,27,-1
 64 544 l 1,28,-1
 64 576 l 1,29,-1
 96 576 l 1,30,-1
 96 608 l 1,31,-1
 128 608 l 1,32,-1
 128 640 l 1,33,-1
 320 640 l 1,34,-1
 320 608 l 1,35,-1
 384 608 l 1,36,-1
 384 576 l 1,37,-1
 416 576 l 1,38,-1
 416 544 l 1,39,-1
 448 544 l 1,40,-1
 448 384 l 1,41,-1
 416 384 l 1,42,-1
 416 352 l 1,43,-1
 384 352 l 1,44,-1
 384 320 l 1,45,-1
 352 320 l 1,46,-1
 352 288 l 1,47,-1
 320 288 l 1,48,-1
 320 256 l 1,49,-1
 288 256 l 1,50,-1
 288 192 l 1,51,-1
 192 192 l 1,4,-1
EndSplineSet
EndChar

StartChar: at
Encoding: 64 64 35
Width: 576
Flags: W
LayerCount: 2
Fore
SplineSet
288 160 m 1,0,-1
 288 192 l 1,1,-1
 320 192 l 1,2,-1
 320 384 l 1,3,-1
 224 384 l 1,4,-1
 224 352 l 1,5,-1
 192 352 l 1,6,-1
 192 192 l 1,7,-1
 224 192 l 1,8,-1
 224 160 l 1,9,-1
 288 160 l 1,0,-1
160 -32 m 1,10,-1
 160 0 l 1,11,-1
 96 0 l 1,12,-1
 96 32 l 1,13,-1
 64 32 l 1,14,-1
 64 64 l 1,15,-1
 32 64 l 1,16,-1
 32 128 l 1,17,-1
 0 128 l 1,18,-1
 0 416 l 1,19,-1
 32 416 l 1,20,-1
 32 480 l 1,21,-1
 64 480 l 1,22,-1
 64 512 l 1,23,-1
 96 512 l 1,24,-1
 96 544 l 1,25,-1
 128 544 l 1,26,-1
 128 576 l 1,27,-1
 192 576 l 1,28,-1
 192 608 l 1,29,-1
 352 608 l 1,30,-1
 352 576 l 1,31,-1
 416 576 l 1,32,-1
 416 544 l 1,33,-1
 448 544 l 1,34,-1
 448 512 l 1,35,-1
 480 512 l 1,36,-1
 480 480 l 1,37,-1
 512 480 l 1,38,-1
 512 160 l 1,39,-1
 480 160 l 1,40,-1
 480 128 l 1,41,-1
 448 128 l 1,42,-1
 448 96 l 1,43,-1
 384 96 l 1,44,-1
 384 128 l 1,45,-1
 352 128 l 1,46,-1
 352 160 l 1,47,-1
 320 160 l 1,48,-1
 320 128 l 1,49,-1
 288 128 l 1,50,-1
 288 96 l 1,51,-1
 192 96 l 1,52,-1
 192 128 l 1,53,-1
 160 128 l 1,54,-1
 160 160 l 1,55,-1
 128 160 l 1,56,-1
 128 384 l 1,57,-1
 160 384 l 1,58,-1
 160 416 l 1,59,-1
 192 416 l 1,60,-1
 192 448 l 1,61,-1
 352 448 l 1,62,-1
 352 416 l 1,63,-1
 384 416 l 1,64,-1
 384 160 l 1,65,-1
 416 160 l 1,66,-1
 416 192 l 1,67,-1
 448 192 l 1,68,-1
 448 448 l 1,69,-1
 416 448 l 1,70,-1
 416 480 l 1,71,-1
 384 480 l 1,72,-1
 384 512 l 1,73,-1
 320 512 l 1,74,-1
 320 544 l 1,75,-1
 224 544 l 1,76,-1
 224 512 l 1,77,-1
 160 512 l 1,78,-1
 160 480 l 1,79,-1
 128 480 l 1,80,-1
 128 448 l 1,81,-1
 96 448 l 1,82,-1
 96 416 l 1,83,-1
 64 416 l 1,84,-1
 64 128 l 1,85,-1
 96 128 l 1,86,-1
 96 96 l 1,87,-1
 128 96 l 1,88,-1
 128 64 l 1,89,-1
 192 64 l 1,90,-1
 192 32 l 1,91,-1
 288 32 l 1,92,-1
 288 -32 l 1,93,-1
 160 -32 l 1,10,-1
EndSplineSet
EndChar

StartChar: A
Encoding: 65 65 36
Width: 672
Flags: W
LayerCount: 2
Fore
SplineSet
416 288 m 1,0,-1
 416 320 l 1,1,-1
 384 320 l 1,2,-1
 384 384 l 1,3,-1
 352 384 l 1,4,-1
 352 448 l 1,5,-1
 320 448 l 1,6,-1
 320 512 l 1,7,-1
 288 512 l 1,8,-1
 288 448 l 1,9,-1
 256 448 l 1,10,-1
 256 384 l 1,11,-1
 224 384 l 1,12,-1
 224 320 l 1,13,-1
 192 320 l 1,14,-1
 192 288 l 1,15,-1
 416 288 l 1,0,-1
0 0 m 1,16,-1
 0 96 l 1,17,-1
 32 96 l 1,18,-1
 32 160 l 1,19,-1
 64 160 l 1,20,-1
 64 256 l 1,21,-1
 96 256 l 1,22,-1
 96 320 l 1,23,-1
 128 320 l 1,24,-1
 128 384 l 1,25,-1
 160 384 l 1,26,-1
 160 448 l 1,27,-1
 192 448 l 1,28,-1
 192 512 l 1,29,-1
 224 512 l 1,30,-1
 224 576 l 1,31,-1
 256 576 l 1,32,-1
 256 640 l 1,33,-1
 352 640 l 1,34,-1
 352 576 l 1,35,-1
 384 576 l 1,36,-1
 384 512 l 1,37,-1
 416 512 l 1,38,-1
 416 448 l 1,39,-1
 448 448 l 1,40,-1
 448 384 l 1,41,-1
 480 384 l 1,42,-1
 480 320 l 1,43,-1
 512 320 l 1,44,-1
 512 256 l 1,45,-1
 544 256 l 1,46,-1
 544 160 l 1,47,-1
 576 160 l 1,48,-1
 576 96 l 1,49,-1
 608 96 l 1,50,-1
 608 0 l 1,51,-1
 512 0 l 1,52,-1
 512 64 l 1,53,-1
 480 64 l 1,54,-1
 480 128 l 1,55,-1
 448 128 l 1,56,-1
 448 192 l 1,57,-1
 160 192 l 1,58,-1
 160 128 l 1,59,-1
 128 128 l 1,60,-1
 128 64 l 1,61,-1
 96 64 l 1,62,-1
 96 0 l 1,63,-1
 0 0 l 1,16,-1
EndSplineSet
EndChar

StartChar: B
Encoding: 66 66 37
Width: 538
Flags: W
LayerCount: 2
Fore
SplineSet
320 96 m 1,0,-1
 320 128 l 1,1,-1
 352 128 l 1,2,-1
 352 256 l 1,3,-1
 320 256 l 1,4,-1
 320 288 l 1,5,-1
 96 288 l 1,6,-1
 96 96 l 1,7,-1
 320 96 l 1,0,-1
288 384 m 1,8,-1
 288 416 l 1,9,-1
 320 416 l 1,10,-1
 320 512 l 1,11,-1
 288 512 l 1,12,-1
 288 544 l 1,13,-1
 96 544 l 1,14,-1
 96 384 l 1,15,-1
 288 384 l 1,8,-1
0 0 m 1,16,-1
 0 640 l 1,17,-1
 320 640 l 1,18,-1
 320 608 l 1,19,-1
 352 608 l 1,20,-1
 352 576 l 1,21,-1
 384 576 l 1,22,-1
 384 544 l 1,23,-1
 416 544 l 1,24,-1
 416 384 l 1,25,-1
 384 384 l 1,26,-1
 384 320 l 1,27,-1
 416 320 l 1,28,-1
 416 288 l 1,29,-1
 448 288 l 1,30,-1
 448 96 l 1,31,-1
 416 96 l 1,32,-1
 416 64 l 1,33,-1
 384 64 l 1,34,-1
 384 32 l 1,35,-1
 352 32 l 1,36,-1
 352 0 l 1,37,-1
 0 0 l 1,16,-1
EndSplineSet
EndChar

StartChar: C
Encoding: 67 67 38
Width: 640
Flags: W
LayerCount: 2
Fore
SplineSet
224 0 m 1,0,-1
 224 32 l 1,1,-1
 128 32 l 1,2,-1
 128 64 l 1,3,-1
 96 64 l 1,4,-1
 96 96 l 1,5,-1
 64 96 l 1,6,-1
 64 128 l 1,7,-1
 32 128 l 1,8,-1
 32 192 l 1,9,-1
 0 192 l 1,10,-1
 0 448 l 1,11,-1
 32 448 l 1,12,-1
 32 512 l 1,13,-1
 64 512 l 1,14,-1
 64 544 l 1,15,-1
 96 544 l 1,16,-1
 96 576 l 1,17,-1
 128 576 l 1,18,-1
 128 608 l 1,19,-1
 224 608 l 1,20,-1
 224 640 l 1,21,-1
 384 640 l 1,22,-1
 384 608 l 1,23,-1
 480 608 l 1,24,-1
 480 576 l 1,25,-1
 512 576 l 1,26,-1
 512 512 l 1,27,-1
 544 512 l 1,28,-1
 544 480 l 1,29,-1
 576 480 l 1,30,-1
 576 448 l 1,31,-1
 448 448 l 1,32,-1
 448 480 l 1,33,-1
 416 480 l 1,34,-1
 416 512 l 1,35,-1
 352 512 l 1,36,-1
 352 544 l 1,37,-1
 256 544 l 1,38,-1
 256 512 l 1,39,-1
 192 512 l 1,40,-1
 192 480 l 1,41,-1
 160 480 l 1,42,-1
 160 448 l 1,43,-1
 128 448 l 1,44,-1
 128 384 l 1,45,-1
 96 384 l 1,46,-1
 96 256 l 1,47,-1
 128 256 l 1,48,-1
 128 192 l 1,49,-1
 160 192 l 1,50,-1
 160 160 l 1,51,-1
 192 160 l 1,52,-1
 192 128 l 1,53,-1
 256 128 l 1,54,-1
 256 96 l 1,55,-1
 352 96 l 1,56,-1
 352 128 l 1,57,-1
 416 128 l 1,58,-1
 416 160 l 1,59,-1
 448 160 l 1,60,-1
 448 192 l 1,61,-1
 576 192 l 1,62,-1
 576 160 l 1,63,-1
 544 160 l 1,64,-1
 544 128 l 1,65,-1
 512 128 l 1,66,-1
 512 64 l 1,67,-1
 480 64 l 1,68,-1
 480 32 l 1,69,-1
 384 32 l 1,70,-1
 384 0 l 1,71,-1
 224 0 l 1,0,-1
EndSplineSet
EndChar

StartChar: D
Encoding: 68 68 39
Width: 576
Flags: W
LayerCount: 2
Fore
SplineSet
256 96 m 1,0,-1
 256 128 l 1,1,-1
 320 128 l 1,2,-1
 320 160 l 1,3,-1
 352 160 l 1,4,-1
 352 192 l 1,5,-1
 384 192 l 1,6,-1
 384 256 l 1,7,-1
 416 256 l 1,8,-1
 416 384 l 1,9,-1
 384 384 l 1,10,-1
 384 448 l 1,11,-1
 352 448 l 1,12,-1
 352 480 l 1,13,-1
 320 480 l 1,14,-1
 320 512 l 1,15,-1
 256 512 l 1,16,-1
 256 544 l 1,17,-1
 96 544 l 1,18,-1
 96 96 l 1,19,-1
 256 96 l 1,0,-1
0 0 m 1,20,-1
 0 640 l 1,21,-1
 288 640 l 1,22,-1
 288 608 l 1,23,-1
 384 608 l 1,24,-1
 384 576 l 1,25,-1
 416 576 l 1,26,-1
 416 544 l 1,27,-1
 448 544 l 1,28,-1
 448 512 l 1,29,-1
 480 512 l 1,30,-1
 480 448 l 1,31,-1
 512 448 l 1,32,-1
 512 192 l 1,33,-1
 480 192 l 1,34,-1
 480 128 l 1,35,-1
 448 128 l 1,36,-1
 448 96 l 1,37,-1
 416 96 l 1,38,-1
 416 64 l 1,39,-1
 384 64 l 1,40,-1
 384 32 l 1,41,-1
 288 32 l 1,42,-1
 288 0 l 1,43,-1
 0 0 l 1,20,-1
EndSplineSet
EndChar

StartChar: E
Encoding: 69 69 40
Width: 448
Flags: W
LayerCount: 2
Fore
SplineSet
0 0 m 1,0,-1
 0 640 l 1,1,-1
 384 640 l 1,2,-1
 384 544 l 1,3,-1
 96 544 l 1,4,-1
 96 384 l 1,5,-1
 384 384 l 1,6,-1
 384 288 l 1,7,-1
 96 288 l 1,8,-1
 96 96 l 1,9,-1
 384 96 l 1,10,-1
 384 0 l 1,11,-1
 0 0 l 1,0,-1
EndSplineSet
EndChar

StartChar: F
Encoding: 70 70 41
Width: 448
Flags: W
LayerCount: 2
Fore
SplineSet
0 0 m 1,0,-1
 0 640 l 1,1,-1
 384 640 l 1,2,-1
 384 544 l 1,3,-1
 96 544 l 1,4,-1
 96 384 l 1,5,-1
 384 384 l 1,6,-1
 384 288 l 1,7,-1
 96 288 l 1,8,-1
 96 0 l 1,9,-1
 0 0 l 1,0,-1
EndSplineSet
EndChar

StartChar: G
Encoding: 71 71 42
Width: 640
Flags: W
LayerCount: 2
Fore
SplineSet
224 0 m 1,0,-1
 224 32 l 1,1,-1
 128 32 l 1,2,-1
 128 64 l 1,3,-1
 96 64 l 1,4,-1
 96 96 l 1,5,-1
 64 96 l 1,6,-1
 64 128 l 1,7,-1
 32 128 l 1,8,-1
 32 192 l 1,9,-1
 0 192 l 1,10,-1
 0 448 l 1,11,-1
 32 448 l 1,12,-1
 32 512 l 1,13,-1
 64 512 l 1,14,-1
 64 544 l 1,15,-1
 96 544 l 1,16,-1
 96 576 l 1,17,-1
 128 576 l 1,18,-1
 128 608 l 1,19,-1
 224 608 l 1,20,-1
 224 640 l 1,21,-1
 384 640 l 1,22,-1
 384 608 l 1,23,-1
 480 608 l 1,24,-1
 480 576 l 1,25,-1
 512 576 l 1,26,-1
 512 512 l 1,27,-1
 544 512 l 1,28,-1
 544 480 l 1,29,-1
 576 480 l 1,30,-1
 576 448 l 1,31,-1
 448 448 l 1,32,-1
 448 480 l 1,33,-1
 416 480 l 1,34,-1
 416 512 l 1,35,-1
 352 512 l 1,36,-1
 352 544 l 1,37,-1
 256 544 l 1,38,-1
 256 512 l 1,39,-1
 192 512 l 1,40,-1
 192 480 l 1,41,-1
 160 480 l 1,42,-1
 160 448 l 1,43,-1
 128 448 l 1,44,-1
 128 384 l 1,45,-1
 96 384 l 1,46,-1
 96 256 l 1,47,-1
 128 256 l 1,48,-1
 128 192 l 1,49,-1
 160 192 l 1,50,-1
 160 160 l 1,51,-1
 192 160 l 1,52,-1
 192 128 l 1,53,-1
 256 128 l 1,54,-1
 256 96 l 1,55,-1
 352 96 l 1,56,-1
 352 128 l 1,57,-1
 416 128 l 1,58,-1
 416 160 l 1,59,-1
 448 160 l 1,60,-1
 448 192 l 1,61,-1
 480 192 l 1,62,-1
 480 256 l 1,63,-1
 288 256 l 1,64,-1
 288 352 l 1,65,-1
 576 352 l 1,66,-1
 576 160 l 1,67,-1
 544 160 l 1,68,-1
 544 128 l 1,69,-1
 512 128 l 1,70,-1
 512 64 l 1,71,-1
 480 64 l 1,72,-1
 480 32 l 1,73,-1
 384 32 l 1,74,-1
 384 0 l 1,75,-1
 224 0 l 1,0,-1
EndSplineSet
EndChar

StartChar: H
Encoding: 72 72 43
Width: 544
Flags: W
LayerCount: 2
Fore
SplineSet
0 0 m 1,0,-1
 0 640 l 1,1,-1
 96 640 l 1,2,-1
 96 384 l 1,3,-1
 384 384 l 1,4,-1
 384 640 l 1,5,-1
 480 640 l 1,6,-1
 480 0 l 1,7,-1
 384 0 l 1,8,-1
 384 288 l 1,9,-1
 96 288 l 1,10,-1
 96 0 l 1,11,-1
 0 0 l 1,0,-1
EndSplineSet
EndChar

StartChar: I
Encoding: 73 73 44
Width: 160
Flags: W
LayerCount: 2
Fore
SplineSet
0 0 m 1,0,-1
 0 640 l 1,1,-1
 96 640 l 1,2,-1
 96 0 l 1,3,-1
 0 0 l 1,0,-1
EndSplineSet
EndChar

StartChar: J
Encoding: 74 74 45
Width: 416
Flags: W
LayerCount: 2
Fore
SplineSet
96 0 m 1,0,-1
 96 32 l 1,1,-1
 32 32 l 1,2,-1
 32 96 l 1,3,-1
 0 96 l 1,4,-1
 0 224 l 1,5,-1
 96 224 l 1,6,-1
 96 128 l 1,7,-1
 128 128 l 1,8,-1
 128 96 l 1,9,-1
 224 96 l 1,10,-1
 224 128 l 1,11,-1
 256 128 l 1,12,-1
 256 640 l 1,13,-1
 352 640 l 1,14,-1
 352 96 l 1,15,-1
 320 96 l 1,16,-1
 320 32 l 1,17,-1
 256 32 l 1,18,-1
 256 0 l 1,19,-1
 96 0 l 1,0,-1
EndSplineSet
EndChar

StartChar: K
Encoding: 75 75 46
Width: 640
Flags: W
LayerCount: 2
Fore
SplineSet
0 0 m 1,0,-1
 0 640 l 1,1,-1
 96 640 l 1,2,-1
 96 352 l 1,3,-1
 128 352 l 1,4,-1
 128 384 l 1,5,-1
 160 384 l 1,6,-1
 160 416 l 1,7,-1
 192 416 l 1,8,-1
 192 448 l 1,9,-1
 224 448 l 1,10,-1
 224 480 l 1,11,-1
 256 480 l 1,12,-1
 256 512 l 1,13,-1
 288 512 l 1,14,-1
 288 544 l 1,15,-1
 320 544 l 1,16,-1
 320 576 l 1,17,-1
 352 576 l 1,18,-1
 352 608 l 1,19,-1
 384 608 l 1,20,-1
 384 640 l 1,21,-1
 512 640 l 1,22,-1
 512 608 l 1,23,-1
 480 608 l 1,24,-1
 480 576 l 1,25,-1
 448 576 l 1,26,-1
 448 544 l 1,27,-1
 416 544 l 1,28,-1
 416 512 l 1,29,-1
 384 512 l 1,30,-1
 384 480 l 1,31,-1
 352 480 l 1,32,-1
 352 448 l 1,33,-1
 320 448 l 1,34,-1
 320 416 l 1,35,-1
 288 416 l 1,36,-1
 288 384 l 1,37,-1
 256 384 l 1,38,-1
 256 320 l 1,39,-1
 288 320 l 1,40,-1
 288 288 l 1,41,-1
 320 288 l 1,42,-1
 320 256 l 1,43,-1
 352 256 l 1,44,-1
 352 224 l 1,45,-1
 384 224 l 1,46,-1
 384 192 l 1,47,-1
 416 192 l 1,48,-1
 416 160 l 1,49,-1
 448 160 l 1,50,-1
 448 128 l 1,51,-1
 480 128 l 1,52,-1
 480 96 l 1,53,-1
 512 96 l 1,54,-1
 512 64 l 1,55,-1
 544 64 l 1,56,-1
 544 32 l 1,57,-1
 576 32 l 1,58,-1
 576 0 l 1,59,-1
 448 0 l 1,60,-1
 448 32 l 1,61,-1
 416 32 l 1,62,-1
 416 64 l 1,63,-1
 384 64 l 1,64,-1
 384 96 l 1,65,-1
 352 96 l 1,66,-1
 352 128 l 1,67,-1
 320 128 l 1,68,-1
 320 160 l 1,69,-1
 288 160 l 1,70,-1
 288 192 l 1,71,-1
 256 192 l 1,72,-1
 256 224 l 1,73,-1
 224 224 l 1,74,-1
 224 256 l 1,75,-1
 192 256 l 1,76,-1
 192 288 l 1,77,-1
 160 288 l 1,78,-1
 160 256 l 1,79,-1
 128 256 l 1,80,-1
 128 224 l 1,81,-1
 96 224 l 1,82,-1
 96 0 l 1,83,-1
 0 0 l 1,0,-1
EndSplineSet
EndChar

StartChar: L
Encoding: 76 76 47
Width: 480
Flags: W
LayerCount: 2
Fore
SplineSet
0 0 m 1,0,-1
 0 640 l 1,1,-1
 96 640 l 1,2,-1
 96 96 l 1,3,-1
 416 96 l 1,4,-1
 416 0 l 1,5,-1
 0 0 l 1,0,-1
EndSplineSet
EndChar

StartChar: M
Encoding: 77 77 48
Width: 698
Flags: W
LayerCount: 2
Fore
SplineSet
0 0 m 1,0,-1
 0 640 l 1,1,-1
 160 640 l 1,2,-1
 160 544 l 1,3,-1
 192 544 l 1,4,-1
 192 480 l 1,5,-1
 224 480 l 1,6,-1
 224 384 l 1,7,-1
 256 384 l 1,8,-1
 256 288 l 1,9,-1
 288 288 l 1,10,-1
 288 160 l 1,11,-1
 320 160 l 1,12,-1
 320 288 l 1,13,-1
 352 288 l 1,14,-1
 352 384 l 1,15,-1
 384 384 l 1,16,-1
 384 480 l 1,17,-1
 416 480 l 1,18,-1
 416 544 l 1,19,-1
 448 544 l 1,20,-1
 448 640 l 1,21,-1
 608 640 l 1,22,-1
 608 0 l 1,23,-1
 512 0 l 1,24,-1
 512 480 l 1,25,-1
 480 480 l 1,26,-1
 480 416 l 1,27,-1
 448 416 l 1,28,-1
 448 288 l 1,29,-1
 416 288 l 1,30,-1
 416 160 l 1,31,-1
 384 160 l 1,32,-1
 384 64 l 1,33,-1
 352 64 l 1,34,-1
 352 0 l 1,35,-1
 256 0 l 1,36,-1
 256 64 l 1,37,-1
 224 64 l 1,38,-1
 224 160 l 1,39,-1
 192 160 l 1,40,-1
 192 288 l 1,41,-1
 160 288 l 1,42,-1
 160 416 l 1,43,-1
 128 416 l 1,44,-1
 128 480 l 1,45,-1
 96 480 l 1,46,-1
 96 0 l 1,47,-1
 0 0 l 1,0,-1
EndSplineSet
EndChar

StartChar: N
Encoding: 78 78 49
Width: 576
Flags: W
LayerCount: 2
Fore
SplineSet
0 0 m 1,0,-1
 0 640 l 1,1,-1
 160 640 l 1,2,-1
 160 576 l 1,3,-1
 192 576 l 1,4,-1
 192 512 l 1,5,-1
 224 512 l 1,6,-1
 224 448 l 1,7,-1
 256 448 l 1,8,-1
 256 384 l 1,9,-1
 288 384 l 1,10,-1
 288 320 l 1,11,-1
 320 320 l 1,12,-1
 320 256 l 1,13,-1
 352 256 l 1,14,-1
 352 192 l 1,15,-1
 384 192 l 1,16,-1
 384 128 l 1,17,-1
 416 128 l 1,18,-1
 416 640 l 1,19,-1
 512 640 l 1,20,-1
 512 0 l 1,21,-1
 352 0 l 1,22,-1
 352 64 l 1,23,-1
 320 64 l 1,24,-1
 320 128 l 1,25,-1
 288 128 l 1,26,-1
 288 192 l 1,27,-1
 256 192 l 1,28,-1
 256 256 l 1,29,-1
 224 256 l 1,30,-1
 224 320 l 1,31,-1
 192 320 l 1,32,-1
 192 384 l 1,33,-1
 160 384 l 1,34,-1
 160 448 l 1,35,-1
 128 448 l 1,36,-1
 128 512 l 1,37,-1
 96 512 l 1,38,-1
 96 0 l 1,39,-1
 0 0 l 1,0,-1
EndSplineSet
EndChar

StartChar: O
Encoding: 79 79 50
Width: 672
Flags: W
LayerCount: 2
Fore
SplineSet
352 96 m 1,0,-1
 352 128 l 1,1,-1
 416 128 l 1,2,-1
 416 160 l 1,3,-1
 448 160 l 1,4,-1
 448 192 l 1,5,-1
 480 192 l 1,6,-1
 480 256 l 1,7,-1
 512 256 l 1,8,-1
 512 384 l 1,9,-1
 480 384 l 1,10,-1
 480 448 l 1,11,-1
 448 448 l 1,12,-1
 448 480 l 1,13,-1
 416 480 l 1,14,-1
 416 512 l 1,15,-1
 352 512 l 1,16,-1
 352 544 l 1,17,-1
 256 544 l 1,18,-1
 256 512 l 1,19,-1
 192 512 l 1,20,-1
 192 480 l 1,21,-1
 160 480 l 1,22,-1
 160 448 l 1,23,-1
 128 448 l 1,24,-1
 128 384 l 1,25,-1
 96 384 l 1,26,-1
 96 256 l 1,27,-1
 128 256 l 1,28,-1
 128 192 l 1,29,-1
 160 192 l 1,30,-1
 160 160 l 1,31,-1
 192 160 l 1,32,-1
 192 128 l 1,33,-1
 256 128 l 1,34,-1
 256 96 l 1,35,-1
 352 96 l 1,0,-1
224 0 m 1,36,-1
 224 32 l 1,37,-1
 128 32 l 1,38,-1
 128 64 l 1,39,-1
 96 64 l 1,40,-1
 96 96 l 1,41,-1
 64 96 l 1,42,-1
 64 128 l 1,43,-1
 32 128 l 1,44,-1
 32 192 l 1,45,-1
 0 192 l 1,46,-1
 0 448 l 1,47,-1
 32 448 l 1,48,-1
 32 512 l 1,49,-1
 64 512 l 1,50,-1
 64 544 l 1,51,-1
 96 544 l 1,52,-1
 96 576 l 1,53,-1
 128 576 l 1,54,-1
 128 608 l 1,55,-1
 224 608 l 1,56,-1
 224 640 l 1,57,-1
 384 640 l 1,58,-1
 384 608 l 1,59,-1
 480 608 l 1,60,-1
 480 576 l 1,61,-1
 512 576 l 1,62,-1
 512 544 l 1,63,-1
 544 544 l 1,64,-1
 544 512 l 1,65,-1
 576 512 l 1,66,-1
 576 448 l 1,67,-1
 608 448 l 1,68,-1
 608 192 l 1,69,-1
 576 192 l 1,70,-1
 576 128 l 1,71,-1
 544 128 l 1,72,-1
 544 96 l 1,73,-1
 512 96 l 1,74,-1
 512 64 l 1,75,-1
 480 64 l 1,76,-1
 480 32 l 1,77,-1
 384 32 l 1,78,-1
 384 0 l 1,79,-1
 224 0 l 1,36,-1
EndSplineSet
EndChar

StartChar: P
Encoding: 80 80 51
Width: 512
Flags: W
LayerCount: 2
Fore
SplineSet
320 384 m 1,0,-1
 320 416 l 1,1,-1
 352 416 l 1,2,-1
 352 512 l 1,3,-1
 320 512 l 1,4,-1
 320 544 l 1,5,-1
 96 544 l 1,6,-1
 96 384 l 1,7,-1
 320 384 l 1,0,-1
0 0 m 1,8,-1
 0 640 l 1,9,-1
 352 640 l 1,10,-1
 352 608 l 1,11,-1
 384 608 l 1,12,-1
 384 576 l 1,13,-1
 416 576 l 1,14,-1
 416 544 l 1,15,-1
 448 544 l 1,16,-1
 448 384 l 1,17,-1
 416 384 l 1,18,-1
 416 352 l 1,19,-1
 384 352 l 1,20,-1
 384 320 l 1,21,-1
 352 320 l 1,22,-1
 352 288 l 1,23,-1
 96 288 l 1,24,-1
 96 0 l 1,25,-1
 0 0 l 1,8,-1
EndSplineSet
EndChar

StartChar: Q
Encoding: 81 81 52
Width: 672
Flags: W
LayerCount: 2
Fore
SplineSet
352 96 m 1,0,-1
 352 128 l 1,1,-1
 416 128 l 1,2,-1
 416 160 l 1,3,-1
 448 160 l 1,4,-1
 448 192 l 1,5,-1
 480 192 l 1,6,-1
 480 256 l 1,7,-1
 512 256 l 1,8,-1
 512 384 l 1,9,-1
 480 384 l 1,10,-1
 480 448 l 1,11,-1
 448 448 l 1,12,-1
 448 480 l 1,13,-1
 416 480 l 1,14,-1
 416 512 l 1,15,-1
 352 512 l 1,16,-1
 352 544 l 1,17,-1
 256 544 l 1,18,-1
 256 512 l 1,19,-1
 192 512 l 1,20,-1
 192 480 l 1,21,-1
 160 480 l 1,22,-1
 160 448 l 1,23,-1
 128 448 l 1,24,-1
 128 384 l 1,25,-1
 96 384 l 1,26,-1
 96 256 l 1,27,-1
 128 256 l 1,28,-1
 128 192 l 1,29,-1
 160 192 l 1,30,-1
 160 160 l 1,31,-1
 192 160 l 1,32,-1
 192 128 l 1,33,-1
 256 128 l 1,34,-1
 256 96 l 1,35,-1
 352 96 l 1,0,-1
320 -128 m 1,36,-1
 320 -96 l 1,37,-1
 288 -96 l 1,38,-1
 288 -64 l 1,39,-1
 256 -64 l 1,40,-1
 256 0 l 1,41,-1
 224 0 l 1,42,-1
 224 32 l 1,43,-1
 128 32 l 1,44,-1
 128 64 l 1,45,-1
 96 64 l 1,46,-1
 96 96 l 1,47,-1
 64 96 l 1,48,-1
 64 128 l 1,49,-1
 32 128 l 1,50,-1
 32 192 l 1,51,-1
 0 192 l 1,52,-1
 0 448 l 1,53,-1
 32 448 l 1,54,-1
 32 512 l 1,55,-1
 64 512 l 1,56,-1
 64 544 l 1,57,-1
 96 544 l 1,58,-1
 96 576 l 1,59,-1
 128 576 l 1,60,-1
 128 608 l 1,61,-1
 224 608 l 1,62,-1
 224 640 l 1,63,-1
 384 640 l 1,64,-1
 384 608 l 1,65,-1
 480 608 l 1,66,-1
 480 576 l 1,67,-1
 512 576 l 1,68,-1
 512 544 l 1,69,-1
 544 544 l 1,70,-1
 544 512 l 1,71,-1
 576 512 l 1,72,-1
 576 448 l 1,73,-1
 608 448 l 1,74,-1
 608 192 l 1,75,-1
 576 192 l 1,76,-1
 576 128 l 1,77,-1
 544 128 l 1,78,-1
 544 96 l 1,79,-1
 512 96 l 1,80,-1
 512 64 l 1,81,-1
 480 64 l 1,82,-1
 480 32 l 1,83,-1
 384 32 l 1,84,-1
 384 0 l 1,85,-1
 352 0 l 1,86,-1
 352 -32 l 1,87,-1
 416 -32 l 1,88,-1
 416 -128 l 1,89,-1
 320 -128 l 1,36,-1
EndSplineSet
EndChar

StartChar: R
Encoding: 82 82 53
Width: 561
Flags: W
LayerCount: 2
Fore
SplineSet
320 384 m 1,0,-1
 320 416 l 1,1,-1
 352 416 l 1,2,-1
 352 512 l 1,3,-1
 320 512 l 1,4,-1
 320 544 l 1,5,-1
 96 544 l 1,6,-1
 96 384 l 1,7,-1
 320 384 l 1,0,-1
0 0 m 1,8,-1
 0 640 l 1,9,-1
 352 640 l 1,10,-1
 352 608 l 1,11,-1
 384 608 l 1,12,-1
 384 576 l 1,13,-1
 416 576 l 1,14,-1
 416 544 l 1,15,-1
 448 544 l 1,16,-1
 448 384 l 1,17,-1
 416 384 l 1,18,-1
 416 352 l 1,19,-1
 384 352 l 1,20,-1
 384 320 l 1,21,-1
 352 320 l 1,22,-1
 352 288 l 1,23,-1
 256 288 l 1,24,-1
 256 256 l 1,25,-1
 288 256 l 1,26,-1
 288 224 l 1,27,-1
 320 224 l 1,28,-1
 320 192 l 1,29,-1
 352 192 l 1,30,-1
 352 160 l 1,31,-1
 384 160 l 1,32,-1
 384 128 l 1,33,-1
 416 128 l 1,34,-1
 416 96 l 1,35,-1
 448 96 l 1,36,-1
 448 64 l 1,37,-1
 480 64 l 1,38,-1
 480 32 l 1,39,-1
 512 32 l 1,40,-1
 512 0 l 1,41,-1
 384 0 l 1,42,-1
 384 32 l 1,43,-1
 352 32 l 1,44,-1
 352 64 l 1,45,-1
 320 64 l 1,46,-1
 320 96 l 1,47,-1
 288 96 l 1,48,-1
 288 128 l 1,49,-1
 256 128 l 1,50,-1
 256 160 l 1,51,-1
 224 160 l 1,52,-1
 224 192 l 1,53,-1
 192 192 l 1,54,-1
 192 224 l 1,55,-1
 160 224 l 1,56,-1
 160 256 l 1,57,-1
 128 256 l 1,58,-1
 128 288 l 1,59,-1
 96 288 l 1,60,-1
 96 0 l 1,61,-1
 0 0 l 1,8,-1
EndSplineSet
EndChar

StartChar: S
Encoding: 83 83 54
Width: 480
Flags: W
LayerCount: 2
Fore
SplineSet
128 0 m 1,0,-1
 128 32 l 1,1,-1
 64 32 l 1,2,-1
 64 64 l 1,3,-1
 32 64 l 1,4,-1
 32 96 l 1,5,-1
 0 96 l 1,6,-1
 0 160 l 1,7,-1
 96 160 l 1,8,-1
 96 128 l 1,9,-1
 128 128 l 1,10,-1
 128 96 l 1,11,-1
 288 96 l 1,12,-1
 288 128 l 1,13,-1
 320 128 l 1,14,-1
 320 224 l 1,15,-1
 288 224 l 1,16,-1
 288 256 l 1,17,-1
 256 256 l 1,18,-1
 256 288 l 1,19,-1
 160 288 l 1,20,-1
 160 320 l 1,21,-1
 64 320 l 1,22,-1
 64 352 l 1,23,-1
 32 352 l 1,24,-1
 32 384 l 1,25,-1
 0 384 l 1,26,-1
 0 544 l 1,27,-1
 32 544 l 1,28,-1
 32 576 l 1,29,-1
 64 576 l 1,30,-1
 64 608 l 1,31,-1
 96 608 l 1,32,-1
 96 640 l 1,33,-1
 320 640 l 1,34,-1
 320 608 l 1,35,-1
 352 608 l 1,36,-1
 352 576 l 1,37,-1
 384 576 l 1,38,-1
 384 512 l 1,39,-1
 288 512 l 1,40,-1
 288 544 l 1,41,-1
 128 544 l 1,42,-1
 128 512 l 1,43,-1
 96 512 l 1,44,-1
 96 416 l 1,45,-1
 160 416 l 1,46,-1
 160 384 l 1,47,-1
 256 384 l 1,48,-1
 256 352 l 1,49,-1
 320 352 l 1,50,-1
 320 320 l 1,51,-1
 384 320 l 1,52,-1
 384 256 l 1,53,-1
 416 256 l 1,54,-1
 416 96 l 1,55,-1
 384 96 l 1,56,-1
 384 64 l 1,57,-1
 352 64 l 1,58,-1
 352 32 l 1,59,-1
 288 32 l 1,60,-1
 288 0 l 1,61,-1
 128 0 l 1,0,-1
EndSplineSet
EndChar

StartChar: T
Encoding: 84 84 55
Width: 576
Flags: W
LayerCount: 2
Fore
SplineSet
224 0 m 1,0,-1
 224 544 l 1,1,-1
 0 544 l 1,2,-1
 0 640 l 1,3,-1
 512 640 l 1,4,-1
 512 544 l 1,5,-1
 320 544 l 1,6,-1
 320 0 l 1,7,-1
 224 0 l 1,0,-1
EndSplineSet
EndChar

StartChar: U
Encoding: 85 85 56
Width: 544
Flags: W
LayerCount: 2
Fore
SplineSet
128 0 m 1,0,-1
 128 32 l 1,1,-1
 64 32 l 1,2,-1
 64 64 l 1,3,-1
 32 64 l 1,4,-1
 32 128 l 1,5,-1
 0 128 l 1,6,-1
 0 640 l 1,7,-1
 96 640 l 1,8,-1
 96 192 l 1,9,-1
 128 192 l 1,10,-1
 128 128 l 1,11,-1
 160 128 l 1,12,-1
 160 96 l 1,13,-1
 320 96 l 1,14,-1
 320 128 l 1,15,-1
 352 128 l 1,16,-1
 352 192 l 1,17,-1
 384 192 l 1,18,-1
 384 640 l 1,19,-1
 480 640 l 1,20,-1
 480 128 l 1,21,-1
 448 128 l 1,22,-1
 448 64 l 1,23,-1
 416 64 l 1,24,-1
 416 32 l 1,25,-1
 352 32 l 1,26,-1
 352 0 l 1,27,-1
 128 0 l 1,0,-1
EndSplineSet
EndChar

StartChar: V
Encoding: 86 86 57
Width: 608
Flags: W
LayerCount: 2
Fore
SplineSet
224 0 m 1,0,-1
 224 64 l 1,1,-1
 192 64 l 1,2,-1
 192 160 l 1,3,-1
 160 160 l 1,4,-1
 160 224 l 1,5,-1
 128 224 l 1,6,-1
 128 320 l 1,7,-1
 96 320 l 1,8,-1
 96 416 l 1,9,-1
 64 416 l 1,10,-1
 64 480 l 1,11,-1
 32 480 l 1,12,-1
 32 576 l 1,13,-1
 0 576 l 1,14,-1
 0 640 l 1,15,-1
 96 640 l 1,16,-1
 96 576 l 1,17,-1
 128 576 l 1,18,-1
 128 480 l 1,19,-1
 160 480 l 1,20,-1
 160 416 l 1,21,-1
 192 416 l 1,22,-1
 192 320 l 1,23,-1
 224 320 l 1,24,-1
 224 224 l 1,25,-1
 256 224 l 1,26,-1
 256 160 l 1,27,-1
 288 160 l 1,28,-1
 288 224 l 1,29,-1
 320 224 l 1,30,-1
 320 320 l 1,31,-1
 352 320 l 1,32,-1
 352 416 l 1,33,-1
 384 416 l 1,34,-1
 384 480 l 1,35,-1
 416 480 l 1,36,-1
 416 576 l 1,37,-1
 448 576 l 1,38,-1
 448 640 l 1,39,-1
 544 640 l 1,40,-1
 544 576 l 1,41,-1
 512 576 l 1,42,-1
 512 480 l 1,43,-1
 480 480 l 1,44,-1
 480 416 l 1,45,-1
 448 416 l 1,46,-1
 448 320 l 1,47,-1
 416 320 l 1,48,-1
 416 224 l 1,49,-1
 384 224 l 1,50,-1
 384 160 l 1,51,-1
 352 160 l 1,52,-1
 352 64 l 1,53,-1
 320 64 l 1,54,-1
 320 0 l 1,55,-1
 224 0 l 1,0,-1
EndSplineSet
EndChar

StartChar: W
Encoding: 87 87 58
Width: 800
Flags: W
LayerCount: 2
Fore
SplineSet
160 0 m 1,0,-1
 160 64 l 1,1,-1
 128 64 l 1,2,-1
 128 160 l 1,3,-1
 96 160 l 1,4,-1
 96 288 l 1,5,-1
 64 288 l 1,6,-1
 64 416 l 1,7,-1
 32 416 l 1,8,-1
 32 512 l 1,9,-1
 0 512 l 1,10,-1
 0 640 l 1,11,-1
 96 640 l 1,12,-1
 96 512 l 1,13,-1
 128 512 l 1,14,-1
 128 384 l 1,15,-1
 160 384 l 1,16,-1
 160 288 l 1,17,-1
 192 288 l 1,18,-1
 192 160 l 1,19,-1
 224 160 l 1,20,-1
 224 288 l 1,21,-1
 256 288 l 1,22,-1
 256 384 l 1,23,-1
 288 384 l 1,24,-1
 288 512 l 1,25,-1
 320 512 l 1,26,-1
 320 640 l 1,27,-1
 416 640 l 1,28,-1
 416 512 l 1,29,-1
 448 512 l 1,30,-1
 448 384 l 1,31,-1
 480 384 l 1,32,-1
 480 288 l 1,33,-1
 512 288 l 1,34,-1
 512 160 l 1,35,-1
 544 160 l 1,36,-1
 544 288 l 1,37,-1
 576 288 l 1,38,-1
 576 384 l 1,39,-1
 608 384 l 1,40,-1
 608 512 l 1,41,-1
 640 512 l 1,42,-1
 640 640 l 1,43,-1
 736 640 l 1,44,-1
 736 512 l 1,45,-1
 704 512 l 1,46,-1
 704 416 l 1,47,-1
 672 416 l 1,48,-1
 672 288 l 1,49,-1
 640 288 l 1,50,-1
 640 160 l 1,51,-1
 608 160 l 1,52,-1
 608 64 l 1,53,-1
 576 64 l 1,54,-1
 576 0 l 1,55,-1
 480 0 l 1,56,-1
 480 64 l 1,57,-1
 448 64 l 1,58,-1
 448 160 l 1,59,-1
 416 160 l 1,60,-1
 416 288 l 1,61,-1
 384 288 l 1,62,-1
 384 416 l 1,63,-1
 352 416 l 1,64,-1
 352 288 l 1,65,-1
 320 288 l 1,66,-1
 320 160 l 1,67,-1
 288 160 l 1,68,-1
 288 64 l 1,69,-1
 256 64 l 1,70,-1
 256 0 l 1,71,-1
 160 0 l 1,0,-1
EndSplineSet
EndChar

StartChar: X
Encoding: 88 88 59
Width: 640
Flags: W
LayerCount: 2
Fore
SplineSet
0 0 m 1,0,-1
 0 64 l 1,1,-1
 32 64 l 1,2,-1
 32 96 l 1,3,-1
 64 96 l 1,4,-1
 64 128 l 1,5,-1
 96 128 l 1,6,-1
 96 160 l 1,7,-1
 128 160 l 1,8,-1
 128 224 l 1,9,-1
 160 224 l 1,10,-1
 160 256 l 1,11,-1
 192 256 l 1,12,-1
 192 288 l 1,13,-1
 224 288 l 1,14,-1
 224 352 l 1,15,-1
 192 352 l 1,16,-1
 192 384 l 1,17,-1
 160 384 l 1,18,-1
 160 416 l 1,19,-1
 128 416 l 1,20,-1
 128 480 l 1,21,-1
 96 480 l 1,22,-1
 96 512 l 1,23,-1
 64 512 l 1,24,-1
 64 544 l 1,25,-1
 32 544 l 1,26,-1
 32 576 l 1,27,-1
 0 576 l 1,28,-1
 0 640 l 1,29,-1
 128 640 l 1,30,-1
 128 608 l 1,31,-1
 160 608 l 1,32,-1
 160 544 l 1,33,-1
 192 544 l 1,34,-1
 192 512 l 1,35,-1
 224 512 l 1,36,-1
 224 480 l 1,37,-1
 256 480 l 1,38,-1
 256 416 l 1,39,-1
 320 416 l 1,40,-1
 320 480 l 1,41,-1
 352 480 l 1,42,-1
 352 512 l 1,43,-1
 384 512 l 1,44,-1
 384 544 l 1,45,-1
 416 544 l 1,46,-1
 416 608 l 1,47,-1
 448 608 l 1,48,-1
 448 640 l 1,49,-1
 576 640 l 1,50,-1
 576 576 l 1,51,-1
 544 576 l 1,52,-1
 544 544 l 1,53,-1
 512 544 l 1,54,-1
 512 512 l 1,55,-1
 480 512 l 1,56,-1
 480 480 l 1,57,-1
 448 480 l 1,58,-1
 448 416 l 1,59,-1
 416 416 l 1,60,-1
 416 384 l 1,61,-1
 384 384 l 1,62,-1
 384 352 l 1,63,-1
 352 352 l 1,64,-1
 352 288 l 1,65,-1
 384 288 l 1,66,-1
 384 256 l 1,67,-1
 416 256 l 1,68,-1
 416 224 l 1,69,-1
 448 224 l 1,70,-1
 448 160 l 1,71,-1
 480 160 l 1,72,-1
 480 128 l 1,73,-1
 512 128 l 1,74,-1
 512 96 l 1,75,-1
 544 96 l 1,76,-1
 544 64 l 1,77,-1
 576 64 l 1,78,-1
 576 0 l 1,79,-1
 448 0 l 1,80,-1
 448 32 l 1,81,-1
 416 32 l 1,82,-1
 416 96 l 1,83,-1
 384 96 l 1,84,-1
 384 128 l 1,85,-1
 352 128 l 1,86,-1
 352 160 l 1,87,-1
 320 160 l 1,88,-1
 320 224 l 1,89,-1
 256 224 l 1,90,-1
 256 160 l 1,91,-1
 224 160 l 1,92,-1
 224 128 l 1,93,-1
 192 128 l 1,94,-1
 192 96 l 1,95,-1
 160 96 l 1,96,-1
 160 32 l 1,97,-1
 128 32 l 1,98,-1
 128 0 l 1,99,-1
 0 0 l 1,0,-1
EndSplineSet
EndChar

StartChar: Y
Encoding: 89 89 60
Width: 608
Flags: W
LayerCount: 2
Fore
SplineSet
224 0 m 1,0,-1
 224 224 l 1,1,-1
 192 224 l 1,2,-1
 192 288 l 1,3,-1
 160 288 l 1,4,-1
 160 352 l 1,5,-1
 128 352 l 1,6,-1
 128 416 l 1,7,-1
 96 416 l 1,8,-1
 96 480 l 1,9,-1
 64 480 l 1,10,-1
 64 544 l 1,11,-1
 32 544 l 1,12,-1
 32 608 l 1,13,-1
 0 608 l 1,14,-1
 0 640 l 1,15,-1
 128 640 l 1,16,-1
 128 576 l 1,17,-1
 160 576 l 1,18,-1
 160 512 l 1,19,-1
 192 512 l 1,20,-1
 192 448 l 1,21,-1
 224 448 l 1,22,-1
 224 384 l 1,23,-1
 256 384 l 1,24,-1
 256 320 l 1,25,-1
 288 320 l 1,26,-1
 288 384 l 1,27,-1
 320 384 l 1,28,-1
 320 448 l 1,29,-1
 352 448 l 1,30,-1
 352 512 l 1,31,-1
 384 512 l 1,32,-1
 384 576 l 1,33,-1
 416 576 l 1,34,-1
 416 640 l 1,35,-1
 544 640 l 1,36,-1
 544 608 l 1,37,-1
 512 608 l 1,38,-1
 512 544 l 1,39,-1
 480 544 l 1,40,-1
 480 480 l 1,41,-1
 448 480 l 1,42,-1
 448 416 l 1,43,-1
 416 416 l 1,44,-1
 416 352 l 1,45,-1
 384 352 l 1,46,-1
 384 288 l 1,47,-1
 352 288 l 1,48,-1
 352 224 l 1,49,-1
 320 224 l 1,50,-1
 320 0 l 1,51,-1
 224 0 l 1,0,-1
EndSplineSet
EndChar

StartChar: Z
Encoding: 90 90 61
Width: 544
Flags: W
LayerCount: 2
Fore
SplineSet
0 0 m 1,0,-1
 0 96 l 1,1,-1
 32 96 l 1,2,-1
 32 128 l 1,3,-1
 64 128 l 1,4,-1
 64 160 l 1,5,-1
 96 160 l 1,6,-1
 96 224 l 1,7,-1
 128 224 l 1,8,-1
 128 256 l 1,9,-1
 160 256 l 1,10,-1
 160 288 l 1,11,-1
 192 288 l 1,12,-1
 192 352 l 1,13,-1
 224 352 l 1,14,-1
 224 384 l 1,15,-1
 256 384 l 1,16,-1
 256 416 l 1,17,-1
 288 416 l 1,18,-1
 288 480 l 1,19,-1
 320 480 l 1,20,-1
 320 512 l 1,21,-1
 352 512 l 1,22,-1
 352 544 l 1,23,-1
 0 544 l 1,24,-1
 0 640 l 1,25,-1
 480 640 l 1,26,-1
 480 512 l 1,27,-1
 448 512 l 1,28,-1
 448 480 l 1,29,-1
 416 480 l 1,30,-1
 416 416 l 1,31,-1
 384 416 l 1,32,-1
 384 384 l 1,33,-1
 352 384 l 1,34,-1
 352 352 l 1,35,-1
 320 352 l 1,36,-1
 320 288 l 1,37,-1
 288 288 l 1,38,-1
 288 256 l 1,39,-1
 256 256 l 1,40,-1
 256 224 l 1,41,-1
 224 224 l 1,42,-1
 224 192 l 1,43,-1
 192 192 l 1,44,-1
 192 128 l 1,45,-1
 160 128 l 1,46,-1
 160 96 l 1,47,-1
 480 96 l 1,48,-1
 480 0 l 1,49,-1
 0 0 l 1,0,-1
EndSplineSet
EndChar

StartChar: bracketleft
Encoding: 91 91 62
Width: 256
Flags: W
LayerCount: 2
Fore
SplineSet
0 -96 m 1,0,-1
 0 736 l 1,1,-1
 192 736 l 1,2,-1
 192 672 l 1,3,-1
 64 672 l 1,4,-1
 64 -32 l 1,5,-1
 192 -32 l 1,6,-1
 192 -96 l 1,7,-1
 0 -96 l 1,0,-1
EndSplineSet
EndChar

StartChar: backslash
Encoding: 92 92 63
Width: 512
Flags: W
LayerCount: 2
Fore
SplineSet
352 -64 m 1,0,-1
 352 0 l 1,1,-1
 320 0 l 1,2,-1
 320 64 l 1,3,-1
 288 64 l 1,4,-1
 288 128 l 1,5,-1
 256 128 l 1,6,-1
 256 192 l 1,7,-1
 224 192 l 1,8,-1
 224 256 l 1,9,-1
 192 256 l 1,10,-1
 192 320 l 1,11,-1
 160 320 l 1,12,-1
 160 384 l 1,13,-1
 128 384 l 1,14,-1
 128 448 l 1,15,-1
 96 448 l 1,16,-1
 96 512 l 1,17,-1
 64 512 l 1,18,-1
 64 576 l 1,19,-1
 32 576 l 1,20,-1
 32 640 l 1,21,-1
 0 640 l 1,22,-1
 0 704 l 1,23,-1
 96 704 l 1,24,-1
 96 640 l 1,25,-1
 128 640 l 1,26,-1
 128 576 l 1,27,-1
 160 576 l 1,28,-1
 160 512 l 1,29,-1
 192 512 l 1,30,-1
 192 448 l 1,31,-1
 224 448 l 1,32,-1
 224 384 l 1,33,-1
 256 384 l 1,34,-1
 256 320 l 1,35,-1
 288 320 l 1,36,-1
 288 256 l 1,37,-1
 320 256 l 1,38,-1
 320 192 l 1,39,-1
 352 192 l 1,40,-1
 352 128 l 1,41,-1
 384 128 l 1,42,-1
 384 64 l 1,43,-1
 416 64 l 1,44,-1
 416 0 l 1,45,-1
 448 0 l 1,46,-1
 448 -64 l 1,47,-1
 352 -64 l 1,0,-1
EndSplineSet
EndChar

StartChar: bracketright
Encoding: 93 93 64
Width: 256
Flags: W
LayerCount: 2
Fore
SplineSet
0 -96 m 1,0,-1
 0 -32 l 1,1,-1
 128 -32 l 1,2,-1
 128 672 l 1,3,-1
 0 672 l 1,4,-1
 0 736 l 1,5,-1
 192 736 l 1,6,-1
 192 -96 l 1,7,-1
 0 -96 l 1,0,-1
EndSplineSet
EndChar

StartChar: asciicircum
Encoding: 94 94 65
Width: 384
Flags: W
LayerCount: 2
Fore
SplineSet
0 512 m 1,0,-1
 0 544 l 1,1,-1
 32 544 l 1,2,-1
 32 576 l 1,3,-1
 64 576 l 1,4,-1
 64 608 l 1,5,-1
 96 608 l 1,6,-1
 96 640 l 1,7,-1
 224 640 l 1,8,-1
 224 608 l 1,9,-1
 256 608 l 1,10,-1
 256 576 l 1,11,-1
 288 576 l 1,12,-1
 288 544 l 1,13,-1
 320 544 l 1,14,-1
 320 512 l 1,15,-1
 256 512 l 1,16,-1
 256 544 l 1,17,-1
 192 544 l 1,18,-1
 192 576 l 1,19,-1
 128 576 l 1,20,-1
 128 544 l 1,21,-1
 64 544 l 1,22,-1
 64 512 l 1,23,-1
 0 512 l 1,0,-1
EndSplineSet
EndChar

StartChar: underscore
Encoding: 95 95 66
Width: 736
Flags: W
LayerCount: 2
Fore
SplineSet
0 -64 m 1,0,-1
 0 0 l 1,1,-1
 672 0 l 1,2,-1
 672 -64 l 1,3,-1
 0 -64 l 1,0,-1
EndSplineSet
EndChar

StartChar: grave
Encoding: 96 96 67
Width: 224
Flags: W
LayerCount: 2
Fore
SplineSet
64 544 m 1,0,-1
 64 576 l 1,1,-1
 32 576 l 1,2,-1
 32 608 l 1,3,-1
 0 608 l 1,4,-1
 0 640 l 1,5,-1
 96 640 l 1,6,-1
 96 608 l 1,7,-1
 128 608 l 1,8,-1
 128 576 l 1,9,-1
 160 576 l 1,10,-1
 160 544 l 1,11,-1
 64 544 l 1,0,-1
EndSplineSet
EndChar

StartChar: a
Encoding: 97 97 68
Width: 516
Flags: W
LayerCount: 2
Fore
SplineSet
256 96 m 1,0,-1
 256 128 l 1,1,-1
 288 128 l 1,2,-1
 288 160 l 1,3,-1
 320 160 l 1,4,-1
 320 320 l 1,5,-1
 288 320 l 1,6,-1
 288 352 l 1,7,-1
 256 352 l 1,8,-1
 256 384 l 1,9,-1
 128 384 l 1,10,-1
 128 352 l 1,11,-1
 96 352 l 1,12,-1
 96 128 l 1,13,-1
 128 128 l 1,14,-1
 128 96 l 1,15,-1
 256 96 l 1,0,-1
128 0 m 1,16,-1
 128 32 l 1,17,-1
 64 32 l 1,18,-1
 64 64 l 1,19,-1
 32 64 l 1,20,-1
 32 128 l 1,21,-1
 0 128 l 1,22,-1
 0 352 l 1,23,-1
 32 352 l 1,24,-1
 32 416 l 1,25,-1
 64 416 l 1,26,-1
 64 448 l 1,27,-1
 128 448 l 1,28,-1
 128 480 l 1,29,-1
 256 480 l 1,30,-1
 256 448 l 1,31,-1
 288 448 l 1,32,-1
 288 416 l 1,33,-1
 320 416 l 1,34,-1
 320 480 l 1,35,-1
 416 480 l 1,36,-1
 416 0 l 1,37,-1
 320 0 l 1,38,-1
 320 64 l 1,39,-1
 288 64 l 1,40,-1
 288 32 l 1,41,-1
 256 32 l 1,42,-1
 256 0 l 1,43,-1
 128 0 l 1,16,-1
EndSplineSet
EndChar

StartChar: b
Encoding: 98 98 69
Width: 496
Flags: W
LayerCount: 2
Fore
SplineSet
288 96 m 1,0,-1
 288 128 l 1,1,-1
 320 128 l 1,2,-1
 320 352 l 1,3,-1
 288 352 l 1,4,-1
 288 384 l 1,5,-1
 160 384 l 1,6,-1
 160 352 l 1,7,-1
 128 352 l 1,8,-1
 128 320 l 1,9,-1
 96 320 l 1,10,-1
 96 160 l 1,11,-1
 128 160 l 1,12,-1
 128 128 l 1,13,-1
 160 128 l 1,14,-1
 160 96 l 1,15,-1
 288 96 l 1,0,-1
0 0 m 1,16,-1
 0 640 l 1,17,-1
 96 640 l 1,18,-1
 96 416 l 1,19,-1
 128 416 l 1,20,-1
 128 448 l 1,21,-1
 160 448 l 1,22,-1
 160 480 l 1,23,-1
 288 480 l 1,24,-1
 288 448 l 1,25,-1
 352 448 l 1,26,-1
 352 416 l 1,27,-1
 384 416 l 1,28,-1
 384 352 l 1,29,-1
 416 352 l 1,30,-1
 416 128 l 1,31,-1
 384 128 l 1,32,-1
 384 64 l 1,33,-1
 352 64 l 1,34,-1
 352 32 l 1,35,-1
 288 32 l 1,36,-1
 288 0 l 1,37,-1
 160 0 l 1,38,-1
 160 32 l 1,39,-1
 128 32 l 1,40,-1
 128 64 l 1,41,-1
 96 64 l 1,42,-1
 96 0 l 1,43,-1
 0 0 l 1,16,-1
EndSplineSet
EndChar

StartChar: c
Encoding: 99 99 70
Width: 452
Flags: W
LayerCount: 2
Fore
SplineSet
128 0 m 1,0,-1
 128 32 l 1,1,-1
 64 32 l 1,2,-1
 64 64 l 1,3,-1
 32 64 l 1,4,-1
 32 128 l 1,5,-1
 0 128 l 1,6,-1
 0 352 l 1,7,-1
 32 352 l 1,8,-1
 32 416 l 1,9,-1
 64 416 l 1,10,-1
 64 448 l 1,11,-1
 128 448 l 1,12,-1
 128 480 l 1,13,-1
 256 480 l 1,14,-1
 256 448 l 1,15,-1
 320 448 l 1,16,-1
 320 416 l 1,17,-1
 352 416 l 1,18,-1
 352 320 l 1,19,-1
 288 320 l 1,20,-1
 288 352 l 1,21,-1
 256 352 l 1,22,-1
 256 384 l 1,23,-1
 128 384 l 1,24,-1
 128 352 l 1,25,-1
 96 352 l 1,26,-1
 96 128 l 1,27,-1
 128 128 l 1,28,-1
 128 96 l 1,29,-1
 256 96 l 1,30,-1
 256 128 l 1,31,-1
 288 128 l 1,32,-1
 288 160 l 1,33,-1
 352 160 l 1,34,-1
 352 64 l 1,35,-1
 320 64 l 1,36,-1
 320 32 l 1,37,-1
 256 32 l 1,38,-1
 256 0 l 1,39,-1
 128 0 l 1,0,-1
EndSplineSet
EndChar

StartChar: d
Encoding: 100 100 71
Width: 516
Flags: W
LayerCount: 2
Fore
SplineSet
256 96 m 1,0,-1
 256 128 l 1,1,-1
 288 128 l 1,2,-1
 288 160 l 1,3,-1
 320 160 l 1,4,-1
 320 320 l 1,5,-1
 288 320 l 1,6,-1
 288 352 l 1,7,-1
 256 352 l 1,8,-1
 256 384 l 1,9,-1
 128 384 l 1,10,-1
 128 352 l 1,11,-1
 96 352 l 1,12,-1
 96 128 l 1,13,-1
 128 128 l 1,14,-1
 128 96 l 1,15,-1
 256 96 l 1,0,-1
128 0 m 1,16,-1
 128 32 l 1,17,-1
 64 32 l 1,18,-1
 64 64 l 1,19,-1
 32 64 l 1,20,-1
 32 128 l 1,21,-1
 0 128 l 1,22,-1
 0 352 l 1,23,-1
 32 352 l 1,24,-1
 32 416 l 1,25,-1
 64 416 l 1,26,-1
 64 448 l 1,27,-1
 128 448 l 1,28,-1
 128 480 l 1,29,-1
 256 480 l 1,30,-1
 256 448 l 1,31,-1
 288 448 l 1,32,-1
 288 416 l 1,33,-1
 320 416 l 1,34,-1
 320 640 l 1,35,-1
 416 640 l 1,36,-1
 416 0 l 1,37,-1
 320 0 l 1,38,-1
 320 64 l 1,39,-1
 288 64 l 1,40,-1
 288 32 l 1,41,-1
 256 32 l 1,42,-1
 256 0 l 1,43,-1
 128 0 l 1,16,-1
EndSplineSet
EndChar

StartChar: e
Encoding: 101 101 72
Width: 482
Flags: W
LayerCount: 2
Fore
SplineSet
288 288 m 1,0,-1
 288 352 l 1,1,-1
 256 352 l 1,2,-1
 256 384 l 1,3,-1
 128 384 l 1,4,-1
 128 352 l 1,5,-1
 96 352 l 1,6,-1
 96 288 l 1,7,-1
 288 288 l 1,0,-1
128 0 m 1,8,-1
 128 32 l 1,9,-1
 64 32 l 1,10,-1
 64 64 l 1,11,-1
 32 64 l 1,12,-1
 32 128 l 1,13,-1
 0 128 l 1,14,-1
 0 352 l 1,15,-1
 32 352 l 1,16,-1
 32 416 l 1,17,-1
 64 416 l 1,18,-1
 64 448 l 1,19,-1
 128 448 l 1,20,-1
 128 480 l 1,21,-1
 256 480 l 1,22,-1
 256 448 l 1,23,-1
 320 448 l 1,24,-1
 320 416 l 1,25,-1
 352 416 l 1,26,-1
 352 352 l 1,27,-1
 384 352 l 1,28,-1
 384 224 l 1,29,-1
 96 224 l 1,30,-1
 96 128 l 1,31,-1
 128 128 l 1,32,-1
 128 96 l 1,33,-1
 256 96 l 1,34,-1
 256 128 l 1,35,-1
 288 128 l 1,36,-1
 288 160 l 1,37,-1
 384 160 l 1,38,-1
 384 96 l 1,39,-1
 352 96 l 1,40,-1
 352 64 l 1,41,-1
 320 64 l 1,42,-1
 320 32 l 1,43,-1
 256 32 l 1,44,-1
 256 0 l 1,45,-1
 128 0 l 1,8,-1
EndSplineSet
EndChar

StartChar: f
Encoding: 102 102 73
Width: 318
Flags: W
LayerCount: 2
Fore
SplineSet
64 0 m 1,0,-1
 64 384 l 1,1,-1
 0 384 l 1,2,-1
 0 480 l 1,3,-1
 64 480 l 1,4,-1
 64 576 l 1,5,-1
 96 576 l 1,6,-1
 96 608 l 1,7,-1
 128 608 l 1,8,-1
 128 640 l 1,9,-1
 288 640 l 1,10,-1
 288 576 l 1,11,-1
 192 576 l 1,12,-1
 192 544 l 1,13,-1
 160 544 l 1,14,-1
 160 480 l 1,15,-1
 256 480 l 1,16,-1
 256 384 l 1,17,-1
 160 384 l 1,18,-1
 160 0 l 1,19,-1
 64 0 l 1,0,-1
EndSplineSet
EndChar

StartChar: g
Encoding: 103 103 74
Width: 516
Flags: W
LayerCount: 2
Fore
SplineSet
256 96 m 1,0,-1
 256 128 l 1,1,-1
 288 128 l 1,2,-1
 288 160 l 1,3,-1
 320 160 l 1,4,-1
 320 320 l 1,5,-1
 288 320 l 1,6,-1
 288 352 l 1,7,-1
 256 352 l 1,8,-1
 256 384 l 1,9,-1
 128 384 l 1,10,-1
 128 352 l 1,11,-1
 96 352 l 1,12,-1
 96 128 l 1,13,-1
 128 128 l 1,14,-1
 128 96 l 1,15,-1
 256 96 l 1,0,-1
128 -192 m 1,16,-1
 128 -160 l 1,17,-1
 64 -160 l 1,18,-1
 64 -128 l 1,19,-1
 32 -128 l 1,20,-1
 32 -96 l 1,21,-1
 0 -96 l 1,22,-1
 0 -64 l 1,23,-1
 32 -64 l 1,24,-1
 32 -32 l 1,25,-1
 96 -32 l 1,26,-1
 96 -64 l 1,27,-1
 128 -64 l 1,28,-1
 128 -96 l 1,29,-1
 288 -96 l 1,30,-1
 288 -64 l 1,31,-1
 320 -64 l 1,32,-1
 320 64 l 1,33,-1
 288 64 l 1,34,-1
 288 32 l 1,35,-1
 256 32 l 1,36,-1
 256 0 l 1,37,-1
 128 0 l 1,38,-1
 128 32 l 1,39,-1
 64 32 l 1,40,-1
 64 64 l 1,41,-1
 32 64 l 1,42,-1
 32 128 l 1,43,-1
 0 128 l 1,44,-1
 0 352 l 1,45,-1
 32 352 l 1,46,-1
 32 416 l 1,47,-1
 64 416 l 1,48,-1
 64 448 l 1,49,-1
 128 448 l 1,50,-1
 128 480 l 1,51,-1
 256 480 l 1,52,-1
 256 448 l 1,53,-1
 288 448 l 1,54,-1
 288 416 l 1,55,-1
 320 416 l 1,56,-1
 320 480 l 1,57,-1
 416 480 l 1,58,-1
 416 -96 l 1,59,-1
 384 -96 l 1,60,-1
 384 -128 l 1,61,-1
 352 -128 l 1,62,-1
 352 -160 l 1,63,-1
 288 -160 l 1,64,-1
 288 -192 l 1,65,-1
 128 -192 l 1,16,-1
EndSplineSet
EndChar

StartChar: h
Encoding: 104 104 75
Width: 506
Flags: W
LayerCount: 2
Fore
SplineSet
0 0 m 1,0,-1
 0 640 l 1,1,-1
 96 640 l 1,2,-1
 96 416 l 1,3,-1
 128 416 l 1,4,-1
 128 448 l 1,5,-1
 160 448 l 1,6,-1
 160 480 l 1,7,-1
 288 480 l 1,8,-1
 288 448 l 1,9,-1
 352 448 l 1,10,-1
 352 416 l 1,11,-1
 384 416 l 1,12,-1
 384 352 l 1,13,-1
 416 352 l 1,14,-1
 416 0 l 1,15,-1
 320 0 l 1,16,-1
 320 352 l 1,17,-1
 288 352 l 1,18,-1
 288 384 l 1,19,-1
 160 384 l 1,20,-1
 160 352 l 1,21,-1
 128 352 l 1,22,-1
 128 320 l 1,23,-1
 96 320 l 1,24,-1
 96 0 l 1,25,-1
 0 0 l 1,0,-1
EndSplineSet
EndChar

StartChar: i
Encoding: 105 105 76
Width: 216
Flags: W
LayerCount: 2
Fore
SplineSet
25 0 m 1,0,-1
 25 480 l 1,1,-1
 121 480 l 1,2,-1
 121 0 l 1,3,-1
 25 0 l 1,0,-1
25 544 m 1,4,-1
 25 640 l 1,5,-1
 121 640 l 1,6,-1
 121 544 l 1,7,-1
 25 544 l 1,4,-1
EndSplineSet
EndChar

StartChar: j
Encoding: 106 106 77
Width: 196
Flags: W
LayerCount: 2
Fore
SplineSet
0 -192 m 1,0,-1
 0 480 l 1,1,-1
 96 480 l 1,2,-1
 96 -192 l 1,3,-1
 0 -192 l 1,0,-1
0 544 m 1,4,-1
 0 640 l 1,5,-1
 96 640 l 1,6,-1
 96 544 l 1,7,-1
 0 544 l 1,4,-1
EndSplineSet
EndChar

StartChar: k
Encoding: 107 107 78
Width: 516
Flags: W
LayerCount: 2
Fore
SplineSet
0 0 m 1,0,-1
 0 640 l 1,1,-1
 96 640 l 1,2,-1
 96 288 l 1,3,-1
 128 288 l 1,4,-1
 128 320 l 1,5,-1
 160 320 l 1,6,-1
 160 352 l 1,7,-1
 192 352 l 1,8,-1
 192 384 l 1,9,-1
 224 384 l 1,10,-1
 224 416 l 1,11,-1
 256 416 l 1,12,-1
 256 448 l 1,13,-1
 288 448 l 1,14,-1
 288 480 l 1,15,-1
 416 480 l 1,16,-1
 416 448 l 1,17,-1
 384 448 l 1,18,-1
 384 416 l 1,19,-1
 352 416 l 1,20,-1
 352 384 l 1,21,-1
 320 384 l 1,22,-1
 320 352 l 1,23,-1
 288 352 l 1,24,-1
 288 320 l 1,25,-1
 256 320 l 1,26,-1
 256 288 l 1,27,-1
 224 288 l 1,28,-1
 224 256 l 1,29,-1
 192 256 l 1,30,-1
 192 224 l 1,31,-1
 224 224 l 1,32,-1
 224 192 l 1,33,-1
 256 192 l 1,34,-1
 256 160 l 1,35,-1
 288 160 l 1,36,-1
 288 128 l 1,37,-1
 320 128 l 1,38,-1
 320 96 l 1,39,-1
 352 96 l 1,40,-1
 352 64 l 1,41,-1
 384 64 l 1,42,-1
 384 32 l 1,43,-1
 416 32 l 1,44,-1
 416 0 l 1,45,-1
 288 0 l 1,46,-1
 288 32 l 1,47,-1
 256 32 l 1,48,-1
 256 64 l 1,49,-1
 224 64 l 1,50,-1
 224 96 l 1,51,-1
 192 96 l 1,52,-1
 192 128 l 1,53,-1
 160 128 l 1,54,-1
 160 160 l 1,55,-1
 128 160 l 1,56,-1
 128 192 l 1,57,-1
 96 192 l 1,58,-1
 96 0 l 1,59,-1
 0 0 l 1,0,-1
EndSplineSet
EndChar

StartChar: l
Encoding: 108 108 79
Width: 196
Flags: W
LayerCount: 2
Fore
SplineSet
0 0 m 1,0,-1
 0 640 l 1,1,-1
 96 640 l 1,2,-1
 96 0 l 1,3,-1
 0 0 l 1,0,-1
EndSplineSet
EndChar

StartChar: m
Encoding: 109 109 80
Width: 708
Flags: W
LayerCount: 2
Fore
SplineSet
0 0 m 1,0,-1
 0 480 l 1,1,-1
 96 480 l 1,2,-1
 96 416 l 1,3,-1
 128 416 l 1,4,-1
 128 448 l 1,5,-1
 160 448 l 1,6,-1
 160 480 l 1,7,-1
 256 480 l 1,8,-1
 256 448 l 1,9,-1
 288 448 l 1,10,-1
 288 416 l 1,11,-1
 352 416 l 1,12,-1
 352 448 l 1,13,-1
 384 448 l 1,14,-1
 384 480 l 1,15,-1
 512 480 l 1,16,-1
 512 448 l 1,17,-1
 544 448 l 1,18,-1
 544 416 l 1,19,-1
 576 416 l 1,20,-1
 576 352 l 1,21,-1
 608 352 l 1,22,-1
 608 0 l 1,23,-1
 512 0 l 1,24,-1
 512 352 l 1,25,-1
 480 352 l 1,26,-1
 480 384 l 1,27,-1
 384 384 l 1,28,-1
 384 352 l 1,29,-1
 352 352 l 1,30,-1
 352 0 l 1,31,-1
 256 0 l 1,32,-1
 256 352 l 1,33,-1
 224 352 l 1,34,-1
 224 384 l 1,35,-1
 160 384 l 1,36,-1
 160 352 l 1,37,-1
 128 352 l 1,38,-1
 128 320 l 1,39,-1
 96 320 l 1,40,-1
 96 0 l 1,41,-1
 0 0 l 1,0,-1
EndSplineSet
EndChar

StartChar: n
Encoding: 110 110 81
Width: 484
Flags: W
HStem: 0 21G<0 96 288 384> 352 96<128 160 256 288> 384 96<160 256>
VStem: 0 96<0 320 416 480> 288 96<0 352>
LayerCount: 2
Fore
SplineSet
0 0 m 1,0,-1
 0 480 l 1,1,-1
 96 480 l 1,2,-1
 96 416 l 1,3,-1
 128 416 l 1,4,-1
 128 448 l 1,5,-1
 160 448 l 1,6,-1
 160 480 l 1,7,-1
 256 480 l 1,8,-1
 256 448 l 1,9,-1
 320 448 l 1,10,-1
 320 416 l 1,11,-1
 352 416 l 1,12,-1
 352 352 l 1,13,-1
 384 352 l 1,14,-1
 384 0 l 1,15,-1
 288 0 l 1,16,-1
 288 352 l 1,17,-1
 256 352 l 1,18,-1
 256 384 l 1,19,-1
 160 384 l 1,20,-1
 160 352 l 1,21,-1
 128 352 l 1,22,-1
 128 320 l 1,23,-1
 96 320 l 1,24,-1
 96 0 l 1,25,-1
 0 0 l 1,0,-1
EndSplineSet
EndChar

StartChar: o
Encoding: 111 111 82
Width: 484
Flags: W
LayerCount: 2
Fore
SplineSet
256 96 m 1,0,-1
 256 128 l 1,1,-1
 288 128 l 1,2,-1
 288 352 l 1,3,-1
 256 352 l 1,4,-1
 256 384 l 1,5,-1
 128 384 l 1,6,-1
 128 352 l 1,7,-1
 96 352 l 1,8,-1
 96 128 l 1,9,-1
 128 128 l 1,10,-1
 128 96 l 1,11,-1
 256 96 l 1,0,-1
128 0 m 1,12,-1
 128 32 l 1,13,-1
 64 32 l 1,14,-1
 64 64 l 1,15,-1
 32 64 l 1,16,-1
 32 128 l 1,17,-1
 0 128 l 1,18,-1
 0 352 l 1,19,-1
 32 352 l 1,20,-1
 32 416 l 1,21,-1
 64 416 l 1,22,-1
 64 448 l 1,23,-1
 128 448 l 1,24,-1
 128 480 l 1,25,-1
 256 480 l 1,26,-1
 256 448 l 1,27,-1
 320 448 l 1,28,-1
 320 416 l 1,29,-1
 352 416 l 1,30,-1
 352 352 l 1,31,-1
 384 352 l 1,32,-1
 384 128 l 1,33,-1
 352 128 l 1,34,-1
 352 64 l 1,35,-1
 320 64 l 1,36,-1
 320 32 l 1,37,-1
 256 32 l 1,38,-1
 256 0 l 1,39,-1
 128 0 l 1,12,-1
EndSplineSet
EndChar

StartChar: p
Encoding: 112 112 83
Width: 516
Flags: W
LayerCount: 2
Fore
SplineSet
288 96 m 1,0,-1
 288 128 l 1,1,-1
 320 128 l 1,2,-1
 320 352 l 1,3,-1
 288 352 l 1,4,-1
 288 384 l 1,5,-1
 160 384 l 1,6,-1
 160 352 l 1,7,-1
 128 352 l 1,8,-1
 128 320 l 1,9,-1
 96 320 l 1,10,-1
 96 160 l 1,11,-1
 128 160 l 1,12,-1
 128 128 l 1,13,-1
 160 128 l 1,14,-1
 160 96 l 1,15,-1
 288 96 l 1,0,-1
0 -192 m 1,16,-1
 0 480 l 1,17,-1
 96 480 l 1,18,-1
 96 416 l 1,19,-1
 128 416 l 1,20,-1
 128 448 l 1,21,-1
 160 448 l 1,22,-1
 160 480 l 1,23,-1
 288 480 l 1,24,-1
 288 448 l 1,25,-1
 352 448 l 1,26,-1
 352 416 l 1,27,-1
 384 416 l 1,28,-1
 384 352 l 1,29,-1
 416 352 l 1,30,-1
 416 128 l 1,31,-1
 384 128 l 1,32,-1
 384 64 l 1,33,-1
 352 64 l 1,34,-1
 352 32 l 1,35,-1
 288 32 l 1,36,-1
 288 0 l 1,37,-1
 160 0 l 1,38,-1
 160 32 l 1,39,-1
 128 32 l 1,40,-1
 128 64 l 1,41,-1
 96 64 l 1,42,-1
 96 -192 l 1,43,-1
 0 -192 l 1,16,-1
EndSplineSet
EndChar

StartChar: q
Encoding: 113 113 84
Width: 516
Flags: W
LayerCount: 2
Fore
SplineSet
256 96 m 1,0,-1
 256 128 l 1,1,-1
 288 128 l 1,2,-1
 288 160 l 1,3,-1
 320 160 l 1,4,-1
 320 320 l 1,5,-1
 288 320 l 1,6,-1
 288 352 l 1,7,-1
 256 352 l 1,8,-1
 256 384 l 1,9,-1
 128 384 l 1,10,-1
 128 352 l 1,11,-1
 96 352 l 1,12,-1
 96 128 l 1,13,-1
 128 128 l 1,14,-1
 128 96 l 1,15,-1
 256 96 l 1,0,-1
320 -192 m 1,16,-1
 320 64 l 1,17,-1
 288 64 l 1,18,-1
 288 32 l 1,19,-1
 256 32 l 1,20,-1
 256 0 l 1,21,-1
 128 0 l 1,22,-1
 128 32 l 1,23,-1
 64 32 l 1,24,-1
 64 64 l 1,25,-1
 32 64 l 1,26,-1
 32 128 l 1,27,-1
 0 128 l 1,28,-1
 0 352 l 1,29,-1
 32 352 l 1,30,-1
 32 416 l 1,31,-1
 64 416 l 1,32,-1
 64 448 l 1,33,-1
 128 448 l 1,34,-1
 128 480 l 1,35,-1
 256 480 l 1,36,-1
 256 448 l 1,37,-1
 288 448 l 1,38,-1
 288 416 l 1,39,-1
 320 416 l 1,40,-1
 320 480 l 1,41,-1
 416 480 l 1,42,-1
 416 -192 l 1,43,-1
 320 -192 l 1,16,-1
EndSplineSet
EndChar

StartChar: r
Encoding: 114 114 85
Width: 412
Flags: W
LayerCount: 2
Fore
SplineSet
0 0 m 1,0,-1
 0 480 l 1,1,-1
 96 480 l 1,2,-1
 96 416 l 1,3,-1
 128 416 l 1,4,-1
 128 448 l 1,5,-1
 160 448 l 1,6,-1
 160 480 l 1,7,-1
 288 480 l 1,8,-1
 288 448 l 1,9,-1
 320 448 l 1,10,-1
 320 416 l 1,11,-1
 352 416 l 1,12,-1
 352 352 l 1,13,-1
 320 352 l 1,14,-1
 320 320 l 1,15,-1
 288 320 l 1,16,-1
 288 352 l 1,17,-1
 256 352 l 1,18,-1
 256 384 l 1,19,-1
 160 384 l 1,20,-1
 160 352 l 1,21,-1
 128 352 l 1,22,-1
 128 320 l 1,23,-1
 96 320 l 1,24,-1
 96 0 l 1,25,-1
 0 0 l 1,0,-1
EndSplineSet
EndChar

StartChar: s
Encoding: 115 115 86
Width: 420
Flags: W
LayerCount: 2
Fore
SplineSet
64 0 m 1,0,-1
 64 32 l 1,1,-1
 32 32 l 1,2,-1
 32 64 l 1,3,-1
 0 64 l 1,4,-1
 0 128 l 1,5,-1
 32 128 l 1,6,-1
 32 160 l 1,7,-1
 64 160 l 1,8,-1
 64 128 l 1,9,-1
 96 128 l 1,10,-1
 96 96 l 1,11,-1
 128 96 l 1,12,-1
 128 64 l 1,13,-1
 192 64 l 1,14,-1
 192 96 l 1,15,-1
 224 96 l 1,16,-1
 224 160 l 1,17,-1
 192 160 l 1,18,-1
 192 192 l 1,19,-1
 160 192 l 1,20,-1
 160 224 l 1,21,-1
 96 224 l 1,22,-1
 96 256 l 1,23,-1
 64 256 l 1,24,-1
 64 288 l 1,25,-1
 32 288 l 1,26,-1
 32 320 l 1,27,-1
 0 320 l 1,28,-1
 0 416 l 1,29,-1
 32 416 l 1,30,-1
 32 448 l 1,31,-1
 64 448 l 1,32,-1
 64 480 l 1,33,-1
 256 480 l 1,34,-1
 256 448 l 1,35,-1
 288 448 l 1,36,-1
 288 352 l 1,37,-1
 224 352 l 1,38,-1
 224 384 l 1,39,-1
 192 384 l 1,40,-1
 192 416 l 1,41,-1
 128 416 l 1,42,-1
 128 384 l 1,43,-1
 96 384 l 1,44,-1
 96 352 l 1,45,-1
 128 352 l 1,46,-1
 128 320 l 1,47,-1
 160 320 l 1,48,-1
 160 288 l 1,49,-1
 224 288 l 1,50,-1
 224 256 l 1,51,-1
 256 256 l 1,52,-1
 256 224 l 1,53,-1
 288 224 l 1,54,-1
 288 192 l 1,55,-1
 320 192 l 1,56,-1
 320 64 l 1,57,-1
 288 64 l 1,58,-1
 288 32 l 1,59,-1
 256 32 l 1,60,-1
 256 0 l 1,61,-1
 64 0 l 1,0,-1
EndSplineSet
EndChar

StartChar: t
Encoding: 116 116 87
Width: 358
Flags: W
LayerCount: 2
Fore
SplineSet
64 0 m 1,0,-1
 64 384 l 1,1,-1
 0 384 l 1,2,-1
 0 480 l 1,3,-1
 64 480 l 1,4,-1
 64 608 l 1,5,-1
 160 608 l 1,6,-1
 160 480 l 1,7,-1
 288 480 l 1,8,-1
 288 384 l 1,9,-1
 160 384 l 1,10,-1
 160 0 l 1,11,-1
 64 0 l 1,0,-1
EndSplineSet
EndChar

StartChar: u
Encoding: 117 117 88
Width: 484
Flags: W
LayerCount: 2
Fore
SplineSet
64 0 m 1,0,-1
 64 32 l 1,1,-1
 32 32 l 1,2,-1
 32 64 l 1,3,-1
 0 64 l 1,4,-1
 0 480 l 1,5,-1
 96 480 l 1,6,-1
 96 128 l 1,7,-1
 128 128 l 1,8,-1
 128 96 l 1,9,-1
 224 96 l 1,10,-1
 224 128 l 1,11,-1
 256 128 l 1,12,-1
 256 160 l 1,13,-1
 288 160 l 1,14,-1
 288 480 l 1,15,-1
 384 480 l 1,16,-1
 384 0 l 1,17,-1
 288 0 l 1,18,-1
 288 64 l 1,19,-1
 256 64 l 1,20,-1
 256 32 l 1,21,-1
 224 32 l 1,22,-1
 224 0 l 1,23,-1
 64 0 l 1,0,-1
EndSplineSet
EndChar

StartChar: v
Encoding: 118 118 89
Width: 480
Flags: W
LayerCount: 2
Fore
SplineSet
128 0 m 1,0,-1
 128 64 l 1,1,-1
 96 64 l 1,2,-1
 96 160 l 1,3,-1
 64 160 l 1,4,-1
 64 288 l 1,5,-1
 32 288 l 1,6,-1
 32 384 l 1,7,-1
 0 384 l 1,8,-1
 0 480 l 1,9,-1
 96 480 l 1,10,-1
 96 416 l 1,11,-1
 128 416 l 1,12,-1
 128 288 l 1,13,-1
 160 288 l 1,14,-1
 160 192 l 1,15,-1
 192 192 l 1,16,-1
 192 96 l 1,17,-1
 224 96 l 1,18,-1
 224 192 l 1,19,-1
 256 192 l 1,20,-1
 256 288 l 1,21,-1
 288 288 l 1,22,-1
 288 416 l 1,23,-1
 320 416 l 1,24,-1
 320 480 l 1,25,-1
 416 480 l 1,26,-1
 416 384 l 1,27,-1
 384 384 l 1,28,-1
 384 288 l 1,29,-1
 352 288 l 1,30,-1
 352 160 l 1,31,-1
 320 160 l 1,32,-1
 320 64 l 1,33,-1
 288 64 l 1,34,-1
 288 0 l 1,35,-1
 128 0 l 1,0,-1
EndSplineSet
EndChar

StartChar: w
Encoding: 119 119 90
Width: 672
Flags: W
LayerCount: 2
Fore
SplineSet
128 0 m 1,0,-1
 128 64 l 1,1,-1
 96 64 l 1,2,-1
 96 160 l 1,3,-1
 64 160 l 1,4,-1
 64 288 l 1,5,-1
 32 288 l 1,6,-1
 32 384 l 1,7,-1
 0 384 l 1,8,-1
 0 480 l 1,9,-1
 96 480 l 1,10,-1
 96 384 l 1,11,-1
 128 384 l 1,12,-1
 128 288 l 1,13,-1
 160 288 l 1,14,-1
 160 192 l 1,15,-1
 192 192 l 1,16,-1
 192 96 l 1,17,-1
 224 96 l 1,18,-1
 224 192 l 1,19,-1
 256 192 l 1,20,-1
 256 288 l 1,21,-1
 224 288 l 1,22,-1
 224 384 l 1,23,-1
 192 384 l 1,24,-1
 192 480 l 1,25,-1
 256 480 l 1,26,-1
 256 416 l 1,27,-1
 288 416 l 1,28,-1
 288 320 l 1,29,-1
 320 320 l 1,30,-1
 320 416 l 1,31,-1
 352 416 l 1,32,-1
 352 480 l 1,33,-1
 416 480 l 1,34,-1
 416 384 l 1,35,-1
 384 384 l 1,36,-1
 384 288 l 1,37,-1
 352 288 l 1,38,-1
 352 192 l 1,39,-1
 384 192 l 1,40,-1
 384 96 l 1,41,-1
 416 96 l 1,42,-1
 416 192 l 1,43,-1
 448 192 l 1,44,-1
 448 288 l 1,45,-1
 480 288 l 1,46,-1
 480 384 l 1,47,-1
 512 384 l 1,48,-1
 512 480 l 1,49,-1
 608 480 l 1,50,-1
 608 384 l 1,51,-1
 576 384 l 1,52,-1
 576 288 l 1,53,-1
 544 288 l 1,54,-1
 544 160 l 1,55,-1
 512 160 l 1,56,-1
 512 64 l 1,57,-1
 480 64 l 1,58,-1
 480 0 l 1,59,-1
 352 0 l 1,60,-1
 352 64 l 1,61,-1
 320 64 l 1,62,-1
 320 160 l 1,63,-1
 288 160 l 1,64,-1
 288 64 l 1,65,-1
 256 64 l 1,66,-1
 256 0 l 1,67,-1
 128 0 l 1,0,-1
EndSplineSet
EndChar

StartChar: x
Encoding: 120 120 91
Width: 448
Flags: W
LayerCount: 2
Fore
SplineSet
0 0 m 1,0,-1
 0 96 l 1,1,-1
 32 96 l 1,2,-1
 32 128 l 1,3,-1
 64 128 l 1,4,-1
 64 160 l 1,5,-1
 96 160 l 1,6,-1
 96 192 l 1,7,-1
 128 192 l 1,8,-1
 128 224 l 1,9,-1
 160 224 l 1,10,-1
 160 256 l 1,11,-1
 128 256 l 1,12,-1
 128 288 l 1,13,-1
 96 288 l 1,14,-1
 96 320 l 1,15,-1
 64 320 l 1,16,-1
 64 352 l 1,17,-1
 32 352 l 1,18,-1
 32 384 l 1,19,-1
 0 384 l 1,20,-1
 0 480 l 1,21,-1
 64 480 l 1,22,-1
 64 448 l 1,23,-1
 96 448 l 1,24,-1
 96 416 l 1,25,-1
 128 416 l 1,26,-1
 128 384 l 1,27,-1
 160 384 l 1,28,-1
 160 320 l 1,29,-1
 224 320 l 1,30,-1
 224 384 l 1,31,-1
 256 384 l 1,32,-1
 256 416 l 1,33,-1
 288 416 l 1,34,-1
 288 448 l 1,35,-1
 320 448 l 1,36,-1
 320 480 l 1,37,-1
 384 480 l 1,38,-1
 384 384 l 1,39,-1
 352 384 l 1,40,-1
 352 352 l 1,41,-1
 320 352 l 1,42,-1
 320 320 l 1,43,-1
 288 320 l 1,44,-1
 288 288 l 1,45,-1
 256 288 l 1,46,-1
 256 256 l 1,47,-1
 224 256 l 1,48,-1
 224 224 l 1,49,-1
 256 224 l 1,50,-1
 256 192 l 1,51,-1
 288 192 l 1,52,-1
 288 160 l 1,53,-1
 320 160 l 1,54,-1
 320 128 l 1,55,-1
 352 128 l 1,56,-1
 352 96 l 1,57,-1
 384 96 l 1,58,-1
 384 0 l 1,59,-1
 320 0 l 1,60,-1
 320 32 l 1,61,-1
 288 32 l 1,62,-1
 288 64 l 1,63,-1
 256 64 l 1,64,-1
 256 96 l 1,65,-1
 224 96 l 1,66,-1
 224 160 l 1,67,-1
 160 160 l 1,68,-1
 160 96 l 1,69,-1
 128 96 l 1,70,-1
 128 64 l 1,71,-1
 96 64 l 1,72,-1
 96 32 l 1,73,-1
 64 32 l 1,74,-1
 64 0 l 1,75,-1
 0 0 l 1,0,-1
EndSplineSet
EndChar

StartChar: y
Encoding: 121 121 92
Width: 484
Flags: W
LayerCount: 2
Fore
SplineSet
96 -192 m 1,0,-1
 96 -96 l 1,1,-1
 128 -96 l 1,2,-1
 128 0 l 1,3,-1
 160 0 l 1,4,-1
 160 64 l 1,5,-1
 128 64 l 1,6,-1
 128 128 l 1,7,-1
 96 128 l 1,8,-1
 96 192 l 1,9,-1
 64 192 l 1,10,-1
 64 288 l 1,11,-1
 32 288 l 1,12,-1
 32 384 l 1,13,-1
 0 384 l 1,14,-1
 0 480 l 1,15,-1
 96 480 l 1,16,-1
 96 384 l 1,17,-1
 128 384 l 1,18,-1
 128 288 l 1,19,-1
 160 288 l 1,20,-1
 160 192 l 1,21,-1
 192 192 l 1,22,-1
 192 160 l 1,23,-1
 224 160 l 1,24,-1
 224 288 l 1,25,-1
 256 288 l 1,26,-1
 256 384 l 1,27,-1
 288 384 l 1,28,-1
 288 480 l 1,29,-1
 384 480 l 1,30,-1
 384 384 l 1,31,-1
 352 384 l 1,32,-1
 352 288 l 1,33,-1
 320 288 l 1,34,-1
 320 192 l 1,35,-1
 288 192 l 1,36,-1
 288 96 l 1,37,-1
 256 96 l 1,38,-1
 256 0 l 1,39,-1
 224 0 l 1,40,-1
 224 -96 l 1,41,-1
 192 -96 l 1,42,-1
 192 -192 l 1,43,-1
 96 -192 l 1,0,-1
EndSplineSet
EndChar

StartChar: z
Encoding: 122 122 93
Width: 516
Flags: W
LayerCount: 2
Fore
SplineSet
0 0 m 1,0,-1
 0 96 l 1,1,-1
 32 96 l 1,2,-1
 32 128 l 1,3,-1
 64 128 l 1,4,-1
 64 160 l 1,5,-1
 96 160 l 1,6,-1
 96 192 l 1,7,-1
 128 192 l 1,8,-1
 128 224 l 1,9,-1
 160 224 l 1,10,-1
 160 256 l 1,11,-1
 192 256 l 1,12,-1
 192 288 l 1,13,-1
 224 288 l 1,14,-1
 224 320 l 1,15,-1
 256 320 l 1,16,-1
 256 352 l 1,17,-1
 288 352 l 1,18,-1
 288 384 l 1,19,-1
 0 384 l 1,20,-1
 0 480 l 1,21,-1
 416 480 l 1,22,-1
 416 384 l 1,23,-1
 384 384 l 1,24,-1
 384 352 l 1,25,-1
 352 352 l 1,26,-1
 352 320 l 1,27,-1
 320 320 l 1,28,-1
 320 288 l 1,29,-1
 288 288 l 1,30,-1
 288 256 l 1,31,-1
 256 256 l 1,32,-1
 256 224 l 1,33,-1
 224 224 l 1,34,-1
 224 192 l 1,35,-1
 192 192 l 1,36,-1
 192 160 l 1,37,-1
 160 160 l 1,38,-1
 160 128 l 1,39,-1
 128 128 l 1,40,-1
 128 96 l 1,41,-1
 416 96 l 1,42,-1
 416 0 l 1,43,-1
 0 0 l 1,0,-1
EndSplineSet
EndChar

StartChar: braceleft
Encoding: 123 123 94
Width: 320
Flags: W
LayerCount: 2
Fore
SplineSet
128 -96 m 1,0,-1
 128 -64 l 1,1,-1
 96 -64 l 1,2,-1
 96 -32 l 1,3,-1
 64 -32 l 1,4,-1
 64 288 l 1,5,-1
 32 288 l 1,6,-1
 32 320 l 1,7,-1
 0 320 l 1,8,-1
 0 352 l 1,9,-1
 32 352 l 1,10,-1
 32 384 l 1,11,-1
 64 384 l 1,12,-1
 64 672 l 1,13,-1
 96 672 l 1,14,-1
 96 704 l 1,15,-1
 128 704 l 1,16,-1
 128 736 l 1,17,-1
 256 736 l 1,18,-1
 256 704 l 1,19,-1
 192 704 l 1,20,-1
 192 672 l 1,21,-1
 160 672 l 1,22,-1
 160 416 l 1,23,-1
 128 416 l 1,24,-1
 128 384 l 1,25,-1
 96 384 l 1,26,-1
 96 352 l 1,27,-1
 64 352 l 1,28,-1
 64 320 l 1,29,-1
 96 320 l 1,30,-1
 96 288 l 1,31,-1
 128 288 l 1,32,-1
 128 256 l 1,33,-1
 160 256 l 1,34,-1
 160 -32 l 1,35,-1
 192 -32 l 1,36,-1
 192 -64 l 1,37,-1
 256 -64 l 1,38,-1
 256 -96 l 1,39,-1
 128 -96 l 1,0,-1
EndSplineSet
EndChar

StartChar: bar
Encoding: 124 124 95
Width: 128
Flags: W
LayerCount: 2
Fore
SplineSet
0 -96 m 1,0,-1
 0 736 l 1,1,-1
 64 736 l 1,2,-1
 64 -96 l 1,3,-1
 0 -96 l 1,0,-1
EndSplineSet
EndChar

StartChar: braceright
Encoding: 125 125 96
Width: 320
Flags: W
LayerCount: 2
Fore
SplineSet
0 -96 m 1,0,-1
 0 -64 l 1,1,-1
 64 -64 l 1,2,-1
 64 -32 l 1,3,-1
 96 -32 l 1,4,-1
 96 256 l 1,5,-1
 128 256 l 1,6,-1
 128 288 l 1,7,-1
 160 288 l 1,8,-1
 160 320 l 1,9,-1
 192 320 l 1,10,-1
 192 352 l 1,11,-1
 160 352 l 1,12,-1
 160 384 l 1,13,-1
 128 384 l 1,14,-1
 128 416 l 1,15,-1
 96 416 l 1,16,-1
 96 672 l 1,17,-1
 64 672 l 1,18,-1
 64 704 l 1,19,-1
 0 704 l 1,20,-1
 0 736 l 1,21,-1
 128 736 l 1,22,-1
 128 704 l 1,23,-1
 160 704 l 1,24,-1
 160 672 l 1,25,-1
 192 672 l 1,26,-1
 192 384 l 1,27,-1
 224 384 l 1,28,-1
 224 352 l 1,29,-1
 256 352 l 1,30,-1
 256 320 l 1,31,-1
 224 320 l 1,32,-1
 224 288 l 1,33,-1
 192 288 l 1,34,-1
 192 -32 l 1,35,-1
 160 -32 l 1,36,-1
 160 -64 l 1,37,-1
 128 -64 l 1,38,-1
 128 -96 l 1,39,-1
 0 -96 l 1,0,-1
EndSplineSet
EndChar

StartChar: asciitilde
Encoding: 126 126 97
Width: 448
Flags: W
LayerCount: 2
Fore
SplineSet
0 256 m 1,0,-1
 0 352 l 1,1,-1
 32 352 l 1,2,-1
 32 384 l 1,3,-1
 64 384 l 1,4,-1
 64 416 l 1,5,-1
 160 416 l 1,6,-1
 160 384 l 1,7,-1
 224 384 l 1,8,-1
 224 352 l 1,9,-1
 320 352 l 1,10,-1
 320 384 l 1,11,-1
 352 384 l 1,12,-1
 352 416 l 1,13,-1
 384 416 l 1,14,-1
 384 320 l 1,15,-1
 352 320 l 1,16,-1
 352 288 l 1,17,-1
 320 288 l 1,18,-1
 320 256 l 1,19,-1
 224 256 l 1,20,-1
 224 288 l 1,21,-1
 160 288 l 1,22,-1
 160 320 l 1,23,-1
 64 320 l 1,24,-1
 64 288 l 1,25,-1
 32 288 l 1,26,-1
 32 256 l 1,27,-1
 0 256 l 1,0,-1
EndSplineSet
EndChar

StartChar: exclamdown
Encoding: 161 161 98
Width: 192
Flags: W
LayerCount: 2
Fore
SplineSet
0 0 m 1,0,-1
 0 448 l 1,1,-1
 96 448 l 1,2,-1
 96 0 l 1,3,-1
 0 0 l 1,0,-1
0 544 m 1,4,-1
 0 640 l 1,5,-1
 96 640 l 1,6,-1
 96 544 l 1,7,-1
 0 544 l 1,4,-1
EndSplineSet
EndChar

StartChar: cent
Encoding: 162 162 99
Width: 448
Flags: W
LayerCount: 2
Fore
SplineSet
-64 -32 m 1,0,-1
 -64 0 l 1,1,-1
 -32 0 l 1,2,-1
 -32 32 l 1,3,-1
 0 32 l 1,4,-1
 0 320 l 1,5,-1
 32 320 l 1,6,-1
 32 352 l 1,7,-1
 64 352 l 1,8,-1
 64 384 l 1,9,-1
 96 384 l 1,10,-1
 96 416 l 1,11,-1
 256 416 l 1,12,-1
 256 448 l 1,13,-1
 288 448 l 1,14,-1
 288 480 l 1,15,-1
 352 480 l 1,16,-1
 352 448 l 1,17,-1
 320 448 l 1,18,-1
 320 416 l 1,19,-1
 288 416 l 1,20,-1
 288 384 l 1,21,-1
 320 384 l 1,22,-1
 320 352 l 1,23,-1
 352 352 l 1,24,-1
 352 288 l 1,25,-1
 288 288 l 1,26,-1
 288 320 l 1,27,-1
 256 320 l 1,28,-1
 256 352 l 1,29,-1
 128 352 l 1,30,-1
 128 320 l 1,31,-1
 96 320 l 1,32,-1
 96 288 l 1,33,-1
 64 288 l 1,34,-1
 64 128 l 1,35,-1
 96 128 l 1,36,-1
 96 96 l 1,37,-1
 128 96 l 1,38,-1
 128 64 l 1,39,-1
 256 64 l 1,40,-1
 256 96 l 1,41,-1
 288 96 l 1,42,-1
 288 128 l 1,43,-1
 352 128 l 1,44,-1
 352 64 l 1,45,-1
 320 64 l 1,46,-1
 320 32 l 1,47,-1
 288 32 l 1,48,-1
 288 0 l 1,49,-1
 96 0 l 1,50,-1
 96 32 l 1,51,-1
 32 32 l 1,52,-1
 32 0 l 1,53,-1
 0 0 l 1,54,-1
 0 -32 l 1,55,-1
 -64 -32 l 1,0,-1
EndSplineSet
EndChar

StartChar: sterling
Encoding: 163 163 100
Width: 608
Flags: W
LayerCount: 2
Fore
SplineSet
128 64 m 1,0,-1
 128 128 l 1,1,-1
 96 128 l 1,2,-1
 96 160 l 1,3,-1
 32 160 l 1,4,-1
 32 64 l 1,5,-1
 128 64 l 1,0,-1
32 0 m 1,6,-1
 32 32 l 1,7,-1
 0 32 l 1,8,-1
 0 192 l 1,9,-1
 32 192 l 1,10,-1
 32 224 l 1,11,-1
 128 224 l 1,12,-1
 128 192 l 1,13,-1
 160 192 l 1,14,-1
 160 320 l 1,15,-1
 32 320 l 1,16,-1
 32 384 l 1,17,-1
 160 384 l 1,18,-1
 160 576 l 1,19,-1
 192 576 l 1,20,-1
 192 608 l 1,21,-1
 224 608 l 1,22,-1
 224 640 l 1,23,-1
 448 640 l 1,24,-1
 448 608 l 1,25,-1
 480 608 l 1,26,-1
 480 576 l 1,27,-1
 512 576 l 1,28,-1
 512 512 l 1,29,-1
 416 512 l 1,30,-1
 416 544 l 1,31,-1
 384 544 l 1,32,-1
 384 576 l 1,33,-1
 288 576 l 1,34,-1
 288 544 l 1,35,-1
 256 544 l 1,36,-1
 256 384 l 1,37,-1
 448 384 l 1,38,-1
 448 320 l 1,39,-1
 256 320 l 1,40,-1
 256 128 l 1,41,-1
 288 128 l 1,42,-1
 288 96 l 1,43,-1
 320 96 l 1,44,-1
 320 64 l 1,45,-1
 384 64 l 1,46,-1
 384 96 l 1,47,-1
 416 96 l 1,48,-1
 416 128 l 1,49,-1
 448 128 l 1,50,-1
 448 160 l 1,51,-1
 512 160 l 1,52,-1
 512 64 l 1,53,-1
 480 64 l 1,54,-1
 480 32 l 1,55,-1
 448 32 l 1,56,-1
 448 0 l 1,57,-1
 256 0 l 1,58,-1
 256 32 l 1,59,-1
 224 32 l 1,60,-1
 224 64 l 1,61,-1
 192 64 l 1,62,-1
 192 32 l 1,63,-1
 160 32 l 1,64,-1
 160 0 l 1,65,-1
 32 0 l 1,6,-1
EndSplineSet
EndChar

StartChar: currency
Encoding: 164 164 101
Width: 736
Flags: W
LayerCount: 2
Fore
SplineSet
352 96 m 1,0,-1
 352 128 l 1,1,-1
 384 128 l 1,2,-1
 384 160 l 1,3,-1
 416 160 l 1,4,-1
 416 352 l 1,5,-1
 384 352 l 1,6,-1
 384 384 l 1,7,-1
 352 384 l 1,8,-1
 352 416 l 1,9,-1
 160 416 l 1,10,-1
 160 384 l 1,11,-1
 128 384 l 1,12,-1
 128 352 l 1,13,-1
 96 352 l 1,14,-1
 96 160 l 1,15,-1
 128 160 l 1,16,-1
 128 128 l 1,17,-1
 160 128 l 1,18,-1
 160 96 l 1,19,-1
 352 96 l 1,0,-1
32 0 m 1,20,-1
 32 32 l 1,21,-1
 0 32 l 1,22,-1
 0 64 l 1,23,-1
 32 64 l 1,24,-1
 32 96 l 1,25,-1
 64 96 l 1,26,-1
 64 160 l 1,27,-1
 32 160 l 1,28,-1
 32 352 l 1,29,-1
 64 352 l 1,30,-1
 64 416 l 1,31,-1
 32 416 l 1,32,-1
 32 448 l 1,33,-1
 0 448 l 1,34,-1
 0 480 l 1,35,-1
 32 480 l 1,36,-1
 32 512 l 1,37,-1
 64 512 l 1,38,-1
 64 480 l 1,39,-1
 96 480 l 1,40,-1
 96 448 l 1,41,-1
 160 448 l 1,42,-1
 160 480 l 1,43,-1
 352 480 l 1,44,-1
 352 448 l 1,45,-1
 416 448 l 1,46,-1
 416 480 l 1,47,-1
 448 480 l 1,48,-1
 448 512 l 1,49,-1
 480 512 l 1,50,-1
 480 480 l 1,51,-1
 512 480 l 1,52,-1
 512 448 l 1,53,-1
 480 448 l 1,54,-1
 480 416 l 1,55,-1
 448 416 l 1,56,-1
 448 352 l 1,57,-1
 480 352 l 1,58,-1
 480 160 l 1,59,-1
 448 160 l 1,60,-1
 448 96 l 1,61,-1
 480 96 l 1,62,-1
 480 64 l 1,63,-1
 512 64 l 1,64,-1
 512 32 l 1,65,-1
 480 32 l 1,66,-1
 480 0 l 1,67,-1
 448 0 l 1,68,-1
 448 32 l 1,69,-1
 416 32 l 1,70,-1
 416 64 l 1,71,-1
 352 64 l 1,72,-1
 352 32 l 1,73,-1
 160 32 l 1,74,-1
 160 64 l 1,75,-1
 96 64 l 1,76,-1
 96 32 l 1,77,-1
 64 32 l 1,78,-1
 64 0 l 1,79,-1
 32 0 l 1,20,-1
EndSplineSet
EndChar

StartChar: yen
Encoding: 165 165 102
Width: 640
Flags: W
LayerCount: 2
Fore
SplineSet
288 320 m 1,0,-1
 288 384 l 1,1,-1
 320 384 l 1,2,-1
 320 416 l 1,3,-1
 224 416 l 1,4,-1
 224 384 l 1,5,-1
 256 384 l 1,6,-1
 256 320 l 1,7,-1
 288 320 l 1,0,-1
224 0 m 1,8,-1
 224 224 l 1,9,-1
 0 224 l 1,10,-1
 0 288 l 1,11,-1
 160 288 l 1,12,-1
 160 352 l 1,13,-1
 128 352 l 1,14,-1
 128 416 l 1,15,-1
 0 416 l 1,16,-1
 0 480 l 1,17,-1
 64 480 l 1,18,-1
 64 544 l 1,19,-1
 32 544 l 1,20,-1
 32 608 l 1,21,-1
 0 608 l 1,22,-1
 0 640 l 1,23,-1
 128 640 l 1,24,-1
 128 576 l 1,25,-1
 160 576 l 1,26,-1
 160 512 l 1,27,-1
 192 512 l 1,28,-1
 192 480 l 1,29,-1
 352 480 l 1,30,-1
 352 512 l 1,31,-1
 384 512 l 1,32,-1
 384 576 l 1,33,-1
 416 576 l 1,34,-1
 416 640 l 1,35,-1
 544 640 l 1,36,-1
 544 608 l 1,37,-1
 512 608 l 1,38,-1
 512 544 l 1,39,-1
 480 544 l 1,40,-1
 480 480 l 1,41,-1
 544 480 l 1,42,-1
 544 416 l 1,43,-1
 416 416 l 1,44,-1
 416 352 l 1,45,-1
 384 352 l 1,46,-1
 384 288 l 1,47,-1
 544 288 l 1,48,-1
 544 224 l 1,49,-1
 320 224 l 1,50,-1
 320 0 l 1,51,-1
 224 0 l 1,8,-1
EndSplineSet
EndChar

StartChar: brokenbar
Encoding: 166 166 103
Width: 160
Flags: W
LayerCount: 2
Fore
SplineSet
0 -64 m 1,0,-1
 0 704 l 1,1,-1
 64 704 l 1,2,-1
 64 -64 l 1,3,-1
 0 -64 l 1,0,-1
EndSplineSet
EndChar

StartChar: section
Encoding: 167 167 104
Width: 352
Flags: W
LayerCount: 2
Fore
SplineSet
224 160 m 1,0,-1
 224 192 l 1,1,-1
 256 192 l 1,2,-1
 256 256 l 1,3,-1
 224 256 l 1,4,-1
 224 288 l 1,5,-1
 192 288 l 1,6,-1
 192 320 l 1,7,-1
 96 320 l 1,8,-1
 96 288 l 1,9,-1
 64 288 l 1,10,-1
 64 224 l 1,11,-1
 96 224 l 1,12,-1
 96 192 l 1,13,-1
 128 192 l 1,14,-1
 128 160 l 1,15,-1
 224 160 l 1,0,-1
96 -160 m 1,16,-1
 96 -128 l 1,17,-1
 64 -128 l 1,18,-1
 64 -64 l 1,19,-1
 32 -64 l 1,20,-1
 32 0 l 1,21,-1
 96 0 l 1,22,-1
 96 -64 l 1,23,-1
 128 -64 l 1,24,-1
 128 -96 l 1,25,-1
 192 -96 l 1,26,-1
 192 -64 l 1,27,-1
 224 -64 l 1,28,-1
 224 0 l 1,29,-1
 192 0 l 1,30,-1
 192 32 l 1,31,-1
 160 32 l 1,32,-1
 160 64 l 1,33,-1
 128 64 l 1,34,-1
 128 96 l 1,35,-1
 96 96 l 1,36,-1
 96 128 l 1,37,-1
 64 128 l 1,38,-1
 64 160 l 1,39,-1
 32 160 l 1,40,-1
 32 192 l 1,41,-1
 0 192 l 1,42,-1
 0 320 l 1,43,-1
 32 320 l 1,44,-1
 32 352 l 1,45,-1
 96 352 l 1,46,-1
 96 416 l 1,47,-1
 64 416 l 1,48,-1
 64 448 l 1,49,-1
 32 448 l 1,50,-1
 32 576 l 1,51,-1
 64 576 l 1,52,-1
 64 608 l 1,53,-1
 96 608 l 1,54,-1
 96 640 l 1,55,-1
 224 640 l 1,56,-1
 224 608 l 1,57,-1
 256 608 l 1,58,-1
 256 544 l 1,59,-1
 288 544 l 1,60,-1
 288 480 l 1,61,-1
 224 480 l 1,62,-1
 224 544 l 1,63,-1
 192 544 l 1,64,-1
 192 576 l 1,65,-1
 128 576 l 1,66,-1
 128 544 l 1,67,-1
 96 544 l 1,68,-1
 96 480 l 1,69,-1
 128 480 l 1,70,-1
 128 448 l 1,71,-1
 160 448 l 1,72,-1
 160 416 l 1,73,-1
 192 416 l 1,74,-1
 192 384 l 1,75,-1
 224 384 l 1,76,-1
 224 352 l 1,77,-1
 256 352 l 1,78,-1
 256 320 l 1,79,-1
 288 320 l 1,80,-1
 288 288 l 1,81,-1
 320 288 l 1,82,-1
 320 160 l 1,83,-1
 288 160 l 1,84,-1
 288 128 l 1,85,-1
 224 128 l 1,86,-1
 224 96 l 1,87,-1
 256 96 l 1,88,-1
 256 32 l 1,89,-1
 288 32 l 1,90,-1
 288 -96 l 1,91,-1
 256 -96 l 1,92,-1
 256 -128 l 1,93,-1
 224 -128 l 1,94,-1
 224 -160 l 1,95,-1
 96 -160 l 1,16,-1
EndSplineSet
EndChar

StartChar: dieresis
Encoding: 168 168 105
Width: 384
Flags: W
LayerCount: 2
Fore
SplineSet
0 704 m 1,0,-1
 0 800 l 1,1,-1
 96 800 l 1,2,-1
 96 704 l 1,3,-1
 0 704 l 1,0,-1
192 704 m 1,4,-1
 192 800 l 1,5,-1
 288 800 l 1,6,-1
 288 704 l 1,7,-1
 192 704 l 1,4,-1
EndSplineSet
EndChar

StartChar: copyright
Encoding: 169 169 106
Width: 736
Flags: W
LayerCount: 2
Fore
SplineSet
192 0 m 1,0,-1
 192 32 l 1,1,-1
 128 32 l 1,2,-1
 128 64 l 1,3,-1
 96 64 l 1,4,-1
 96 96 l 1,5,-1
 64 96 l 1,6,-1
 64 128 l 1,7,-1
 32 128 l 1,8,-1
 32 224 l 1,9,-1
 64 224 l 1,10,-1
 64 160 l 1,11,-1
 96 160 l 1,12,-1
 96 128 l 1,13,-1
 128 128 l 1,14,-1
 128 96 l 1,15,-1
 192 96 l 1,16,-1
 192 64 l 1,17,-1
 448 64 l 1,18,-1
 448 96 l 1,19,-1
 512 96 l 1,20,-1
 512 128 l 1,21,-1
 544 128 l 1,22,-1
 544 160 l 1,23,-1
 576 160 l 1,24,-1
 576 224 l 1,25,-1
 608 224 l 1,26,-1
 608 128 l 1,27,-1
 576 128 l 1,28,-1
 576 96 l 1,29,-1
 544 96 l 1,30,-1
 544 64 l 1,31,-1
 512 64 l 1,32,-1
 512 32 l 1,33,-1
 448 32 l 1,34,-1
 448 0 l 1,35,-1
 192 0 l 1,0,-1
0 224 m 1,36,-1
 0 448 l 1,37,-1
 32 448 l 1,38,-1
 32 224 l 1,39,-1
 0 224 l 1,36,-1
608 224 m 1,40,-1
 608 448 l 1,41,-1
 640 448 l 1,42,-1
 640 224 l 1,43,-1
 608 224 l 1,40,-1
224 128 m 1,44,-1
 224 160 l 1,45,-1
 192 160 l 1,46,-1
 192 192 l 1,47,-1
 160 192 l 1,48,-1
 160 224 l 1,49,-1
 128 224 l 1,50,-1
 128 448 l 1,51,-1
 160 448 l 1,52,-1
 160 480 l 1,53,-1
 192 480 l 1,54,-1
 192 512 l 1,55,-1
 224 512 l 1,56,-1
 224 544 l 1,57,-1
 416 544 l 1,58,-1
 416 512 l 1,59,-1
 448 512 l 1,60,-1
 448 480 l 1,61,-1
 480 480 l 1,62,-1
 480 416 l 1,63,-1
 416 416 l 1,64,-1
 416 448 l 1,65,-1
 384 448 l 1,66,-1
 384 480 l 1,67,-1
 256 480 l 1,68,-1
 256 448 l 1,69,-1
 224 448 l 1,70,-1
 224 416 l 1,71,-1
 192 416 l 1,72,-1
 192 256 l 1,73,-1
 224 256 l 1,74,-1
 224 224 l 1,75,-1
 256 224 l 1,76,-1
 256 192 l 1,77,-1
 384 192 l 1,78,-1
 384 224 l 1,79,-1
 416 224 l 1,80,-1
 416 256 l 1,81,-1
 480 256 l 1,82,-1
 480 192 l 1,83,-1
 448 192 l 1,84,-1
 448 160 l 1,85,-1
 416 160 l 1,86,-1
 416 128 l 1,87,-1
 224 128 l 1,44,-1
32 448 m 1,88,-1
 32 544 l 1,89,-1
 64 544 l 1,90,-1
 64 576 l 1,91,-1
 96 576 l 1,92,-1
 96 608 l 1,93,-1
 128 608 l 1,94,-1
 128 640 l 1,95,-1
 192 640 l 1,96,-1
 192 672 l 1,97,-1
 448 672 l 1,98,-1
 448 640 l 1,99,-1
 512 640 l 1,100,-1
 512 608 l 1,101,-1
 544 608 l 1,102,-1
 544 576 l 1,103,-1
 576 576 l 1,104,-1
 576 544 l 1,105,-1
 608 544 l 1,106,-1
 608 448 l 1,107,-1
 576 448 l 1,108,-1
 576 512 l 1,109,-1
 544 512 l 1,110,-1
 544 544 l 1,111,-1
 512 544 l 1,112,-1
 512 576 l 1,113,-1
 448 576 l 1,114,-1
 448 608 l 1,115,-1
 192 608 l 1,116,-1
 192 576 l 1,117,-1
 128 576 l 1,118,-1
 128 544 l 1,119,-1
 96 544 l 1,120,-1
 96 512 l 1,121,-1
 64 512 l 1,122,-1
 64 448 l 1,123,-1
 32 448 l 1,88,-1
EndSplineSet
EndChar

StartChar: ordfeminine
Encoding: 170 170 107
Width: 352
Flags: W
LayerCount: 2
Fore
SplineSet
0 128 m 1,0,-1
 0 192 l 1,1,-1
 256 192 l 1,2,-1
 256 128 l 1,3,-1
 0 128 l 1,0,-1
160 288 m 1,4,-1
 160 320 l 1,5,-1
 192 320 l 1,6,-1
 192 384 l 1,7,-1
 96 384 l 1,8,-1
 96 352 l 1,9,-1
 64 352 l 1,10,-1
 64 320 l 1,11,-1
 96 320 l 1,12,-1
 96 288 l 1,13,-1
 160 288 l 1,4,-1
64 224 m 1,14,-1
 64 256 l 1,15,-1
 32 256 l 1,16,-1
 32 288 l 1,17,-1
 0 288 l 1,18,-1
 0 384 l 1,19,-1
 32 384 l 1,20,-1
 32 416 l 1,21,-1
 64 416 l 1,22,-1
 64 448 l 1,23,-1
 192 448 l 1,24,-1
 192 512 l 1,25,-1
 64 512 l 1,26,-1
 64 480 l 1,27,-1
 0 480 l 1,28,-1
 0 512 l 1,29,-1
 32 512 l 1,30,-1
 32 544 l 1,31,-1
 64 544 l 1,32,-1
 64 576 l 1,33,-1
 192 576 l 1,34,-1
 192 544 l 1,35,-1
 224 544 l 1,36,-1
 224 512 l 1,37,-1
 256 512 l 1,38,-1
 256 224 l 1,39,-1
 192 224 l 1,40,-1
 192 256 l 1,41,-1
 160 256 l 1,42,-1
 160 224 l 1,43,-1
 64 224 l 1,14,-1
EndSplineSet
EndChar

StartChar: guillemotleft
Encoding: 171 171 108
Width: 576
Flags: W
LayerCount: 2
Fore
SplineSet
224 64 m 1,0,-1
 224 96 l 1,1,-1
 192 96 l 1,2,-1
 192 128 l 1,3,-1
 160 128 l 1,4,-1
 160 160 l 1,5,-1
 128 160 l 1,6,-1
 128 192 l 1,7,-1
 96 192 l 1,8,-1
 96 224 l 1,9,-1
 64 224 l 1,10,-1
 64 256 l 1,11,-1
 32 256 l 1,12,-1
 32 288 l 1,13,-1
 0 288 l 1,14,-1
 0 320 l 1,15,-1
 32 320 l 1,16,-1
 32 352 l 1,17,-1
 64 352 l 1,18,-1
 64 384 l 1,19,-1
 96 384 l 1,20,-1
 96 416 l 1,21,-1
 128 416 l 1,22,-1
 128 448 l 1,23,-1
 160 448 l 1,24,-1
 160 480 l 1,25,-1
 192 480 l 1,26,-1
 192 512 l 1,27,-1
 224 512 l 1,28,-1
 224 544 l 1,29,-1
 256 544 l 1,30,-1
 256 512 l 1,31,-1
 288 512 l 1,32,-1
 288 480 l 1,33,-1
 256 480 l 1,34,-1
 256 448 l 1,35,-1
 224 448 l 1,36,-1
 224 416 l 1,37,-1
 192 416 l 1,38,-1
 192 384 l 1,39,-1
 160 384 l 1,40,-1
 160 352 l 1,41,-1
 128 352 l 1,42,-1
 128 320 l 1,43,-1
 96 320 l 1,44,-1
 96 288 l 1,45,-1
 128 288 l 1,46,-1
 128 256 l 1,47,-1
 160 256 l 1,48,-1
 160 224 l 1,49,-1
 192 224 l 1,50,-1
 192 192 l 1,51,-1
 224 192 l 1,52,-1
 224 160 l 1,53,-1
 256 160 l 1,54,-1
 256 128 l 1,55,-1
 288 128 l 1,56,-1
 288 96 l 1,57,-1
 256 96 l 1,58,-1
 256 64 l 1,59,-1
 224 64 l 1,0,-1
416 64 m 1,60,-1
 416 96 l 1,61,-1
 384 96 l 1,62,-1
 384 128 l 1,63,-1
 352 128 l 1,64,-1
 352 160 l 1,65,-1
 320 160 l 1,66,-1
 320 192 l 1,67,-1
 288 192 l 1,68,-1
 288 224 l 1,69,-1
 256 224 l 1,70,-1
 256 256 l 1,71,-1
 224 256 l 1,72,-1
 224 288 l 1,73,-1
 192 288 l 1,74,-1
 192 320 l 1,75,-1
 224 320 l 1,76,-1
 224 352 l 1,77,-1
 256 352 l 1,78,-1
 256 384 l 1,79,-1
 288 384 l 1,80,-1
 288 416 l 1,81,-1
 320 416 l 1,82,-1
 320 448 l 1,83,-1
 352 448 l 1,84,-1
 352 480 l 1,85,-1
 384 480 l 1,86,-1
 384 512 l 1,87,-1
 416 512 l 1,88,-1
 416 544 l 1,89,-1
 448 544 l 1,90,-1
 448 512 l 1,91,-1
 480 512 l 1,92,-1
 480 480 l 1,93,-1
 448 480 l 1,94,-1
 448 448 l 1,95,-1
 416 448 l 1,96,-1
 416 416 l 1,97,-1
 384 416 l 1,98,-1
 384 384 l 1,99,-1
 352 384 l 1,100,-1
 352 352 l 1,101,-1
 320 352 l 1,102,-1
 320 320 l 1,103,-1
 288 320 l 1,104,-1
 288 288 l 1,105,-1
 320 288 l 1,106,-1
 320 256 l 1,107,-1
 352 256 l 1,108,-1
 352 224 l 1,109,-1
 384 224 l 1,110,-1
 384 192 l 1,111,-1
 416 192 l 1,112,-1
 416 160 l 1,113,-1
 448 160 l 1,114,-1
 448 128 l 1,115,-1
 480 128 l 1,116,-1
 480 96 l 1,117,-1
 448 96 l 1,118,-1
 448 64 l 1,119,-1
 416 64 l 1,60,-1
EndSplineSet
EndChar

StartChar: logicalnot
Encoding: 172 172 109
Width: 800
Flags: W
LayerCount: 2
Fore
SplineSet
640 0 m 1,0,-1
 640 288 l 1,1,-1
 0 288 l 1,2,-1
 0 352 l 1,3,-1
 704 352 l 1,4,-1
 704 0 l 1,5,-1
 640 0 l 1,0,-1
EndSplineSet
EndChar

StartChar: registered
Encoding: 174 174 110
Width: 736
Flags: W
LayerCount: 2
Fore
SplineSet
192 0 m 1,0,-1
 192 32 l 1,1,-1
 128 32 l 1,2,-1
 128 64 l 1,3,-1
 96 64 l 1,4,-1
 96 96 l 1,5,-1
 64 96 l 1,6,-1
 64 128 l 1,7,-1
 32 128 l 1,8,-1
 32 224 l 1,9,-1
 64 224 l 1,10,-1
 64 160 l 1,11,-1
 96 160 l 1,12,-1
 96 128 l 1,13,-1
 128 128 l 1,14,-1
 128 96 l 1,15,-1
 192 96 l 1,16,-1
 192 64 l 1,17,-1
 448 64 l 1,18,-1
 448 96 l 1,19,-1
 512 96 l 1,20,-1
 512 128 l 1,21,-1
 544 128 l 1,22,-1
 544 160 l 1,23,-1
 576 160 l 1,24,-1
 576 224 l 1,25,-1
 608 224 l 1,26,-1
 608 128 l 1,27,-1
 576 128 l 1,28,-1
 576 96 l 1,29,-1
 544 96 l 1,30,-1
 544 64 l 1,31,-1
 512 64 l 1,32,-1
 512 32 l 1,33,-1
 448 32 l 1,34,-1
 448 0 l 1,35,-1
 192 0 l 1,0,-1
0 224 m 1,36,-1
 0 448 l 1,37,-1
 32 448 l 1,38,-1
 32 224 l 1,39,-1
 0 224 l 1,36,-1
416 352 m 1,40,-1
 416 448 l 1,41,-1
 256 448 l 1,42,-1
 256 352 l 1,43,-1
 416 352 l 1,40,-1
608 224 m 1,44,-1
 608 448 l 1,45,-1
 640 448 l 1,46,-1
 640 224 l 1,47,-1
 608 224 l 1,44,-1
192 160 m 1,48,-1
 192 512 l 1,49,-1
 416 512 l 1,50,-1
 416 480 l 1,51,-1
 448 480 l 1,52,-1
 448 448 l 1,53,-1
 480 448 l 1,54,-1
 480 352 l 1,55,-1
 448 352 l 1,56,-1
 448 320 l 1,57,-1
 352 320 l 1,58,-1
 352 288 l 1,59,-1
 384 288 l 1,60,-1
 384 256 l 1,61,-1
 416 256 l 1,62,-1
 416 224 l 1,63,-1
 448 224 l 1,64,-1
 448 192 l 1,65,-1
 480 192 l 1,66,-1
 480 160 l 1,67,-1
 384 160 l 1,68,-1
 384 192 l 1,69,-1
 352 192 l 1,70,-1
 352 224 l 1,71,-1
 320 224 l 1,72,-1
 320 256 l 1,73,-1
 288 256 l 1,74,-1
 288 288 l 1,75,-1
 256 288 l 1,76,-1
 256 160 l 1,77,-1
 192 160 l 1,48,-1
32 448 m 1,78,-1
 32 544 l 1,79,-1
 64 544 l 1,80,-1
 64 576 l 1,81,-1
 96 576 l 1,82,-1
 96 608 l 1,83,-1
 128 608 l 1,84,-1
 128 640 l 1,85,-1
 192 640 l 1,86,-1
 192 672 l 1,87,-1
 448 672 l 1,88,-1
 448 640 l 1,89,-1
 512 640 l 1,90,-1
 512 608 l 1,91,-1
 544 608 l 1,92,-1
 544 576 l 1,93,-1
 576 576 l 1,94,-1
 576 544 l 1,95,-1
 608 544 l 1,96,-1
 608 448 l 1,97,-1
 576 448 l 1,98,-1
 576 512 l 1,99,-1
 544 512 l 1,100,-1
 544 544 l 1,101,-1
 512 544 l 1,102,-1
 512 576 l 1,103,-1
 448 576 l 1,104,-1
 448 608 l 1,105,-1
 192 608 l 1,106,-1
 192 576 l 1,107,-1
 128 576 l 1,108,-1
 128 544 l 1,109,-1
 96 544 l 1,110,-1
 96 512 l 1,111,-1
 64 512 l 1,112,-1
 64 448 l 1,113,-1
 32 448 l 1,78,-1
EndSplineSet
EndChar

StartChar: macron
Encoding: 175 175 111
Width: 512
Flags: W
LayerCount: 2
Fore
SplineSet
0 608 m 1,0,-1
 0 672 l 1,1,-1
 416 672 l 1,2,-1
 416 608 l 1,3,-1
 0 608 l 1,0,-1
EndSplineSet
EndChar

StartChar: degree
Encoding: 176 176 112
Width: 288
Flags: W
LayerCount: 2
Fore
SplineSet
128 544 m 1,0,-1
 128 608 l 1,1,-1
 64 608 l 1,2,-1
 64 544 l 1,3,-1
 128 544 l 1,0,-1
64 480 m 1,4,-1
 64 512 l 1,5,-1
 32 512 l 1,6,-1
 32 544 l 1,7,-1
 0 544 l 1,8,-1
 0 608 l 1,9,-1
 32 608 l 1,10,-1
 32 640 l 1,11,-1
 64 640 l 1,12,-1
 64 672 l 1,13,-1
 128 672 l 1,14,-1
 128 640 l 1,15,-1
 160 640 l 1,16,-1
 160 608 l 1,17,-1
 192 608 l 1,18,-1
 192 544 l 1,19,-1
 160 544 l 1,20,-1
 160 512 l 1,21,-1
 128 512 l 1,22,-1
 128 480 l 1,23,-1
 64 480 l 1,4,-1
EndSplineSet
EndChar

StartChar: plusminus
Encoding: 177 177 113
Width: 576
Flags: W
LayerCount: 2
Fore
SplineSet
0 0 m 1,0,-1
 0 96 l 1,1,-1
 480 96 l 1,2,-1
 480 0 l 1,3,-1
 0 0 l 1,0,-1
192 128 m 1,4,-1
 192 320 l 1,5,-1
 0 320 l 1,6,-1
 0 416 l 1,7,-1
 192 416 l 1,8,-1
 192 608 l 1,9,-1
 288 608 l 1,10,-1
 288 416 l 1,11,-1
 480 416 l 1,12,-1
 480 320 l 1,13,-1
 288 320 l 1,14,-1
 288 128 l 1,15,-1
 192 128 l 1,4,-1
EndSplineSet
EndChar

StartChar: uni00B2
Encoding: 178 178 114
Width: 320
Flags: W
LayerCount: 2
Fore
SplineSet
0 448 m 1,0,-1
 0 512 l 1,1,-1
 32 512 l 1,2,-1
 32 544 l 1,3,-1
 64 544 l 1,4,-1
 64 576 l 1,5,-1
 96 576 l 1,6,-1
 96 640 l 1,7,-1
 32 640 l 1,8,-1
 32 608 l 1,9,-1
 0 608 l 1,10,-1
 0 672 l 1,11,-1
 128 672 l 1,12,-1
 128 640 l 1,13,-1
 160 640 l 1,14,-1
 160 576 l 1,15,-1
 128 576 l 1,16,-1
 128 544 l 1,17,-1
 96 544 l 1,18,-1
 96 512 l 1,19,-1
 64 512 l 1,20,-1
 64 480 l 1,21,-1
 128 480 l 1,22,-1
 128 512 l 1,23,-1
 160 512 l 1,24,-1
 160 448 l 1,25,-1
 0 448 l 1,0,-1
EndSplineSet
EndChar

StartChar: uni00B3
Encoding: 179 179 115
Width: 256
Flags: W
LayerCount: 2
Fore
SplineSet
0 480 m 1,0,-1
 0 512 l 1,1,-1
 32 512 l 1,2,-1
 32 480 l 1,3,-1
 0 480 l 1,0,-1
0 608 m 1,4,-1
 0 640 l 1,5,-1
 32 640 l 1,6,-1
 32 608 l 1,7,-1
 0 608 l 1,4,-1
32 448 m 1,8,-1
 32 480 l 1,9,-1
 96 480 l 1,10,-1
 96 544 l 1,11,-1
 64 544 l 1,12,-1
 64 576 l 1,13,-1
 96 576 l 1,14,-1
 96 640 l 1,15,-1
 32 640 l 1,16,-1
 32 672 l 1,17,-1
 128 672 l 1,18,-1
 128 640 l 1,19,-1
 160 640 l 1,20,-1
 160 576 l 1,21,-1
 128 576 l 1,22,-1
 128 544 l 1,23,-1
 160 544 l 1,24,-1
 160 480 l 1,25,-1
 128 480 l 1,26,-1
 128 448 l 1,27,-1
 32 448 l 1,8,-1
EndSplineSet
EndChar

StartChar: acute
Encoding: 180 180 116
Width: 384
Flags: W
LayerCount: 2
Fore
SplineSet
128 576 m 1,0,-1
 128 608 l 1,1,-1
 160 608 l 1,2,-1
 160 640 l 1,3,-1
 192 640 l 1,4,-1
 192 672 l 1,5,-1
 288 672 l 1,6,-1
 288 640 l 1,7,-1
 256 640 l 1,8,-1
 256 608 l 1,9,-1
 224 608 l 1,10,-1
 224 576 l 1,11,-1
 128 576 l 1,0,-1
EndSplineSet
EndChar

StartChar: uni00B5
Encoding: 181 181 117
Width: 480
Flags: W
LayerCount: 2
Fore
SplineSet
0 -192 m 1,0,-1
 0 480 l 1,1,-1
 96 480 l 1,2,-1
 96 128 l 1,3,-1
 128 128 l 1,4,-1
 128 96 l 1,5,-1
 224 96 l 1,6,-1
 224 128 l 1,7,-1
 256 128 l 1,8,-1
 256 160 l 1,9,-1
 288 160 l 1,10,-1
 288 480 l 1,11,-1
 384 480 l 1,12,-1
 384 0 l 1,13,-1
 288 0 l 1,14,-1
 288 64 l 1,15,-1
 256 64 l 1,16,-1
 256 32 l 1,17,-1
 224 32 l 1,18,-1
 224 0 l 1,19,-1
 128 0 l 1,20,-1
 128 32 l 1,21,-1
 96 32 l 1,22,-1
 96 -192 l 1,23,-1
 0 -192 l 1,0,-1
EndSplineSet
EndChar

StartChar: paragraph
Encoding: 182 182 118
Width: 512
Flags: W
LayerCount: 2
Fore
SplineSet
192 -160 m 1,0,-1
 192 288 l 1,1,-1
 128 288 l 1,2,-1
 128 320 l 1,3,-1
 64 320 l 1,4,-1
 64 352 l 1,5,-1
 32 352 l 1,6,-1
 32 384 l 1,7,-1
 0 384 l 1,8,-1
 0 576 l 1,9,-1
 32 576 l 1,10,-1
 32 608 l 1,11,-1
 64 608 l 1,12,-1
 64 640 l 1,13,-1
 128 640 l 1,14,-1
 128 672 l 1,15,-1
 416 672 l 1,16,-1
 416 -160 l 1,17,-1
 352 -160 l 1,18,-1
 352 640 l 1,19,-1
 256 640 l 1,20,-1
 256 -160 l 1,21,-1
 192 -160 l 1,0,-1
EndSplineSet
EndChar

StartChar: periodcentered
Encoding: 183 183 119
Width: 192
Flags: W
LayerCount: 2
Fore
SplineSet
0 448 m 1,0,-1
 0 544 l 1,1,-1
 96 544 l 1,2,-1
 96 448 l 1,3,-1
 0 448 l 1,0,-1
EndSplineSet
EndChar

StartChar: cedilla
Encoding: 184 184 120
Width: 288
Flags: W
LayerCount: 2
Fore
SplineSet
32 -192 m 1,0,-1
 32 -160 l 1,1,-1
 0 -160 l 1,2,-1
 0 -96 l 1,3,-1
 32 -96 l 1,4,-1
 32 -128 l 1,5,-1
 96 -128 l 1,6,-1
 96 -64 l 1,7,-1
 32 -64 l 1,8,-1
 32 0 l 1,9,-1
 64 0 l 1,10,-1
 64 -32 l 1,11,-1
 160 -32 l 1,12,-1
 160 -64 l 1,13,-1
 192 -64 l 1,14,-1
 192 -160 l 1,15,-1
 160 -160 l 1,16,-1
 160 -192 l 1,17,-1
 32 -192 l 1,0,-1
EndSplineSet
EndChar

StartChar: uni00B9
Encoding: 185 185 121
Width: 224
Flags: W
LayerCount: 2
Fore
SplineSet
0 576 m 1,0,-1
 0 608 l 1,1,-1
 32 608 l 1,2,-1
 32 576 l 1,3,-1
 0 576 l 1,0,-1
64 480 m 1,4,-1
 64 608 l 1,5,-1
 32 608 l 1,6,-1
 32 640 l 1,7,-1
 64 640 l 1,8,-1
 64 672 l 1,9,-1
 128 672 l 1,10,-1
 128 480 l 1,11,-1
 64 480 l 1,4,-1
EndSplineSet
EndChar

StartChar: ordmasculine
Encoding: 186 186 122
Width: 384
Flags: W
LayerCount: 2
Fore
SplineSet
0 128 m 1,0,-1
 0 192 l 1,1,-1
 288 192 l 1,2,-1
 288 128 l 1,3,-1
 0 128 l 1,0,-1
192 288 m 1,4,-1
 192 320 l 1,5,-1
 224 320 l 1,6,-1
 224 480 l 1,7,-1
 192 480 l 1,8,-1
 192 512 l 1,9,-1
 96 512 l 1,10,-1
 96 480 l 1,11,-1
 64 480 l 1,12,-1
 64 320 l 1,13,-1
 96 320 l 1,14,-1
 96 288 l 1,15,-1
 192 288 l 1,4,-1
64 224 m 1,16,-1
 64 256 l 1,17,-1
 32 256 l 1,18,-1
 32 288 l 1,19,-1
 0 288 l 1,20,-1
 0 512 l 1,21,-1
 32 512 l 1,22,-1
 32 544 l 1,23,-1
 64 544 l 1,24,-1
 64 576 l 1,25,-1
 224 576 l 1,26,-1
 224 544 l 1,27,-1
 256 544 l 1,28,-1
 256 512 l 1,29,-1
 288 512 l 1,30,-1
 288 288 l 1,31,-1
 256 288 l 1,32,-1
 256 256 l 1,33,-1
 224 256 l 1,34,-1
 224 224 l 1,35,-1
 64 224 l 1,16,-1
EndSplineSet
EndChar

StartChar: guillemotright
Encoding: 187 187 123
Width: 576
Flags: W
LayerCount: 2
Fore
SplineSet
32 64 m 1,0,-1
 32 96 l 1,1,-1
 0 96 l 1,2,-1
 0 128 l 1,3,-1
 32 128 l 1,4,-1
 32 160 l 1,5,-1
 64 160 l 1,6,-1
 64 192 l 1,7,-1
 96 192 l 1,8,-1
 96 224 l 1,9,-1
 128 224 l 1,10,-1
 128 256 l 1,11,-1
 160 256 l 1,12,-1
 160 288 l 1,13,-1
 192 288 l 1,14,-1
 192 320 l 1,15,-1
 160 320 l 1,16,-1
 160 352 l 1,17,-1
 128 352 l 1,18,-1
 128 384 l 1,19,-1
 96 384 l 1,20,-1
 96 416 l 1,21,-1
 64 416 l 1,22,-1
 64 448 l 1,23,-1
 32 448 l 1,24,-1
 32 480 l 1,25,-1
 0 480 l 1,26,-1
 0 512 l 1,27,-1
 32 512 l 1,28,-1
 32 544 l 1,29,-1
 64 544 l 1,30,-1
 64 512 l 1,31,-1
 96 512 l 1,32,-1
 96 480 l 1,33,-1
 128 480 l 1,34,-1
 128 448 l 1,35,-1
 160 448 l 1,36,-1
 160 416 l 1,37,-1
 192 416 l 1,38,-1
 192 384 l 1,39,-1
 224 384 l 1,40,-1
 224 352 l 1,41,-1
 256 352 l 1,42,-1
 256 320 l 1,43,-1
 288 320 l 1,44,-1
 288 288 l 1,45,-1
 256 288 l 1,46,-1
 256 256 l 1,47,-1
 224 256 l 1,48,-1
 224 224 l 1,49,-1
 192 224 l 1,50,-1
 192 192 l 1,51,-1
 160 192 l 1,52,-1
 160 160 l 1,53,-1
 128 160 l 1,54,-1
 128 128 l 1,55,-1
 96 128 l 1,56,-1
 96 96 l 1,57,-1
 64 96 l 1,58,-1
 64 64 l 1,59,-1
 32 64 l 1,0,-1
224 64 m 1,60,-1
 224 96 l 1,61,-1
 192 96 l 1,62,-1
 192 128 l 1,63,-1
 224 128 l 1,64,-1
 224 160 l 1,65,-1
 256 160 l 1,66,-1
 256 192 l 1,67,-1
 288 192 l 1,68,-1
 288 224 l 1,69,-1
 320 224 l 1,70,-1
 320 256 l 1,71,-1
 352 256 l 1,72,-1
 352 288 l 1,73,-1
 384 288 l 1,74,-1
 384 320 l 1,75,-1
 352 320 l 1,76,-1
 352 352 l 1,77,-1
 320 352 l 1,78,-1
 320 384 l 1,79,-1
 288 384 l 1,80,-1
 288 416 l 1,81,-1
 256 416 l 1,82,-1
 256 448 l 1,83,-1
 224 448 l 1,84,-1
 224 480 l 1,85,-1
 192 480 l 1,86,-1
 192 512 l 1,87,-1
 224 512 l 1,88,-1
 224 544 l 1,89,-1
 256 544 l 1,90,-1
 256 512 l 1,91,-1
 288 512 l 1,92,-1
 288 480 l 1,93,-1
 320 480 l 1,94,-1
 320 448 l 1,95,-1
 352 448 l 1,96,-1
 352 416 l 1,97,-1
 384 416 l 1,98,-1
 384 384 l 1,99,-1
 416 384 l 1,100,-1
 416 352 l 1,101,-1
 448 352 l 1,102,-1
 448 320 l 1,103,-1
 480 320 l 1,104,-1
 480 288 l 1,105,-1
 448 288 l 1,106,-1
 448 256 l 1,107,-1
 416 256 l 1,108,-1
 416 224 l 1,109,-1
 384 224 l 1,110,-1
 384 192 l 1,111,-1
 352 192 l 1,112,-1
 352 160 l 1,113,-1
 320 160 l 1,114,-1
 320 128 l 1,115,-1
 288 128 l 1,116,-1
 288 96 l 1,117,-1
 256 96 l 1,118,-1
 256 64 l 1,119,-1
 224 64 l 1,60,-1
EndSplineSet
EndChar

StartChar: onequarter
Encoding: 188 188 124
Width: 736
Flags: W
LayerCount: 2
Fore
SplineSet
544 128 m 1,0,-1
 544 224 l 1,1,-1
 512 224 l 1,2,-1
 512 192 l 1,3,-1
 480 192 l 1,4,-1
 480 160 l 1,5,-1
 448 160 l 1,6,-1
 448 128 l 1,7,-1
 544 128 l 1,0,-1
544 0 m 1,8,-1
 544 64 l 1,9,-1
 384 64 l 1,10,-1
 384 160 l 1,11,-1
 416 160 l 1,12,-1
 416 192 l 1,13,-1
 448 192 l 1,14,-1
 448 224 l 1,15,-1
 480 224 l 1,16,-1
 480 256 l 1,17,-1
 512 256 l 1,18,-1
 512 288 l 1,19,-1
 544 288 l 1,20,-1
 544 320 l 1,21,-1
 608 320 l 1,22,-1
 608 128 l 1,23,-1
 640 128 l 1,24,-1
 640 64 l 1,25,-1
 608 64 l 1,26,-1
 608 0 l 1,27,-1
 544 0 l 1,8,-1
64 320 m 1,28,-1
 64 480 l 1,29,-1
 0 480 l 1,30,-1
 0 512 l 1,31,-1
 32 512 l 1,32,-1
 32 544 l 1,33,-1
 64 544 l 1,34,-1
 64 576 l 1,35,-1
 128 576 l 1,36,-1
 128 320 l 1,37,-1
 64 320 l 1,28,-1
0 0 m 1,38,-1
 0 32 l 1,39,-1
 32 32 l 1,40,-1
 32 64 l 1,41,-1
 64 64 l 1,42,-1
 64 96 l 1,43,-1
 96 96 l 1,44,-1
 96 128 l 1,45,-1
 128 128 l 1,46,-1
 128 160 l 1,47,-1
 160 160 l 1,48,-1
 160 192 l 1,49,-1
 192 192 l 1,50,-1
 192 224 l 1,51,-1
 224 224 l 1,52,-1
 224 256 l 1,53,-1
 256 256 l 1,54,-1
 256 288 l 1,55,-1
 288 288 l 1,56,-1
 288 320 l 1,57,-1
 320 320 l 1,58,-1
 320 352 l 1,59,-1
 352 352 l 1,60,-1
 352 384 l 1,61,-1
 384 384 l 1,62,-1
 384 416 l 1,63,-1
 416 416 l 1,64,-1
 416 448 l 1,65,-1
 448 448 l 1,66,-1
 448 480 l 1,67,-1
 480 480 l 1,68,-1
 480 512 l 1,69,-1
 512 512 l 1,70,-1
 512 544 l 1,71,-1
 544 544 l 1,72,-1
 544 576 l 1,73,-1
 608 576 l 1,74,-1
 608 544 l 1,75,-1
 576 544 l 1,76,-1
 576 512 l 1,77,-1
 544 512 l 1,78,-1
 544 480 l 1,79,-1
 512 480 l 1,80,-1
 512 448 l 1,81,-1
 480 448 l 1,82,-1
 480 416 l 1,83,-1
 448 416 l 1,84,-1
 448 384 l 1,85,-1
 416 384 l 1,86,-1
 416 352 l 1,87,-1
 384 352 l 1,88,-1
 384 320 l 1,89,-1
 352 320 l 1,90,-1
 352 288 l 1,91,-1
 320 288 l 1,92,-1
 320 256 l 1,93,-1
 288 256 l 1,94,-1
 288 224 l 1,95,-1
 256 224 l 1,96,-1
 256 192 l 1,97,-1
 224 192 l 1,98,-1
 224 160 l 1,99,-1
 192 160 l 1,100,-1
 192 128 l 1,101,-1
 160 128 l 1,102,-1
 160 96 l 1,103,-1
 128 96 l 1,104,-1
 128 64 l 1,105,-1
 96 64 l 1,106,-1
 96 32 l 1,107,-1
 64 32 l 1,108,-1
 64 0 l 1,109,-1
 0 0 l 1,38,-1
EndSplineSet
EndChar

StartChar: onehalf
Encoding: 189 189 125
Width: 768
Flags: W
LayerCount: 2
Fore
SplineSet
448 0 m 1,0,-1
 448 64 l 1,1,-1
 480 64 l 1,2,-1
 480 96 l 1,3,-1
 512 96 l 1,4,-1
 512 128 l 1,5,-1
 544 128 l 1,6,-1
 544 160 l 1,7,-1
 576 160 l 1,8,-1
 576 192 l 1,9,-1
 608 192 l 1,10,-1
 608 256 l 1,11,-1
 512 256 l 1,12,-1
 512 224 l 1,13,-1
 448 224 l 1,14,-1
 448 256 l 1,15,-1
 480 256 l 1,16,-1
 480 288 l 1,17,-1
 512 288 l 1,18,-1
 512 320 l 1,19,-1
 640 320 l 1,20,-1
 640 288 l 1,21,-1
 672 288 l 1,22,-1
 672 192 l 1,23,-1
 640 192 l 1,24,-1
 640 160 l 1,25,-1
 608 160 l 1,26,-1
 608 128 l 1,27,-1
 576 128 l 1,28,-1
 576 96 l 1,29,-1
 544 96 l 1,30,-1
 544 64 l 1,31,-1
 672 64 l 1,32,-1
 672 0 l 1,33,-1
 448 0 l 1,0,-1
64 320 m 1,34,-1
 64 480 l 1,35,-1
 0 480 l 1,36,-1
 0 512 l 1,37,-1
 32 512 l 1,38,-1
 32 544 l 1,39,-1
 64 544 l 1,40,-1
 64 576 l 1,41,-1
 128 576 l 1,42,-1
 128 320 l 1,43,-1
 64 320 l 1,34,-1
0 0 m 1,44,-1
 0 32 l 1,45,-1
 32 32 l 1,46,-1
 32 64 l 1,47,-1
 64 64 l 1,48,-1
 64 96 l 1,49,-1
 96 96 l 1,50,-1
 96 128 l 1,51,-1
 128 128 l 1,52,-1
 128 160 l 1,53,-1
 160 160 l 1,54,-1
 160 192 l 1,55,-1
 192 192 l 1,56,-1
 192 224 l 1,57,-1
 224 224 l 1,58,-1
 224 256 l 1,59,-1
 256 256 l 1,60,-1
 256 288 l 1,61,-1
 288 288 l 1,62,-1
 288 320 l 1,63,-1
 320 320 l 1,64,-1
 320 352 l 1,65,-1
 352 352 l 1,66,-1
 352 384 l 1,67,-1
 384 384 l 1,68,-1
 384 416 l 1,69,-1
 416 416 l 1,70,-1
 416 448 l 1,71,-1
 448 448 l 1,72,-1
 448 480 l 1,73,-1
 480 480 l 1,74,-1
 480 512 l 1,75,-1
 512 512 l 1,76,-1
 512 544 l 1,77,-1
 544 544 l 1,78,-1
 544 576 l 1,79,-1
 608 576 l 1,80,-1
 608 544 l 1,81,-1
 576 544 l 1,82,-1
 576 512 l 1,83,-1
 544 512 l 1,84,-1
 544 480 l 1,85,-1
 512 480 l 1,86,-1
 512 448 l 1,87,-1
 480 448 l 1,88,-1
 480 416 l 1,89,-1
 448 416 l 1,90,-1
 448 384 l 1,91,-1
 416 384 l 1,92,-1
 416 352 l 1,93,-1
 384 352 l 1,94,-1
 384 320 l 1,95,-1
 352 320 l 1,96,-1
 352 288 l 1,97,-1
 320 288 l 1,98,-1
 320 256 l 1,99,-1
 288 256 l 1,100,-1
 288 224 l 1,101,-1
 256 224 l 1,102,-1
 256 192 l 1,103,-1
 224 192 l 1,104,-1
 224 160 l 1,105,-1
 192 160 l 1,106,-1
 192 128 l 1,107,-1
 160 128 l 1,108,-1
 160 96 l 1,109,-1
 128 96 l 1,110,-1
 128 64 l 1,111,-1
 96 64 l 1,112,-1
 96 32 l 1,113,-1
 64 32 l 1,114,-1
 64 0 l 1,115,-1
 0 0 l 1,44,-1
EndSplineSet
EndChar

StartChar: threequarters
Encoding: 190 190 126
Width: 736
Flags: W
LayerCount: 2
Fore
SplineSet
544 128 m 1,0,-1
 544 224 l 1,1,-1
 512 224 l 1,2,-1
 512 192 l 1,3,-1
 480 192 l 1,4,-1
 480 160 l 1,5,-1
 448 160 l 1,6,-1
 448 128 l 1,7,-1
 544 128 l 1,0,-1
544 0 m 1,8,-1
 544 64 l 1,9,-1
 384 64 l 1,10,-1
 384 160 l 1,11,-1
 416 160 l 1,12,-1
 416 192 l 1,13,-1
 448 192 l 1,14,-1
 448 224 l 1,15,-1
 480 224 l 1,16,-1
 480 256 l 1,17,-1
 512 256 l 1,18,-1
 512 288 l 1,19,-1
 544 288 l 1,20,-1
 544 320 l 1,21,-1
 608 320 l 1,22,-1
 608 128 l 1,23,-1
 640 128 l 1,24,-1
 640 64 l 1,25,-1
 608 64 l 1,26,-1
 608 0 l 1,27,-1
 544 0 l 1,8,-1
32 288 m 1,28,-1
 32 320 l 1,29,-1
 0 320 l 1,30,-1
 0 384 l 1,31,-1
 64 384 l 1,32,-1
 64 320 l 1,33,-1
 128 320 l 1,34,-1
 128 416 l 1,35,-1
 64 416 l 1,36,-1
 64 448 l 1,37,-1
 128 448 l 1,38,-1
 128 544 l 1,39,-1
 64 544 l 1,40,-1
 64 480 l 1,41,-1
 0 480 l 1,42,-1
 0 544 l 1,43,-1
 32 544 l 1,44,-1
 32 576 l 1,45,-1
 160 576 l 1,46,-1
 160 544 l 1,47,-1
 192 544 l 1,48,-1
 192 448 l 1,49,-1
 160 448 l 1,50,-1
 160 416 l 1,51,-1
 192 416 l 1,52,-1
 192 320 l 1,53,-1
 160 320 l 1,54,-1
 160 288 l 1,55,-1
 32 288 l 1,28,-1
0 0 m 1,56,-1
 0 32 l 1,57,-1
 32 32 l 1,58,-1
 32 64 l 1,59,-1
 64 64 l 1,60,-1
 64 96 l 1,61,-1
 96 96 l 1,62,-1
 96 128 l 1,63,-1
 128 128 l 1,64,-1
 128 160 l 1,65,-1
 160 160 l 1,66,-1
 160 192 l 1,67,-1
 192 192 l 1,68,-1
 192 224 l 1,69,-1
 224 224 l 1,70,-1
 224 256 l 1,71,-1
 256 256 l 1,72,-1
 256 288 l 1,73,-1
 288 288 l 1,74,-1
 288 320 l 1,75,-1
 320 320 l 1,76,-1
 320 352 l 1,77,-1
 352 352 l 1,78,-1
 352 384 l 1,79,-1
 384 384 l 1,80,-1
 384 416 l 1,81,-1
 416 416 l 1,82,-1
 416 448 l 1,83,-1
 448 448 l 1,84,-1
 448 480 l 1,85,-1
 480 480 l 1,86,-1
 480 512 l 1,87,-1
 512 512 l 1,88,-1
 512 544 l 1,89,-1
 544 544 l 1,90,-1
 544 576 l 1,91,-1
 608 576 l 1,92,-1
 608 544 l 1,93,-1
 576 544 l 1,94,-1
 576 512 l 1,95,-1
 544 512 l 1,96,-1
 544 480 l 1,97,-1
 512 480 l 1,98,-1
 512 448 l 1,99,-1
 480 448 l 1,100,-1
 480 416 l 1,101,-1
 448 416 l 1,102,-1
 448 384 l 1,103,-1
 416 384 l 1,104,-1
 416 352 l 1,105,-1
 384 352 l 1,106,-1
 384 320 l 1,107,-1
 352 320 l 1,108,-1
 352 288 l 1,109,-1
 320 288 l 1,110,-1
 320 256 l 1,111,-1
 288 256 l 1,112,-1
 288 224 l 1,113,-1
 256 224 l 1,114,-1
 256 192 l 1,115,-1
 224 192 l 1,116,-1
 224 160 l 1,117,-1
 192 160 l 1,118,-1
 192 128 l 1,119,-1
 160 128 l 1,120,-1
 160 96 l 1,121,-1
 128 96 l 1,122,-1
 128 64 l 1,123,-1
 96 64 l 1,124,-1
 96 32 l 1,125,-1
 64 32 l 1,126,-1
 64 0 l 1,127,-1
 0 0 l 1,56,-1
EndSplineSet
EndChar

StartChar: questiondown
Encoding: 191 191 127
Width: 544
Flags: W
LayerCount: 2
Fore
SplineSet
128 0 m 1,0,-1
 128 32 l 1,1,-1
 64 32 l 1,2,-1
 64 64 l 1,3,-1
 32 64 l 1,4,-1
 32 96 l 1,5,-1
 0 96 l 1,6,-1
 0 256 l 1,7,-1
 32 256 l 1,8,-1
 32 288 l 1,9,-1
 64 288 l 1,10,-1
 64 320 l 1,11,-1
 96 320 l 1,12,-1
 96 352 l 1,13,-1
 128 352 l 1,14,-1
 128 384 l 1,15,-1
 160 384 l 1,16,-1
 160 448 l 1,17,-1
 256 448 l 1,18,-1
 256 352 l 1,19,-1
 224 352 l 1,20,-1
 224 320 l 1,21,-1
 192 320 l 1,22,-1
 192 288 l 1,23,-1
 160 288 l 1,24,-1
 160 256 l 1,25,-1
 128 256 l 1,26,-1
 128 224 l 1,27,-1
 96 224 l 1,28,-1
 96 128 l 1,29,-1
 128 128 l 1,30,-1
 128 96 l 1,31,-1
 288 96 l 1,32,-1
 288 128 l 1,33,-1
 320 128 l 1,34,-1
 320 160 l 1,35,-1
 352 160 l 1,36,-1
 352 224 l 1,37,-1
 448 224 l 1,38,-1
 448 160 l 1,39,-1
 416 160 l 1,40,-1
 416 96 l 1,41,-1
 384 96 l 1,42,-1
 384 64 l 1,43,-1
 352 64 l 1,44,-1
 352 32 l 1,45,-1
 320 32 l 1,46,-1
 320 0 l 1,47,-1
 128 0 l 1,0,-1
160 544 m 1,48,-1
 160 640 l 1,49,-1
 256 640 l 1,50,-1
 256 544 l 1,51,-1
 160 544 l 1,48,-1
EndSplineSet
EndChar

StartChar: Agrave
Encoding: 192 192 128
Width: 672
Flags: W
LayerCount: 2
Fore
SplineSet
416 288 m 1,0,-1
 416 320 l 1,1,-1
 384 320 l 1,2,-1
 384 384 l 1,3,-1
 352 384 l 1,4,-1
 352 448 l 1,5,-1
 320 448 l 1,6,-1
 320 512 l 1,7,-1
 288 512 l 1,8,-1
 288 448 l 1,9,-1
 256 448 l 1,10,-1
 256 384 l 1,11,-1
 224 384 l 1,12,-1
 224 320 l 1,13,-1
 192 320 l 1,14,-1
 192 288 l 1,15,-1
 416 288 l 1,0,-1
0 0 m 1,16,-1
 0 96 l 1,17,-1
 32 96 l 1,18,-1
 32 160 l 1,19,-1
 64 160 l 1,20,-1
 64 256 l 1,21,-1
 96 256 l 1,22,-1
 96 320 l 1,23,-1
 128 320 l 1,24,-1
 128 384 l 1,25,-1
 160 384 l 1,26,-1
 160 448 l 1,27,-1
 192 448 l 1,28,-1
 192 512 l 1,29,-1
 224 512 l 1,30,-1
 224 576 l 1,31,-1
 256 576 l 1,32,-1
 256 640 l 1,33,-1
 352 640 l 1,34,-1
 352 576 l 1,35,-1
 384 576 l 1,36,-1
 384 512 l 1,37,-1
 416 512 l 1,38,-1
 416 448 l 1,39,-1
 448 448 l 1,40,-1
 448 384 l 1,41,-1
 480 384 l 1,42,-1
 480 320 l 1,43,-1
 512 320 l 1,44,-1
 512 256 l 1,45,-1
 544 256 l 1,46,-1
 544 160 l 1,47,-1
 576 160 l 1,48,-1
 576 96 l 1,49,-1
 608 96 l 1,50,-1
 608 0 l 1,51,-1
 512 0 l 1,52,-1
 512 64 l 1,53,-1
 480 64 l 1,54,-1
 480 128 l 1,55,-1
 448 128 l 1,56,-1
 448 192 l 1,57,-1
 160 192 l 1,58,-1
 160 128 l 1,59,-1
 128 128 l 1,60,-1
 128 64 l 1,61,-1
 96 64 l 1,62,-1
 96 0 l 1,63,-1
 0 0 l 1,16,-1
256 704 m 1,64,-1
 256 736 l 1,65,-1
 224 736 l 1,66,-1
 224 768 l 1,67,-1
 192 768 l 1,68,-1
 192 800 l 1,69,-1
 288 800 l 1,70,-1
 288 768 l 1,71,-1
 320 768 l 1,72,-1
 320 736 l 1,73,-1
 352 736 l 1,74,-1
 352 704 l 1,75,-1
 256 704 l 1,64,-1
EndSplineSet
EndChar

StartChar: Aacute
Encoding: 193 193 129
Width: 704
Flags: W
LayerCount: 2
Fore
SplineSet
416 288 m 1,0,-1
 416 320 l 1,1,-1
 384 320 l 1,2,-1
 384 384 l 1,3,-1
 352 384 l 1,4,-1
 352 448 l 1,5,-1
 320 448 l 1,6,-1
 320 512 l 1,7,-1
 288 512 l 1,8,-1
 288 448 l 1,9,-1
 256 448 l 1,10,-1
 256 384 l 1,11,-1
 224 384 l 1,12,-1
 224 320 l 1,13,-1
 192 320 l 1,14,-1
 192 288 l 1,15,-1
 416 288 l 1,0,-1
0 0 m 1,16,-1
 0 96 l 1,17,-1
 32 96 l 1,18,-1
 32 160 l 1,19,-1
 64 160 l 1,20,-1
 64 256 l 1,21,-1
 96 256 l 1,22,-1
 96 320 l 1,23,-1
 128 320 l 1,24,-1
 128 384 l 1,25,-1
 160 384 l 1,26,-1
 160 448 l 1,27,-1
 192 448 l 1,28,-1
 192 512 l 1,29,-1
 224 512 l 1,30,-1
 224 576 l 1,31,-1
 256 576 l 1,32,-1
 256 640 l 1,33,-1
 352 640 l 1,34,-1
 352 576 l 1,35,-1
 384 576 l 1,36,-1
 384 512 l 1,37,-1
 416 512 l 1,38,-1
 416 448 l 1,39,-1
 448 448 l 1,40,-1
 448 384 l 1,41,-1
 480 384 l 1,42,-1
 480 320 l 1,43,-1
 512 320 l 1,44,-1
 512 256 l 1,45,-1
 544 256 l 1,46,-1
 544 160 l 1,47,-1
 576 160 l 1,48,-1
 576 96 l 1,49,-1
 608 96 l 1,50,-1
 608 0 l 1,51,-1
 512 0 l 1,52,-1
 512 64 l 1,53,-1
 480 64 l 1,54,-1
 480 128 l 1,55,-1
 448 128 l 1,56,-1
 448 192 l 1,57,-1
 160 192 l 1,58,-1
 160 128 l 1,59,-1
 128 128 l 1,60,-1
 128 64 l 1,61,-1
 96 64 l 1,62,-1
 96 0 l 1,63,-1
 0 0 l 1,16,-1
256 704 m 1,64,-1
 256 736 l 1,65,-1
 288 736 l 1,66,-1
 288 768 l 1,67,-1
 320 768 l 1,68,-1
 320 800 l 1,69,-1
 416 800 l 1,70,-1
 416 768 l 1,71,-1
 384 768 l 1,72,-1
 384 736 l 1,73,-1
 352 736 l 1,74,-1
 352 704 l 1,75,-1
 256 704 l 1,64,-1
EndSplineSet
EndChar

StartChar: Acircumflex
Encoding: 194 194 130
Width: 704
Flags: W
LayerCount: 2
Fore
SplineSet
416 288 m 1,0,-1
 416 320 l 1,1,-1
 384 320 l 1,2,-1
 384 384 l 1,3,-1
 352 384 l 1,4,-1
 352 448 l 1,5,-1
 320 448 l 1,6,-1
 320 512 l 1,7,-1
 288 512 l 1,8,-1
 288 448 l 1,9,-1
 256 448 l 1,10,-1
 256 384 l 1,11,-1
 224 384 l 1,12,-1
 224 320 l 1,13,-1
 192 320 l 1,14,-1
 192 288 l 1,15,-1
 416 288 l 1,0,-1
0 0 m 1,16,-1
 0 96 l 1,17,-1
 32 96 l 1,18,-1
 32 160 l 1,19,-1
 64 160 l 1,20,-1
 64 256 l 1,21,-1
 96 256 l 1,22,-1
 96 320 l 1,23,-1
 128 320 l 1,24,-1
 128 384 l 1,25,-1
 160 384 l 1,26,-1
 160 448 l 1,27,-1
 192 448 l 1,28,-1
 192 512 l 1,29,-1
 224 512 l 1,30,-1
 224 576 l 1,31,-1
 256 576 l 1,32,-1
 256 640 l 1,33,-1
 352 640 l 1,34,-1
 352 576 l 1,35,-1
 384 576 l 1,36,-1
 384 512 l 1,37,-1
 416 512 l 1,38,-1
 416 448 l 1,39,-1
 448 448 l 1,40,-1
 448 384 l 1,41,-1
 480 384 l 1,42,-1
 480 320 l 1,43,-1
 512 320 l 1,44,-1
 512 256 l 1,45,-1
 544 256 l 1,46,-1
 544 160 l 1,47,-1
 576 160 l 1,48,-1
 576 96 l 1,49,-1
 608 96 l 1,50,-1
 608 0 l 1,51,-1
 512 0 l 1,52,-1
 512 64 l 1,53,-1
 480 64 l 1,54,-1
 480 128 l 1,55,-1
 448 128 l 1,56,-1
 448 192 l 1,57,-1
 160 192 l 1,58,-1
 160 128 l 1,59,-1
 128 128 l 1,60,-1
 128 64 l 1,61,-1
 96 64 l 1,62,-1
 96 0 l 1,63,-1
 0 0 l 1,16,-1
128 640 m 1,64,-1
 128 672 l 1,65,-1
 160 672 l 1,66,-1
 160 704 l 1,67,-1
 192 704 l 1,68,-1
 192 736 l 1,69,-1
 224 736 l 1,70,-1
 224 768 l 1,71,-1
 256 768 l 1,72,-1
 256 800 l 1,73,-1
 352 800 l 1,74,-1
 352 768 l 1,75,-1
 384 768 l 1,76,-1
 384 736 l 1,77,-1
 416 736 l 1,78,-1
 416 704 l 1,79,-1
 448 704 l 1,80,-1
 448 672 l 1,81,-1
 480 672 l 1,82,-1
 480 640 l 1,83,-1
 416 640 l 1,84,-1
 416 672 l 1,85,-1
 352 672 l 1,86,-1
 352 704 l 1,87,-1
 320 704 l 1,88,-1
 320 736 l 1,89,-1
 288 736 l 1,90,-1
 288 704 l 1,91,-1
 256 704 l 1,92,-1
 256 672 l 1,93,-1
 192 672 l 1,94,-1
 192 640 l 1,95,-1
 128 640 l 1,64,-1
EndSplineSet
EndChar

StartChar: Atilde
Encoding: 195 195 131
Width: 704
Flags: W
LayerCount: 2
Fore
SplineSet
416 288 m 1,0,-1
 416 320 l 1,1,-1
 384 320 l 1,2,-1
 384 384 l 1,3,-1
 352 384 l 1,4,-1
 352 448 l 1,5,-1
 320 448 l 1,6,-1
 320 512 l 1,7,-1
 288 512 l 1,8,-1
 288 448 l 1,9,-1
 256 448 l 1,10,-1
 256 384 l 1,11,-1
 224 384 l 1,12,-1
 224 320 l 1,13,-1
 192 320 l 1,14,-1
 192 288 l 1,15,-1
 416 288 l 1,0,-1
0 0 m 1,16,-1
 0 96 l 1,17,-1
 32 96 l 1,18,-1
 32 160 l 1,19,-1
 64 160 l 1,20,-1
 64 256 l 1,21,-1
 96 256 l 1,22,-1
 96 320 l 1,23,-1
 128 320 l 1,24,-1
 128 384 l 1,25,-1
 160 384 l 1,26,-1
 160 448 l 1,27,-1
 192 448 l 1,28,-1
 192 512 l 1,29,-1
 224 512 l 1,30,-1
 224 576 l 1,31,-1
 256 576 l 1,32,-1
 256 640 l 1,33,-1
 352 640 l 1,34,-1
 352 576 l 1,35,-1
 384 576 l 1,36,-1
 384 512 l 1,37,-1
 416 512 l 1,38,-1
 416 448 l 1,39,-1
 448 448 l 1,40,-1
 448 384 l 1,41,-1
 480 384 l 1,42,-1
 480 320 l 1,43,-1
 512 320 l 1,44,-1
 512 256 l 1,45,-1
 544 256 l 1,46,-1
 544 160 l 1,47,-1
 576 160 l 1,48,-1
 576 96 l 1,49,-1
 608 96 l 1,50,-1
 608 0 l 1,51,-1
 512 0 l 1,52,-1
 512 64 l 1,53,-1
 480 64 l 1,54,-1
 480 128 l 1,55,-1
 448 128 l 1,56,-1
 448 192 l 1,57,-1
 160 192 l 1,58,-1
 160 128 l 1,59,-1
 128 128 l 1,60,-1
 128 64 l 1,61,-1
 96 64 l 1,62,-1
 96 0 l 1,63,-1
 0 0 l 1,16,-1
320 672 m 1,64,-1
 320 704 l 1,65,-1
 288 704 l 1,66,-1
 288 736 l 1,67,-1
 256 736 l 1,68,-1
 256 768 l 1,69,-1
 192 768 l 1,70,-1
 192 736 l 1,71,-1
 160 736 l 1,72,-1
 160 704 l 1,73,-1
 128 704 l 1,74,-1
 128 768 l 1,75,-1
 160 768 l 1,76,-1
 160 800 l 1,77,-1
 192 800 l 1,78,-1
 192 832 l 1,79,-1
 288 832 l 1,80,-1
 288 800 l 1,81,-1
 320 800 l 1,82,-1
 320 768 l 1,83,-1
 352 768 l 1,84,-1
 352 736 l 1,85,-1
 416 736 l 1,86,-1
 416 768 l 1,87,-1
 448 768 l 1,88,-1
 448 800 l 1,89,-1
 480 800 l 1,90,-1
 480 736 l 1,91,-1
 448 736 l 1,92,-1
 448 704 l 1,93,-1
 416 704 l 1,94,-1
 416 672 l 1,95,-1
 320 672 l 1,64,-1
EndSplineSet
EndChar

StartChar: Adieresis
Encoding: 196 196 132
Width: 704
Flags: W
LayerCount: 2
Fore
SplineSet
416 288 m 1,0,-1
 416 320 l 1,1,-1
 384 320 l 1,2,-1
 384 384 l 1,3,-1
 352 384 l 1,4,-1
 352 448 l 1,5,-1
 320 448 l 1,6,-1
 320 512 l 1,7,-1
 288 512 l 1,8,-1
 288 448 l 1,9,-1
 256 448 l 1,10,-1
 256 384 l 1,11,-1
 224 384 l 1,12,-1
 224 320 l 1,13,-1
 192 320 l 1,14,-1
 192 288 l 1,15,-1
 416 288 l 1,0,-1
0 0 m 1,16,-1
 0 96 l 1,17,-1
 32 96 l 1,18,-1
 32 160 l 1,19,-1
 64 160 l 1,20,-1
 64 256 l 1,21,-1
 96 256 l 1,22,-1
 96 320 l 1,23,-1
 128 320 l 1,24,-1
 128 384 l 1,25,-1
 160 384 l 1,26,-1
 160 448 l 1,27,-1
 192 448 l 1,28,-1
 192 512 l 1,29,-1
 224 512 l 1,30,-1
 224 576 l 1,31,-1
 256 576 l 1,32,-1
 256 640 l 1,33,-1
 352 640 l 1,34,-1
 352 576 l 1,35,-1
 384 576 l 1,36,-1
 384 512 l 1,37,-1
 416 512 l 1,38,-1
 416 448 l 1,39,-1
 448 448 l 1,40,-1
 448 384 l 1,41,-1
 480 384 l 1,42,-1
 480 320 l 1,43,-1
 512 320 l 1,44,-1
 512 256 l 1,45,-1
 544 256 l 1,46,-1
 544 160 l 1,47,-1
 576 160 l 1,48,-1
 576 96 l 1,49,-1
 608 96 l 1,50,-1
 608 0 l 1,51,-1
 512 0 l 1,52,-1
 512 64 l 1,53,-1
 480 64 l 1,54,-1
 480 128 l 1,55,-1
 448 128 l 1,56,-1
 448 192 l 1,57,-1
 160 192 l 1,58,-1
 160 128 l 1,59,-1
 128 128 l 1,60,-1
 128 64 l 1,61,-1
 96 64 l 1,62,-1
 96 0 l 1,63,-1
 0 0 l 1,16,-1
160 704 m 1,64,-1
 160 800 l 1,65,-1
 256 800 l 1,66,-1
 256 704 l 1,67,-1
 160 704 l 1,64,-1
352 704 m 1,68,-1
 352 800 l 1,69,-1
 448 800 l 1,70,-1
 448 704 l 1,71,-1
 352 704 l 1,68,-1
EndSplineSet
EndChar

StartChar: Aring
Encoding: 197 197 133
Width: 704
Flags: W
LayerCount: 2
Fore
SplineSet
416 288 m 1,0,-1
 416 320 l 1,1,-1
 384 320 l 1,2,-1
 384 384 l 1,3,-1
 352 384 l 1,4,-1
 352 448 l 1,5,-1
 320 448 l 1,6,-1
 320 512 l 1,7,-1
 288 512 l 1,8,-1
 288 448 l 1,9,-1
 256 448 l 1,10,-1
 256 384 l 1,11,-1
 224 384 l 1,12,-1
 224 320 l 1,13,-1
 192 320 l 1,14,-1
 192 288 l 1,15,-1
 416 288 l 1,0,-1
320 640 m 1,16,-1
 320 672 l 1,17,-1
 352 672 l 1,18,-1
 352 704 l 1,19,-1
 320 704 l 1,20,-1
 320 736 l 1,21,-1
 288 736 l 1,22,-1
 288 704 l 1,23,-1
 256 704 l 1,24,-1
 256 672 l 1,25,-1
 288 672 l 1,26,-1
 288 640 l 1,27,-1
 320 640 l 1,16,-1
0 0 m 1,28,-1
 0 96 l 1,29,-1
 32 96 l 1,30,-1
 32 160 l 1,31,-1
 64 160 l 1,32,-1
 64 256 l 1,33,-1
 96 256 l 1,34,-1
 96 320 l 1,35,-1
 128 320 l 1,36,-1
 128 384 l 1,37,-1
 160 384 l 1,38,-1
 160 448 l 1,39,-1
 192 448 l 1,40,-1
 192 512 l 1,41,-1
 224 512 l 1,42,-1
 224 576 l 1,43,-1
 256 576 l 1,44,-1
 256 640 l 1,45,-1
 224 640 l 1,46,-1
 224 736 l 1,47,-1
 256 736 l 1,48,-1
 256 768 l 1,49,-1
 352 768 l 1,50,-1
 352 736 l 1,51,-1
 384 736 l 1,52,-1
 384 640 l 1,53,-1
 352 640 l 1,54,-1
 352 576 l 1,55,-1
 384 576 l 1,56,-1
 384 512 l 1,57,-1
 416 512 l 1,58,-1
 416 448 l 1,59,-1
 448 448 l 1,60,-1
 448 384 l 1,61,-1
 480 384 l 1,62,-1
 480 320 l 1,63,-1
 512 320 l 1,64,-1
 512 256 l 1,65,-1
 544 256 l 1,66,-1
 544 160 l 1,67,-1
 576 160 l 1,68,-1
 576 96 l 1,69,-1
 608 96 l 1,70,-1
 608 0 l 1,71,-1
 512 0 l 1,72,-1
 512 64 l 1,73,-1
 480 64 l 1,74,-1
 480 128 l 1,75,-1
 448 128 l 1,76,-1
 448 192 l 1,77,-1
 160 192 l 1,78,-1
 160 128 l 1,79,-1
 128 128 l 1,80,-1
 128 64 l 1,81,-1
 96 64 l 1,82,-1
 96 0 l 1,83,-1
 0 0 l 1,28,-1
EndSplineSet
EndChar

StartChar: AE
Encoding: 198 198 134
Width: 1120
Flags: W
LayerCount: 2
Fore
SplineSet
416 288 m 1,0,-1
 416 320 l 1,1,-1
 384 320 l 1,2,-1
 384 384 l 1,3,-1
 352 384 l 1,4,-1
 352 448 l 1,5,-1
 320 448 l 1,6,-1
 320 480 l 1,7,-1
 288 480 l 1,8,-1
 288 448 l 1,9,-1
 256 448 l 1,10,-1
 256 384 l 1,11,-1
 224 384 l 1,12,-1
 224 320 l 1,13,-1
 192 320 l 1,14,-1
 192 288 l 1,15,-1
 416 288 l 1,0,-1
0 0 m 1,16,-1
 0 96 l 1,17,-1
 32 96 l 1,18,-1
 32 160 l 1,19,-1
 64 160 l 1,20,-1
 64 256 l 1,21,-1
 96 256 l 1,22,-1
 96 320 l 1,23,-1
 128 320 l 1,24,-1
 128 384 l 1,25,-1
 160 384 l 1,26,-1
 160 448 l 1,27,-1
 192 448 l 1,28,-1
 192 512 l 1,29,-1
 224 512 l 1,30,-1
 224 576 l 1,31,-1
 256 576 l 1,32,-1
 256 640 l 1,33,-1
 672 640 l 1,34,-1
 672 544 l 1,35,-1
 384 544 l 1,36,-1
 384 512 l 1,37,-1
 416 512 l 1,38,-1
 416 448 l 1,39,-1
 448 448 l 1,40,-1
 448 384 l 1,41,-1
 768 384 l 1,42,-1
 768 288 l 1,43,-1
 512 288 l 1,44,-1
 512 256 l 1,45,-1
 544 256 l 1,46,-1
 544 160 l 1,47,-1
 576 160 l 1,48,-1
 576 96 l 1,49,-1
 896 96 l 1,50,-1
 896 0 l 1,51,-1
 512 0 l 1,52,-1
 512 64 l 1,53,-1
 480 64 l 1,54,-1
 480 128 l 1,55,-1
 448 128 l 1,56,-1
 448 192 l 1,57,-1
 160 192 l 1,58,-1
 160 128 l 1,59,-1
 128 128 l 1,60,-1
 128 64 l 1,61,-1
 96 64 l 1,62,-1
 96 0 l 1,63,-1
 0 0 l 1,16,-1
EndSplineSet
EndChar

StartChar: Ccedilla
Encoding: 199 199 135
Width: 672
Flags: W
LayerCount: 2
Fore
SplineSet
224 -192 m 1,0,-1
 224 -160 l 1,1,-1
 192 -160 l 1,2,-1
 192 -96 l 1,3,-1
 224 -96 l 1,4,-1
 224 -128 l 1,5,-1
 288 -128 l 1,6,-1
 288 -64 l 1,7,-1
 224 -64 l 1,8,-1
 224 32 l 1,9,-1
 128 32 l 1,10,-1
 128 64 l 1,11,-1
 96 64 l 1,12,-1
 96 96 l 1,13,-1
 64 96 l 1,14,-1
 64 128 l 1,15,-1
 32 128 l 1,16,-1
 32 192 l 1,17,-1
 0 192 l 1,18,-1
 0 448 l 1,19,-1
 32 448 l 1,20,-1
 32 512 l 1,21,-1
 64 512 l 1,22,-1
 64 544 l 1,23,-1
 96 544 l 1,24,-1
 96 576 l 1,25,-1
 128 576 l 1,26,-1
 128 608 l 1,27,-1
 224 608 l 1,28,-1
 224 640 l 1,29,-1
 384 640 l 1,30,-1
 384 608 l 1,31,-1
 480 608 l 1,32,-1
 480 576 l 1,33,-1
 512 576 l 1,34,-1
 512 512 l 1,35,-1
 544 512 l 1,36,-1
 544 480 l 1,37,-1
 576 480 l 1,38,-1
 576 448 l 1,39,-1
 448 448 l 1,40,-1
 448 480 l 1,41,-1
 416 480 l 1,42,-1
 416 512 l 1,43,-1
 352 512 l 1,44,-1
 352 544 l 1,45,-1
 256 544 l 1,46,-1
 256 512 l 1,47,-1
 192 512 l 1,48,-1
 192 480 l 1,49,-1
 160 480 l 1,50,-1
 160 448 l 1,51,-1
 128 448 l 1,52,-1
 128 384 l 1,53,-1
 96 384 l 1,54,-1
 96 256 l 1,55,-1
 128 256 l 1,56,-1
 128 192 l 1,57,-1
 160 192 l 1,58,-1
 160 160 l 1,59,-1
 192 160 l 1,60,-1
 192 128 l 1,61,-1
 256 128 l 1,62,-1
 256 96 l 1,63,-1
 352 96 l 1,64,-1
 352 128 l 1,65,-1
 416 128 l 1,66,-1
 416 160 l 1,67,-1
 448 160 l 1,68,-1
 448 192 l 1,69,-1
 576 192 l 1,70,-1
 576 160 l 1,71,-1
 544 160 l 1,72,-1
 544 128 l 1,73,-1
 512 128 l 1,74,-1
 512 64 l 1,75,-1
 480 64 l 1,76,-1
 480 32 l 1,77,-1
 384 32 l 1,78,-1
 384 0 l 1,79,-1
 256 0 l 1,80,-1
 256 -32 l 1,81,-1
 352 -32 l 1,82,-1
 352 -64 l 1,83,-1
 384 -64 l 1,84,-1
 384 -160 l 1,85,-1
 352 -160 l 1,86,-1
 352 -192 l 1,87,-1
 224 -192 l 1,0,-1
EndSplineSet
EndChar

StartChar: Egrave
Encoding: 200 200 136
Width: 480
Flags: W
LayerCount: 2
Fore
SplineSet
0 0 m 1,0,-1
 0 640 l 1,1,-1
 384 640 l 1,2,-1
 384 544 l 1,3,-1
 96 544 l 1,4,-1
 96 384 l 1,5,-1
 384 384 l 1,6,-1
 384 288 l 1,7,-1
 96 288 l 1,8,-1
 96 96 l 1,9,-1
 384 96 l 1,10,-1
 384 0 l 1,11,-1
 0 0 l 1,0,-1
160 704 m 1,12,-1
 160 736 l 1,13,-1
 128 736 l 1,14,-1
 128 768 l 1,15,-1
 96 768 l 1,16,-1
 96 800 l 1,17,-1
 192 800 l 1,18,-1
 192 768 l 1,19,-1
 224 768 l 1,20,-1
 224 736 l 1,21,-1
 256 736 l 1,22,-1
 256 704 l 1,23,-1
 160 704 l 1,12,-1
EndSplineSet
EndChar

StartChar: Eacute
Encoding: 201 201 137
Width: 480
Flags: W
LayerCount: 2
Fore
SplineSet
0 0 m 1,0,-1
 0 640 l 1,1,-1
 384 640 l 1,2,-1
 384 544 l 1,3,-1
 96 544 l 1,4,-1
 96 384 l 1,5,-1
 384 384 l 1,6,-1
 384 288 l 1,7,-1
 96 288 l 1,8,-1
 96 96 l 1,9,-1
 384 96 l 1,10,-1
 384 0 l 1,11,-1
 0 0 l 1,0,-1
160 704 m 1,12,-1
 160 736 l 1,13,-1
 192 736 l 1,14,-1
 192 768 l 1,15,-1
 224 768 l 1,16,-1
 224 800 l 1,17,-1
 320 800 l 1,18,-1
 320 768 l 1,19,-1
 288 768 l 1,20,-1
 288 736 l 1,21,-1
 256 736 l 1,22,-1
 256 704 l 1,23,-1
 160 704 l 1,12,-1
EndSplineSet
EndChar

StartChar: Ecircumflex
Encoding: 202 202 138
Width: 480
Flags: W
LayerCount: 2
Fore
SplineSet
0 0 m 1,0,-1
 0 640 l 1,1,-1
 384 640 l 1,2,-1
 384 544 l 1,3,-1
 96 544 l 1,4,-1
 96 384 l 1,5,-1
 384 384 l 1,6,-1
 384 288 l 1,7,-1
 96 288 l 1,8,-1
 96 96 l 1,9,-1
 384 96 l 1,10,-1
 384 0 l 1,11,-1
 0 0 l 1,0,-1
32 672 m 1,12,-1
 32 704 l 1,13,-1
 64 704 l 1,14,-1
 64 736 l 1,15,-1
 96 736 l 1,16,-1
 96 768 l 1,17,-1
 128 768 l 1,18,-1
 128 800 l 1,19,-1
 256 800 l 1,20,-1
 256 768 l 1,21,-1
 288 768 l 1,22,-1
 288 736 l 1,23,-1
 320 736 l 1,24,-1
 320 704 l 1,25,-1
 352 704 l 1,26,-1
 352 672 l 1,27,-1
 288 672 l 1,28,-1
 288 704 l 1,29,-1
 224 704 l 1,30,-1
 224 736 l 1,31,-1
 160 736 l 1,32,-1
 160 704 l 1,33,-1
 96 704 l 1,34,-1
 96 672 l 1,35,-1
 32 672 l 1,12,-1
EndSplineSet
EndChar

StartChar: Edieresis
Encoding: 203 203 139
Width: 480
Flags: W
LayerCount: 2
Fore
SplineSet
0 0 m 1,0,-1
 0 640 l 1,1,-1
 384 640 l 1,2,-1
 384 544 l 1,3,-1
 96 544 l 1,4,-1
 96 384 l 1,5,-1
 384 384 l 1,6,-1
 384 288 l 1,7,-1
 96 288 l 1,8,-1
 96 96 l 1,9,-1
 384 96 l 1,10,-1
 384 0 l 1,11,-1
 0 0 l 1,0,-1
64 704 m 1,12,-1
 64 800 l 1,13,-1
 160 800 l 1,14,-1
 160 704 l 1,15,-1
 64 704 l 1,12,-1
224 704 m 1,16,-1
 224 800 l 1,17,-1
 320 800 l 1,18,-1
 320 704 l 1,19,-1
 224 704 l 1,16,-1
EndSplineSet
EndChar

StartChar: Igrave
Encoding: 204 204 140
Width: 192
Flags: W
LayerCount: 2
Fore
SplineSet
0 0 m 1,0,-1
 0 640 l 1,1,-1
 96 640 l 1,2,-1
 96 0 l 1,3,-1
 0 0 l 1,0,-1
0 704 m 1,4,-1
 0 736 l 1,5,-1
 -32 736 l 1,6,-1
 -32 768 l 1,7,-1
 -64 768 l 1,8,-1
 -64 800 l 1,9,-1
 32 800 l 1,10,-1
 32 768 l 1,11,-1
 64 768 l 1,12,-1
 64 736 l 1,13,-1
 96 736 l 1,14,-1
 96 704 l 1,15,-1
 0 704 l 1,4,-1
EndSplineSet
EndChar

StartChar: Iacute
Encoding: 205 205 141
Width: 256
Flags: W
LayerCount: 2
Fore
SplineSet
0 0 m 1,0,-1
 0 640 l 1,1,-1
 96 640 l 1,2,-1
 96 0 l 1,3,-1
 0 0 l 1,0,-1
0 704 m 1,4,-1
 0 736 l 1,5,-1
 32 736 l 1,6,-1
 32 768 l 1,7,-1
 64 768 l 1,8,-1
 64 800 l 1,9,-1
 160 800 l 1,10,-1
 160 768 l 1,11,-1
 128 768 l 1,12,-1
 128 736 l 1,13,-1
 96 736 l 1,14,-1
 96 704 l 1,15,-1
 0 704 l 1,4,-1
EndSplineSet
EndChar

StartChar: Icircumflex
Encoding: 206 206 142
Width: 320
Flags: W
LayerCount: 2
Fore
SplineSet
0 0 m 1,0,-1
 0 640 l 1,1,-1
 96 640 l 1,2,-1
 96 0 l 1,3,-1
 0 0 l 1,0,-1
-128 640 m 1,4,-1
 -128 672 l 1,5,-1
 -96 672 l 1,6,-1
 -96 704 l 1,7,-1
 -64 704 l 1,8,-1
 -64 736 l 1,9,-1
 -32 736 l 1,10,-1
 -32 768 l 1,11,-1
 0 768 l 1,12,-1
 0 800 l 1,13,-1
 96 800 l 1,14,-1
 96 768 l 1,15,-1
 128 768 l 1,16,-1
 128 736 l 1,17,-1
 160 736 l 1,18,-1
 160 704 l 1,19,-1
 192 704 l 1,20,-1
 192 672 l 1,21,-1
 224 672 l 1,22,-1
 224 640 l 1,23,-1
 160 640 l 1,24,-1
 160 672 l 1,25,-1
 96 672 l 1,26,-1
 96 704 l 1,27,-1
 64 704 l 1,28,-1
 64 736 l 1,29,-1
 32 736 l 1,30,-1
 32 704 l 1,31,-1
 0 704 l 1,32,-1
 0 672 l 1,33,-1
 -64 672 l 1,34,-1
 -64 640 l 1,35,-1
 -128 640 l 1,4,-1
EndSplineSet
EndChar

StartChar: Idieresis
Encoding: 207 207 143
Width: 288
Flags: W
LayerCount: 2
Fore
SplineSet
0 0 m 1,0,-1
 0 640 l 1,1,-1
 96 640 l 1,2,-1
 96 0 l 1,3,-1
 0 0 l 1,0,-1
-96 704 m 1,4,-1
 -96 800 l 1,5,-1
 0 800 l 1,6,-1
 0 704 l 1,7,-1
 -96 704 l 1,4,-1
96 704 m 1,8,-1
 96 800 l 1,9,-1
 192 800 l 1,10,-1
 192 704 l 1,11,-1
 96 704 l 1,8,-1
EndSplineSet
EndChar

StartChar: Eth
Encoding: 208 208 144
Width: 576
Flags: W
LayerCount: 2
Fore
SplineSet
256 96 m 1,0,-1
 256 128 l 1,1,-1
 320 128 l 1,2,-1
 320 160 l 1,3,-1
 352 160 l 1,4,-1
 352 192 l 1,5,-1
 384 192 l 1,6,-1
 384 256 l 1,7,-1
 416 256 l 1,8,-1
 416 384 l 1,9,-1
 384 384 l 1,10,-1
 384 448 l 1,11,-1
 352 448 l 1,12,-1
 352 480 l 1,13,-1
 320 480 l 1,14,-1
 320 512 l 1,15,-1
 256 512 l 1,16,-1
 256 544 l 1,17,-1
 96 544 l 1,18,-1
 96 352 l 1,19,-1
 224 352 l 1,20,-1
 224 288 l 1,21,-1
 96 288 l 1,22,-1
 96 96 l 1,23,-1
 256 96 l 1,0,-1
0 0 m 1,24,-1
 0 288 l 1,25,-1
 -64 288 l 1,26,-1
 -64 352 l 1,27,-1
 0 352 l 1,28,-1
 0 640 l 1,29,-1
 288 640 l 1,30,-1
 288 608 l 1,31,-1
 384 608 l 1,32,-1
 384 576 l 1,33,-1
 416 576 l 1,34,-1
 416 544 l 1,35,-1
 448 544 l 1,36,-1
 448 512 l 1,37,-1
 480 512 l 1,38,-1
 480 448 l 1,39,-1
 512 448 l 1,40,-1
 512 192 l 1,41,-1
 480 192 l 1,42,-1
 480 128 l 1,43,-1
 448 128 l 1,44,-1
 448 96 l 1,45,-1
 416 96 l 1,46,-1
 416 64 l 1,47,-1
 384 64 l 1,48,-1
 384 32 l 1,49,-1
 288 32 l 1,50,-1
 288 0 l 1,51,-1
 0 0 l 1,24,-1
EndSplineSet
EndChar

StartChar: Ntilde
Encoding: 209 209 145
Width: 608
Flags: W
LayerCount: 2
Fore
SplineSet
0 0 m 1,0,-1
 0 640 l 1,1,-1
 160 640 l 1,2,-1
 160 576 l 1,3,-1
 192 576 l 1,4,-1
 192 512 l 1,5,-1
 224 512 l 1,6,-1
 224 448 l 1,7,-1
 256 448 l 1,8,-1
 256 384 l 1,9,-1
 288 384 l 1,10,-1
 288 320 l 1,11,-1
 320 320 l 1,12,-1
 320 256 l 1,13,-1
 352 256 l 1,14,-1
 352 192 l 1,15,-1
 384 192 l 1,16,-1
 384 128 l 1,17,-1
 416 128 l 1,18,-1
 416 640 l 1,19,-1
 512 640 l 1,20,-1
 512 0 l 1,21,-1
 352 0 l 1,22,-1
 352 64 l 1,23,-1
 320 64 l 1,24,-1
 320 128 l 1,25,-1
 288 128 l 1,26,-1
 288 192 l 1,27,-1
 256 192 l 1,28,-1
 256 256 l 1,29,-1
 224 256 l 1,30,-1
 224 320 l 1,31,-1
 192 320 l 1,32,-1
 192 384 l 1,33,-1
 160 384 l 1,34,-1
 160 448 l 1,35,-1
 128 448 l 1,36,-1
 128 512 l 1,37,-1
 96 512 l 1,38,-1
 96 0 l 1,39,-1
 0 0 l 1,0,-1
288 672 m 1,40,-1
 288 704 l 1,41,-1
 256 704 l 1,42,-1
 256 736 l 1,43,-1
 224 736 l 1,44,-1
 224 768 l 1,45,-1
 160 768 l 1,46,-1
 160 736 l 1,47,-1
 128 736 l 1,48,-1
 128 704 l 1,49,-1
 96 704 l 1,50,-1
 96 768 l 1,51,-1
 128 768 l 1,52,-1
 128 800 l 1,53,-1
 160 800 l 1,54,-1
 160 832 l 1,55,-1
 256 832 l 1,56,-1
 256 800 l 1,57,-1
 288 800 l 1,58,-1
 288 768 l 1,59,-1
 320 768 l 1,60,-1
 320 736 l 1,61,-1
 384 736 l 1,62,-1
 384 768 l 1,63,-1
 416 768 l 1,64,-1
 416 800 l 1,65,-1
 448 800 l 1,66,-1
 448 736 l 1,67,-1
 416 736 l 1,68,-1
 416 704 l 1,69,-1
 384 704 l 1,70,-1
 384 672 l 1,71,-1
 288 672 l 1,40,-1
EndSplineSet
EndChar

StartChar: Ograve
Encoding: 210 210 146
Width: 704
Flags: W
LayerCount: 2
Fore
SplineSet
352 96 m 1,0,-1
 352 128 l 1,1,-1
 416 128 l 1,2,-1
 416 160 l 1,3,-1
 448 160 l 1,4,-1
 448 192 l 1,5,-1
 480 192 l 1,6,-1
 480 256 l 1,7,-1
 512 256 l 1,8,-1
 512 384 l 1,9,-1
 480 384 l 1,10,-1
 480 448 l 1,11,-1
 448 448 l 1,12,-1
 448 480 l 1,13,-1
 416 480 l 1,14,-1
 416 512 l 1,15,-1
 352 512 l 1,16,-1
 352 544 l 1,17,-1
 256 544 l 1,18,-1
 256 512 l 1,19,-1
 192 512 l 1,20,-1
 192 480 l 1,21,-1
 160 480 l 1,22,-1
 160 448 l 1,23,-1
 128 448 l 1,24,-1
 128 384 l 1,25,-1
 96 384 l 1,26,-1
 96 256 l 1,27,-1
 128 256 l 1,28,-1
 128 192 l 1,29,-1
 160 192 l 1,30,-1
 160 160 l 1,31,-1
 192 160 l 1,32,-1
 192 128 l 1,33,-1
 256 128 l 1,34,-1
 256 96 l 1,35,-1
 352 96 l 1,0,-1
224 0 m 1,36,-1
 224 32 l 1,37,-1
 128 32 l 1,38,-1
 128 64 l 1,39,-1
 96 64 l 1,40,-1
 96 96 l 1,41,-1
 64 96 l 1,42,-1
 64 128 l 1,43,-1
 32 128 l 1,44,-1
 32 192 l 1,45,-1
 0 192 l 1,46,-1
 0 448 l 1,47,-1
 32 448 l 1,48,-1
 32 512 l 1,49,-1
 64 512 l 1,50,-1
 64 544 l 1,51,-1
 96 544 l 1,52,-1
 96 576 l 1,53,-1
 128 576 l 1,54,-1
 128 608 l 1,55,-1
 224 608 l 1,56,-1
 224 640 l 1,57,-1
 384 640 l 1,58,-1
 384 608 l 1,59,-1
 480 608 l 1,60,-1
 480 576 l 1,61,-1
 512 576 l 1,62,-1
 512 544 l 1,63,-1
 544 544 l 1,64,-1
 544 512 l 1,65,-1
 576 512 l 1,66,-1
 576 448 l 1,67,-1
 608 448 l 1,68,-1
 608 192 l 1,69,-1
 576 192 l 1,70,-1
 576 128 l 1,71,-1
 544 128 l 1,72,-1
 544 96 l 1,73,-1
 512 96 l 1,74,-1
 512 64 l 1,75,-1
 480 64 l 1,76,-1
 480 32 l 1,77,-1
 384 32 l 1,78,-1
 384 0 l 1,79,-1
 224 0 l 1,36,-1
256 704 m 1,80,-1
 256 736 l 1,81,-1
 224 736 l 1,82,-1
 224 768 l 1,83,-1
 192 768 l 1,84,-1
 192 800 l 1,85,-1
 288 800 l 1,86,-1
 288 768 l 1,87,-1
 320 768 l 1,88,-1
 320 736 l 1,89,-1
 352 736 l 1,90,-1
 352 704 l 1,91,-1
 256 704 l 1,80,-1
EndSplineSet
EndChar

StartChar: Oacute
Encoding: 211 211 147
Width: 704
Flags: W
LayerCount: 2
Fore
SplineSet
352 96 m 1,0,-1
 352 128 l 1,1,-1
 416 128 l 1,2,-1
 416 160 l 1,3,-1
 448 160 l 1,4,-1
 448 192 l 1,5,-1
 480 192 l 1,6,-1
 480 256 l 1,7,-1
 512 256 l 1,8,-1
 512 384 l 1,9,-1
 480 384 l 1,10,-1
 480 448 l 1,11,-1
 448 448 l 1,12,-1
 448 480 l 1,13,-1
 416 480 l 1,14,-1
 416 512 l 1,15,-1
 352 512 l 1,16,-1
 352 544 l 1,17,-1
 256 544 l 1,18,-1
 256 512 l 1,19,-1
 192 512 l 1,20,-1
 192 480 l 1,21,-1
 160 480 l 1,22,-1
 160 448 l 1,23,-1
 128 448 l 1,24,-1
 128 384 l 1,25,-1
 96 384 l 1,26,-1
 96 256 l 1,27,-1
 128 256 l 1,28,-1
 128 192 l 1,29,-1
 160 192 l 1,30,-1
 160 160 l 1,31,-1
 192 160 l 1,32,-1
 192 128 l 1,33,-1
 256 128 l 1,34,-1
 256 96 l 1,35,-1
 352 96 l 1,0,-1
224 0 m 1,36,-1
 224 32 l 1,37,-1
 128 32 l 1,38,-1
 128 64 l 1,39,-1
 96 64 l 1,40,-1
 96 96 l 1,41,-1
 64 96 l 1,42,-1
 64 128 l 1,43,-1
 32 128 l 1,44,-1
 32 192 l 1,45,-1
 0 192 l 1,46,-1
 0 448 l 1,47,-1
 32 448 l 1,48,-1
 32 512 l 1,49,-1
 64 512 l 1,50,-1
 64 544 l 1,51,-1
 96 544 l 1,52,-1
 96 576 l 1,53,-1
 128 576 l 1,54,-1
 128 608 l 1,55,-1
 224 608 l 1,56,-1
 224 640 l 1,57,-1
 384 640 l 1,58,-1
 384 608 l 1,59,-1
 480 608 l 1,60,-1
 480 576 l 1,61,-1
 512 576 l 1,62,-1
 512 544 l 1,63,-1
 544 544 l 1,64,-1
 544 512 l 1,65,-1
 576 512 l 1,66,-1
 576 448 l 1,67,-1
 608 448 l 1,68,-1
 608 192 l 1,69,-1
 576 192 l 1,70,-1
 576 128 l 1,71,-1
 544 128 l 1,72,-1
 544 96 l 1,73,-1
 512 96 l 1,74,-1
 512 64 l 1,75,-1
 480 64 l 1,76,-1
 480 32 l 1,77,-1
 384 32 l 1,78,-1
 384 0 l 1,79,-1
 224 0 l 1,36,-1
256 704 m 1,80,-1
 256 736 l 1,81,-1
 288 736 l 1,82,-1
 288 768 l 1,83,-1
 320 768 l 1,84,-1
 320 800 l 1,85,-1
 416 800 l 1,86,-1
 416 768 l 1,87,-1
 384 768 l 1,88,-1
 384 736 l 1,89,-1
 352 736 l 1,90,-1
 352 704 l 1,91,-1
 256 704 l 1,80,-1
EndSplineSet
EndChar

StartChar: Ocircumflex
Encoding: 212 212 148
Width: 704
Flags: W
LayerCount: 2
Fore
SplineSet
352 96 m 1,0,-1
 352 128 l 1,1,-1
 416 128 l 1,2,-1
 416 160 l 1,3,-1
 448 160 l 1,4,-1
 448 192 l 1,5,-1
 480 192 l 1,6,-1
 480 256 l 1,7,-1
 512 256 l 1,8,-1
 512 384 l 1,9,-1
 480 384 l 1,10,-1
 480 448 l 1,11,-1
 448 448 l 1,12,-1
 448 480 l 1,13,-1
 416 480 l 1,14,-1
 416 512 l 1,15,-1
 352 512 l 1,16,-1
 352 544 l 1,17,-1
 256 544 l 1,18,-1
 256 512 l 1,19,-1
 192 512 l 1,20,-1
 192 480 l 1,21,-1
 160 480 l 1,22,-1
 160 448 l 1,23,-1
 128 448 l 1,24,-1
 128 384 l 1,25,-1
 96 384 l 1,26,-1
 96 256 l 1,27,-1
 128 256 l 1,28,-1
 128 192 l 1,29,-1
 160 192 l 1,30,-1
 160 160 l 1,31,-1
 192 160 l 1,32,-1
 192 128 l 1,33,-1
 256 128 l 1,34,-1
 256 96 l 1,35,-1
 352 96 l 1,0,-1
224 0 m 1,36,-1
 224 32 l 1,37,-1
 128 32 l 1,38,-1
 128 64 l 1,39,-1
 96 64 l 1,40,-1
 96 96 l 1,41,-1
 64 96 l 1,42,-1
 64 128 l 1,43,-1
 32 128 l 1,44,-1
 32 192 l 1,45,-1
 0 192 l 1,46,-1
 0 448 l 1,47,-1
 32 448 l 1,48,-1
 32 512 l 1,49,-1
 64 512 l 1,50,-1
 64 544 l 1,51,-1
 96 544 l 1,52,-1
 96 576 l 1,53,-1
 128 576 l 1,54,-1
 128 608 l 1,55,-1
 224 608 l 1,56,-1
 224 640 l 1,57,-1
 384 640 l 1,58,-1
 384 608 l 1,59,-1
 480 608 l 1,60,-1
 480 576 l 1,61,-1
 512 576 l 1,62,-1
 512 544 l 1,63,-1
 544 544 l 1,64,-1
 544 512 l 1,65,-1
 576 512 l 1,66,-1
 576 448 l 1,67,-1
 608 448 l 1,68,-1
 608 192 l 1,69,-1
 576 192 l 1,70,-1
 576 128 l 1,71,-1
 544 128 l 1,72,-1
 544 96 l 1,73,-1
 512 96 l 1,74,-1
 512 64 l 1,75,-1
 480 64 l 1,76,-1
 480 32 l 1,77,-1
 384 32 l 1,78,-1
 384 0 l 1,79,-1
 224 0 l 1,36,-1
128 640 m 1,80,-1
 128 672 l 1,81,-1
 160 672 l 1,82,-1
 160 704 l 1,83,-1
 192 704 l 1,84,-1
 192 736 l 1,85,-1
 224 736 l 1,86,-1
 224 768 l 1,87,-1
 256 768 l 1,88,-1
 256 800 l 1,89,-1
 352 800 l 1,90,-1
 352 768 l 1,91,-1
 384 768 l 1,92,-1
 384 736 l 1,93,-1
 416 736 l 1,94,-1
 416 704 l 1,95,-1
 448 704 l 1,96,-1
 448 672 l 1,97,-1
 480 672 l 1,98,-1
 480 640 l 1,99,-1
 416 640 l 1,100,-1
 416 672 l 1,101,-1
 352 672 l 1,102,-1
 352 704 l 1,103,-1
 320 704 l 1,104,-1
 320 736 l 1,105,-1
 288 736 l 1,106,-1
 288 704 l 1,107,-1
 256 704 l 1,108,-1
 256 672 l 1,109,-1
 192 672 l 1,110,-1
 192 640 l 1,111,-1
 128 640 l 1,80,-1
EndSplineSet
EndChar

StartChar: Otilde
Encoding: 213 213 149
Width: 704
Flags: W
LayerCount: 2
Fore
SplineSet
352 96 m 1,0,-1
 352 128 l 1,1,-1
 416 128 l 1,2,-1
 416 160 l 1,3,-1
 448 160 l 1,4,-1
 448 192 l 1,5,-1
 480 192 l 1,6,-1
 480 256 l 1,7,-1
 512 256 l 1,8,-1
 512 384 l 1,9,-1
 480 384 l 1,10,-1
 480 448 l 1,11,-1
 448 448 l 1,12,-1
 448 480 l 1,13,-1
 416 480 l 1,14,-1
 416 512 l 1,15,-1
 352 512 l 1,16,-1
 352 544 l 1,17,-1
 256 544 l 1,18,-1
 256 512 l 1,19,-1
 192 512 l 1,20,-1
 192 480 l 1,21,-1
 160 480 l 1,22,-1
 160 448 l 1,23,-1
 128 448 l 1,24,-1
 128 384 l 1,25,-1
 96 384 l 1,26,-1
 96 256 l 1,27,-1
 128 256 l 1,28,-1
 128 192 l 1,29,-1
 160 192 l 1,30,-1
 160 160 l 1,31,-1
 192 160 l 1,32,-1
 192 128 l 1,33,-1
 256 128 l 1,34,-1
 256 96 l 1,35,-1
 352 96 l 1,0,-1
224 0 m 1,36,-1
 224 32 l 1,37,-1
 128 32 l 1,38,-1
 128 64 l 1,39,-1
 96 64 l 1,40,-1
 96 96 l 1,41,-1
 64 96 l 1,42,-1
 64 128 l 1,43,-1
 32 128 l 1,44,-1
 32 192 l 1,45,-1
 0 192 l 1,46,-1
 0 448 l 1,47,-1
 32 448 l 1,48,-1
 32 512 l 1,49,-1
 64 512 l 1,50,-1
 64 544 l 1,51,-1
 96 544 l 1,52,-1
 96 576 l 1,53,-1
 128 576 l 1,54,-1
 128 608 l 1,55,-1
 224 608 l 1,56,-1
 224 640 l 1,57,-1
 384 640 l 1,58,-1
 384 608 l 1,59,-1
 480 608 l 1,60,-1
 480 576 l 1,61,-1
 512 576 l 1,62,-1
 512 544 l 1,63,-1
 544 544 l 1,64,-1
 544 512 l 1,65,-1
 576 512 l 1,66,-1
 576 448 l 1,67,-1
 608 448 l 1,68,-1
 608 192 l 1,69,-1
 576 192 l 1,70,-1
 576 128 l 1,71,-1
 544 128 l 1,72,-1
 544 96 l 1,73,-1
 512 96 l 1,74,-1
 512 64 l 1,75,-1
 480 64 l 1,76,-1
 480 32 l 1,77,-1
 384 32 l 1,78,-1
 384 0 l 1,79,-1
 224 0 l 1,36,-1
320 672 m 1,80,-1
 320 704 l 1,81,-1
 288 704 l 1,82,-1
 288 736 l 1,83,-1
 256 736 l 1,84,-1
 256 768 l 1,85,-1
 192 768 l 1,86,-1
 192 736 l 1,87,-1
 160 736 l 1,88,-1
 160 704 l 1,89,-1
 128 704 l 1,90,-1
 128 768 l 1,91,-1
 160 768 l 1,92,-1
 160 800 l 1,93,-1
 192 800 l 1,94,-1
 192 832 l 1,95,-1
 288 832 l 1,96,-1
 288 800 l 1,97,-1
 320 800 l 1,98,-1
 320 768 l 1,99,-1
 352 768 l 1,100,-1
 352 736 l 1,101,-1
 416 736 l 1,102,-1
 416 768 l 1,103,-1
 448 768 l 1,104,-1
 448 800 l 1,105,-1
 480 800 l 1,106,-1
 480 736 l 1,107,-1
 448 736 l 1,108,-1
 448 704 l 1,109,-1
 416 704 l 1,110,-1
 416 672 l 1,111,-1
 320 672 l 1,80,-1
EndSplineSet
EndChar

StartChar: Odieresis
Encoding: 214 214 150
Width: 704
Flags: W
LayerCount: 2
Fore
SplineSet
352 96 m 1,0,-1
 352 128 l 1,1,-1
 416 128 l 1,2,-1
 416 160 l 1,3,-1
 448 160 l 1,4,-1
 448 192 l 1,5,-1
 480 192 l 1,6,-1
 480 256 l 1,7,-1
 512 256 l 1,8,-1
 512 384 l 1,9,-1
 480 384 l 1,10,-1
 480 448 l 1,11,-1
 448 448 l 1,12,-1
 448 480 l 1,13,-1
 416 480 l 1,14,-1
 416 512 l 1,15,-1
 352 512 l 1,16,-1
 352 544 l 1,17,-1
 256 544 l 1,18,-1
 256 512 l 1,19,-1
 192 512 l 1,20,-1
 192 480 l 1,21,-1
 160 480 l 1,22,-1
 160 448 l 1,23,-1
 128 448 l 1,24,-1
 128 384 l 1,25,-1
 96 384 l 1,26,-1
 96 256 l 1,27,-1
 128 256 l 1,28,-1
 128 192 l 1,29,-1
 160 192 l 1,30,-1
 160 160 l 1,31,-1
 192 160 l 1,32,-1
 192 128 l 1,33,-1
 256 128 l 1,34,-1
 256 96 l 1,35,-1
 352 96 l 1,0,-1
224 0 m 1,36,-1
 224 32 l 1,37,-1
 128 32 l 1,38,-1
 128 64 l 1,39,-1
 96 64 l 1,40,-1
 96 96 l 1,41,-1
 64 96 l 1,42,-1
 64 128 l 1,43,-1
 32 128 l 1,44,-1
 32 192 l 1,45,-1
 0 192 l 1,46,-1
 0 448 l 1,47,-1
 32 448 l 1,48,-1
 32 512 l 1,49,-1
 64 512 l 1,50,-1
 64 544 l 1,51,-1
 96 544 l 1,52,-1
 96 576 l 1,53,-1
 128 576 l 1,54,-1
 128 608 l 1,55,-1
 224 608 l 1,56,-1
 224 640 l 1,57,-1
 384 640 l 1,58,-1
 384 608 l 1,59,-1
 480 608 l 1,60,-1
 480 576 l 1,61,-1
 512 576 l 1,62,-1
 512 544 l 1,63,-1
 544 544 l 1,64,-1
 544 512 l 1,65,-1
 576 512 l 1,66,-1
 576 448 l 1,67,-1
 608 448 l 1,68,-1
 608 192 l 1,69,-1
 576 192 l 1,70,-1
 576 128 l 1,71,-1
 544 128 l 1,72,-1
 544 96 l 1,73,-1
 512 96 l 1,74,-1
 512 64 l 1,75,-1
 480 64 l 1,76,-1
 480 32 l 1,77,-1
 384 32 l 1,78,-1
 384 0 l 1,79,-1
 224 0 l 1,36,-1
160 704 m 1,80,-1
 160 800 l 1,81,-1
 256 800 l 1,82,-1
 256 704 l 1,83,-1
 160 704 l 1,80,-1
352 704 m 1,84,-1
 352 800 l 1,85,-1
 448 800 l 1,86,-1
 448 704 l 1,87,-1
 352 704 l 1,84,-1
EndSplineSet
EndChar

StartChar: multiply
Encoding: 215 215 151
Width: 480
Flags: W
LayerCount: 2
Fore
SplineSet
0 64 m 1,0,-1
 0 96 l 1,1,-1
 32 96 l 1,2,-1
 32 128 l 1,3,-1
 64 128 l 1,4,-1
 64 160 l 1,5,-1
 96 160 l 1,6,-1
 96 192 l 1,7,-1
 128 192 l 1,8,-1
 128 224 l 1,9,-1
 160 224 l 1,10,-1
 160 256 l 1,11,-1
 128 256 l 1,12,-1
 128 288 l 1,13,-1
 96 288 l 1,14,-1
 96 320 l 1,15,-1
 64 320 l 1,16,-1
 64 352 l 1,17,-1
 32 352 l 1,18,-1
 32 384 l 1,19,-1
 0 384 l 1,20,-1
 0 416 l 1,21,-1
 64 416 l 1,22,-1
 64 384 l 1,23,-1
 96 384 l 1,24,-1
 96 352 l 1,25,-1
 128 352 l 1,26,-1
 128 320 l 1,27,-1
 160 320 l 1,28,-1
 160 288 l 1,29,-1
 224 288 l 1,30,-1
 224 320 l 1,31,-1
 256 320 l 1,32,-1
 256 352 l 1,33,-1
 288 352 l 1,34,-1
 288 384 l 1,35,-1
 320 384 l 1,36,-1
 320 416 l 1,37,-1
 384 416 l 1,38,-1
 384 384 l 1,39,-1
 352 384 l 1,40,-1
 352 352 l 1,41,-1
 320 352 l 1,42,-1
 320 320 l 1,43,-1
 288 320 l 1,44,-1
 288 288 l 1,45,-1
 256 288 l 1,46,-1
 256 256 l 1,47,-1
 224 256 l 1,48,-1
 224 224 l 1,49,-1
 256 224 l 1,50,-1
 256 192 l 1,51,-1
 288 192 l 1,52,-1
 288 160 l 1,53,-1
 320 160 l 1,54,-1
 320 128 l 1,55,-1
 352 128 l 1,56,-1
 352 96 l 1,57,-1
 384 96 l 1,58,-1
 384 64 l 1,59,-1
 320 64 l 1,60,-1
 320 96 l 1,61,-1
 288 96 l 1,62,-1
 288 128 l 1,63,-1
 256 128 l 1,64,-1
 256 160 l 1,65,-1
 224 160 l 1,66,-1
 224 192 l 1,67,-1
 160 192 l 1,68,-1
 160 160 l 1,69,-1
 128 160 l 1,70,-1
 128 128 l 1,71,-1
 96 128 l 1,72,-1
 96 96 l 1,73,-1
 64 96 l 1,74,-1
 64 64 l 1,75,-1
 0 64 l 1,0,-1
EndSplineSet
EndChar

StartChar: Oslash
Encoding: 216 216 152
Width: 736
Flags: W
LayerCount: 2
Fore
SplineSet
352 96 m 1,0,-1
 352 128 l 1,1,-1
 416 128 l 1,2,-1
 416 160 l 1,3,-1
 448 160 l 1,4,-1
 448 192 l 1,5,-1
 480 192 l 1,6,-1
 480 256 l 1,7,-1
 512 256 l 1,8,-1
 512 384 l 1,9,-1
 480 384 l 1,10,-1
 480 416 l 1,11,-1
 448 416 l 1,12,-1
 448 384 l 1,13,-1
 416 384 l 1,14,-1
 416 352 l 1,15,-1
 384 352 l 1,16,-1
 384 320 l 1,17,-1
 352 320 l 1,18,-1
 352 288 l 1,19,-1
 320 288 l 1,20,-1
 320 256 l 1,21,-1
 288 256 l 1,22,-1
 288 224 l 1,23,-1
 256 224 l 1,24,-1
 256 192 l 1,25,-1
 224 192 l 1,26,-1
 224 160 l 1,27,-1
 192 160 l 1,28,-1
 192 128 l 1,29,-1
 256 128 l 1,30,-1
 256 96 l 1,31,-1
 352 96 l 1,0,-1
160 192 m 1,32,-1
 160 224 l 1,33,-1
 192 224 l 1,34,-1
 192 256 l 1,35,-1
 224 256 l 1,36,-1
 224 288 l 1,37,-1
 256 288 l 1,38,-1
 256 320 l 1,39,-1
 288 320 l 1,40,-1
 288 352 l 1,41,-1
 320 352 l 1,42,-1
 320 384 l 1,43,-1
 352 384 l 1,44,-1
 352 416 l 1,45,-1
 384 416 l 1,46,-1
 384 448 l 1,47,-1
 416 448 l 1,48,-1
 416 512 l 1,49,-1
 352 512 l 1,50,-1
 352 544 l 1,51,-1
 256 544 l 1,52,-1
 256 512 l 1,53,-1
 192 512 l 1,54,-1
 192 480 l 1,55,-1
 160 480 l 1,56,-1
 160 448 l 1,57,-1
 128 448 l 1,58,-1
 128 384 l 1,59,-1
 96 384 l 1,60,-1
 96 256 l 1,61,-1
 128 256 l 1,62,-1
 128 192 l 1,63,-1
 160 192 l 1,32,-1
0 0 m 1,64,-1
 0 64 l 1,65,-1
 32 64 l 1,66,-1
 32 96 l 1,67,-1
 64 96 l 1,68,-1
 64 128 l 1,69,-1
 32 128 l 1,70,-1
 32 192 l 1,71,-1
 0 192 l 1,72,-1
 0 448 l 1,73,-1
 32 448 l 1,74,-1
 32 512 l 1,75,-1
 64 512 l 1,76,-1
 64 544 l 1,77,-1
 96 544 l 1,78,-1
 96 576 l 1,79,-1
 128 576 l 1,80,-1
 128 608 l 1,81,-1
 224 608 l 1,82,-1
 224 640 l 1,83,-1
 384 640 l 1,84,-1
 384 608 l 1,85,-1
 480 608 l 1,86,-1
 480 576 l 1,87,-1
 544 576 l 1,88,-1
 544 608 l 1,89,-1
 576 608 l 1,90,-1
 576 640 l 1,91,-1
 640 640 l 1,92,-1
 640 576 l 1,93,-1
 608 576 l 1,94,-1
 608 544 l 1,95,-1
 576 544 l 1,96,-1
 576 448 l 1,97,-1
 608 448 l 1,98,-1
 608 192 l 1,99,-1
 576 192 l 1,100,-1
 576 128 l 1,101,-1
 544 128 l 1,102,-1
 544 96 l 1,103,-1
 512 96 l 1,104,-1
 512 64 l 1,105,-1
 480 64 l 1,106,-1
 480 32 l 1,107,-1
 384 32 l 1,108,-1
 384 0 l 1,109,-1
 224 0 l 1,110,-1
 224 32 l 1,111,-1
 128 32 l 1,112,-1
 128 64 l 1,113,-1
 96 64 l 1,114,-1
 96 32 l 1,115,-1
 64 32 l 1,116,-1
 64 0 l 1,117,-1
 0 0 l 1,64,-1
EndSplineSet
EndChar

StartChar: Ugrave
Encoding: 217 217 153
Width: 576
Flags: W
LayerCount: 2
Fore
SplineSet
128 0 m 1,0,-1
 128 32 l 1,1,-1
 64 32 l 1,2,-1
 64 64 l 1,3,-1
 32 64 l 1,4,-1
 32 128 l 1,5,-1
 0 128 l 1,6,-1
 0 640 l 1,7,-1
 96 640 l 1,8,-1
 96 192 l 1,9,-1
 128 192 l 1,10,-1
 128 128 l 1,11,-1
 160 128 l 1,12,-1
 160 96 l 1,13,-1
 320 96 l 1,14,-1
 320 128 l 1,15,-1
 352 128 l 1,16,-1
 352 192 l 1,17,-1
 384 192 l 1,18,-1
 384 640 l 1,19,-1
 480 640 l 1,20,-1
 480 128 l 1,21,-1
 448 128 l 1,22,-1
 448 64 l 1,23,-1
 416 64 l 1,24,-1
 416 32 l 1,25,-1
 352 32 l 1,26,-1
 352 0 l 1,27,-1
 128 0 l 1,0,-1
192 704 m 1,28,-1
 192 736 l 1,29,-1
 160 736 l 1,30,-1
 160 768 l 1,31,-1
 128 768 l 1,32,-1
 128 800 l 1,33,-1
 224 800 l 1,34,-1
 224 768 l 1,35,-1
 256 768 l 1,36,-1
 256 736 l 1,37,-1
 288 736 l 1,38,-1
 288 704 l 1,39,-1
 192 704 l 1,28,-1
EndSplineSet
EndChar

StartChar: Uacute
Encoding: 218 218 154
Width: 576
Flags: W
LayerCount: 2
Fore
SplineSet
128 0 m 1,0,-1
 128 32 l 1,1,-1
 64 32 l 1,2,-1
 64 64 l 1,3,-1
 32 64 l 1,4,-1
 32 128 l 1,5,-1
 0 128 l 1,6,-1
 0 640 l 1,7,-1
 96 640 l 1,8,-1
 96 192 l 1,9,-1
 128 192 l 1,10,-1
 128 128 l 1,11,-1
 160 128 l 1,12,-1
 160 96 l 1,13,-1
 320 96 l 1,14,-1
 320 128 l 1,15,-1
 352 128 l 1,16,-1
 352 192 l 1,17,-1
 384 192 l 1,18,-1
 384 640 l 1,19,-1
 480 640 l 1,20,-1
 480 128 l 1,21,-1
 448 128 l 1,22,-1
 448 64 l 1,23,-1
 416 64 l 1,24,-1
 416 32 l 1,25,-1
 352 32 l 1,26,-1
 352 0 l 1,27,-1
 128 0 l 1,0,-1
192 704 m 1,28,-1
 192 736 l 1,29,-1
 224 736 l 1,30,-1
 224 768 l 1,31,-1
 256 768 l 1,32,-1
 256 800 l 1,33,-1
 352 800 l 1,34,-1
 352 768 l 1,35,-1
 320 768 l 1,36,-1
 320 736 l 1,37,-1
 288 736 l 1,38,-1
 288 704 l 1,39,-1
 192 704 l 1,28,-1
EndSplineSet
EndChar

StartChar: Ucircumflex
Encoding: 219 219 155
Width: 576
Flags: W
LayerCount: 2
Fore
SplineSet
128 0 m 1,0,-1
 128 32 l 1,1,-1
 64 32 l 1,2,-1
 64 64 l 1,3,-1
 32 64 l 1,4,-1
 32 128 l 1,5,-1
 0 128 l 1,6,-1
 0 640 l 1,7,-1
 96 640 l 1,8,-1
 96 192 l 1,9,-1
 128 192 l 1,10,-1
 128 128 l 1,11,-1
 160 128 l 1,12,-1
 160 96 l 1,13,-1
 320 96 l 1,14,-1
 320 128 l 1,15,-1
 352 128 l 1,16,-1
 352 192 l 1,17,-1
 384 192 l 1,18,-1
 384 640 l 1,19,-1
 480 640 l 1,20,-1
 480 128 l 1,21,-1
 448 128 l 1,22,-1
 448 64 l 1,23,-1
 416 64 l 1,24,-1
 416 32 l 1,25,-1
 352 32 l 1,26,-1
 352 0 l 1,27,-1
 128 0 l 1,0,-1
64 672 m 1,28,-1
 64 704 l 1,29,-1
 96 704 l 1,30,-1
 96 736 l 1,31,-1
 128 736 l 1,32,-1
 128 768 l 1,33,-1
 160 768 l 1,34,-1
 160 800 l 1,35,-1
 192 800 l 1,36,-1
 192 832 l 1,37,-1
 288 832 l 1,38,-1
 288 800 l 1,39,-1
 320 800 l 1,40,-1
 320 768 l 1,41,-1
 352 768 l 1,42,-1
 352 736 l 1,43,-1
 384 736 l 1,44,-1
 384 704 l 1,45,-1
 416 704 l 1,46,-1
 416 672 l 1,47,-1
 352 672 l 1,48,-1
 352 704 l 1,49,-1
 288 704 l 1,50,-1
 288 736 l 1,51,-1
 256 736 l 1,52,-1
 256 768 l 1,53,-1
 224 768 l 1,54,-1
 224 736 l 1,55,-1
 192 736 l 1,56,-1
 192 704 l 1,57,-1
 128 704 l 1,58,-1
 128 672 l 1,59,-1
 64 672 l 1,28,-1
EndSplineSet
EndChar

StartChar: Udieresis
Encoding: 220 220 156
Width: 576
Flags: W
LayerCount: 2
Fore
SplineSet
128 0 m 1,0,-1
 128 32 l 1,1,-1
 64 32 l 1,2,-1
 64 64 l 1,3,-1
 32 64 l 1,4,-1
 32 128 l 1,5,-1
 0 128 l 1,6,-1
 0 640 l 1,7,-1
 96 640 l 1,8,-1
 96 192 l 1,9,-1
 128 192 l 1,10,-1
 128 128 l 1,11,-1
 160 128 l 1,12,-1
 160 96 l 1,13,-1
 320 96 l 1,14,-1
 320 128 l 1,15,-1
 352 128 l 1,16,-1
 352 192 l 1,17,-1
 384 192 l 1,18,-1
 384 640 l 1,19,-1
 480 640 l 1,20,-1
 480 128 l 1,21,-1
 448 128 l 1,22,-1
 448 64 l 1,23,-1
 416 64 l 1,24,-1
 416 32 l 1,25,-1
 352 32 l 1,26,-1
 352 0 l 1,27,-1
 128 0 l 1,0,-1
EndSplineSet
EndChar

StartChar: Yacute
Encoding: 221 221 157
Width: 640
Flags: W
LayerCount: 2
Fore
SplineSet
224 0 m 1,0,-1
 224 224 l 1,1,-1
 192 224 l 1,2,-1
 192 288 l 1,3,-1
 160 288 l 1,4,-1
 160 352 l 1,5,-1
 128 352 l 1,6,-1
 128 416 l 1,7,-1
 96 416 l 1,8,-1
 96 480 l 1,9,-1
 64 480 l 1,10,-1
 64 544 l 1,11,-1
 32 544 l 1,12,-1
 32 608 l 1,13,-1
 0 608 l 1,14,-1
 0 640 l 1,15,-1
 128 640 l 1,16,-1
 128 576 l 1,17,-1
 160 576 l 1,18,-1
 160 512 l 1,19,-1
 192 512 l 1,20,-1
 192 448 l 1,21,-1
 224 448 l 1,22,-1
 224 384 l 1,23,-1
 256 384 l 1,24,-1
 256 320 l 1,25,-1
 288 320 l 1,26,-1
 288 384 l 1,27,-1
 320 384 l 1,28,-1
 320 448 l 1,29,-1
 352 448 l 1,30,-1
 352 512 l 1,31,-1
 384 512 l 1,32,-1
 384 576 l 1,33,-1
 416 576 l 1,34,-1
 416 640 l 1,35,-1
 544 640 l 1,36,-1
 544 608 l 1,37,-1
 512 608 l 1,38,-1
 512 544 l 1,39,-1
 480 544 l 1,40,-1
 480 480 l 1,41,-1
 448 480 l 1,42,-1
 448 416 l 1,43,-1
 416 416 l 1,44,-1
 416 352 l 1,45,-1
 384 352 l 1,46,-1
 384 288 l 1,47,-1
 352 288 l 1,48,-1
 352 224 l 1,49,-1
 320 224 l 1,50,-1
 320 0 l 1,51,-1
 224 0 l 1,0,-1
224 704 m 1,52,-1
 224 736 l 1,53,-1
 256 736 l 1,54,-1
 256 768 l 1,55,-1
 288 768 l 1,56,-1
 288 800 l 1,57,-1
 384 800 l 1,58,-1
 384 768 l 1,59,-1
 352 768 l 1,60,-1
 352 736 l 1,61,-1
 320 736 l 1,62,-1
 320 704 l 1,63,-1
 224 704 l 1,52,-1
EndSplineSet
EndChar

StartChar: Thorn
Encoding: 222 222 158
Width: 544
Flags: W
LayerCount: 2
Fore
SplineSet
320 224 m 1,0,-1
 320 256 l 1,1,-1
 352 256 l 1,2,-1
 352 352 l 1,3,-1
 320 352 l 1,4,-1
 320 384 l 1,5,-1
 96 384 l 1,6,-1
 96 224 l 1,7,-1
 320 224 l 1,0,-1
0 0 m 1,8,-1
 0 640 l 1,9,-1
 96 640 l 1,10,-1
 96 480 l 1,11,-1
 352 480 l 1,12,-1
 352 448 l 1,13,-1
 384 448 l 1,14,-1
 384 416 l 1,15,-1
 416 416 l 1,16,-1
 416 384 l 1,17,-1
 448 384 l 1,18,-1
 448 224 l 1,19,-1
 416 224 l 1,20,-1
 416 192 l 1,21,-1
 384 192 l 1,22,-1
 384 160 l 1,23,-1
 352 160 l 1,24,-1
 352 128 l 1,25,-1
 96 128 l 1,26,-1
 96 0 l 1,27,-1
 0 0 l 1,8,-1
EndSplineSet
EndChar

StartChar: germandbls
Encoding: 223 223 159
Width: 480
Flags: W
LayerCount: 2
Fore
SplineSet
0 0 m 1,0,-1
 0 352 l 1,1,-1
 32 352 l 1,2,-1
 32 416 l 1,3,-1
 64 416 l 1,4,-1
 64 448 l 1,5,-1
 96 448 l 1,6,-1
 96 480 l 1,7,-1
 288 480 l 1,8,-1
 288 448 l 1,9,-1
 320 448 l 1,10,-1
 320 416 l 1,11,-1
 352 416 l 1,12,-1
 352 320 l 1,13,-1
 320 320 l 1,14,-1
 320 256 l 1,15,-1
 288 256 l 1,16,-1
 288 224 l 1,17,-1
 320 224 l 1,18,-1
 320 192 l 1,19,-1
 352 192 l 1,20,-1
 352 160 l 1,21,-1
 384 160 l 1,22,-1
 384 64 l 1,23,-1
 352 64 l 1,24,-1
 352 32 l 1,25,-1
 320 32 l 1,26,-1
 320 0 l 1,27,-1
 128 0 l 1,28,-1
 128 64 l 1,29,-1
 256 64 l 1,30,-1
 256 96 l 1,31,-1
 288 96 l 1,32,-1
 288 160 l 1,33,-1
 256 160 l 1,34,-1
 256 192 l 1,35,-1
 224 192 l 1,36,-1
 224 224 l 1,37,-1
 192 224 l 1,38,-1
 192 288 l 1,39,-1
 224 288 l 1,40,-1
 224 320 l 1,41,-1
 256 320 l 1,42,-1
 256 384 l 1,43,-1
 224 384 l 1,44,-1
 224 416 l 1,45,-1
 128 416 l 1,46,-1
 128 384 l 1,47,-1
 96 384 l 1,48,-1
 96 0 l 1,49,-1
 0 0 l 1,0,-1
EndSplineSet
EndChar

StartChar: agrave
Encoding: 224 224 160
Width: 512
Flags: W
LayerCount: 2
Fore
SplineSet
256 96 m 1,0,-1
 256 128 l 1,1,-1
 288 128 l 1,2,-1
 288 160 l 1,3,-1
 320 160 l 1,4,-1
 320 320 l 1,5,-1
 288 320 l 1,6,-1
 288 352 l 1,7,-1
 256 352 l 1,8,-1
 256 384 l 1,9,-1
 128 384 l 1,10,-1
 128 352 l 1,11,-1
 96 352 l 1,12,-1
 96 128 l 1,13,-1
 128 128 l 1,14,-1
 128 96 l 1,15,-1
 256 96 l 1,0,-1
128 0 m 1,16,-1
 128 32 l 1,17,-1
 64 32 l 1,18,-1
 64 64 l 1,19,-1
 32 64 l 1,20,-1
 32 128 l 1,21,-1
 0 128 l 1,22,-1
 0 352 l 1,23,-1
 32 352 l 1,24,-1
 32 416 l 1,25,-1
 64 416 l 1,26,-1
 64 448 l 1,27,-1
 128 448 l 1,28,-1
 128 480 l 1,29,-1
 256 480 l 1,30,-1
 256 448 l 1,31,-1
 288 448 l 1,32,-1
 288 416 l 1,33,-1
 320 416 l 1,34,-1
 320 480 l 1,35,-1
 416 480 l 1,36,-1
 416 0 l 1,37,-1
 320 0 l 1,38,-1
 320 64 l 1,39,-1
 288 64 l 1,40,-1
 288 32 l 1,41,-1
 256 32 l 1,42,-1
 256 0 l 1,43,-1
 128 0 l 1,16,-1
160 544 m 1,44,-1
 160 576 l 1,45,-1
 128 576 l 1,46,-1
 128 608 l 1,47,-1
 96 608 l 1,48,-1
 96 640 l 1,49,-1
 192 640 l 1,50,-1
 192 608 l 1,51,-1
 224 608 l 1,52,-1
 224 576 l 1,53,-1
 256 576 l 1,54,-1
 256 544 l 1,55,-1
 160 544 l 1,44,-1
EndSplineSet
EndChar

StartChar: aacute
Encoding: 225 225 161
Width: 512
Flags: W
LayerCount: 2
Fore
SplineSet
256 96 m 1,0,-1
 256 128 l 1,1,-1
 288 128 l 1,2,-1
 288 160 l 1,3,-1
 320 160 l 1,4,-1
 320 320 l 1,5,-1
 288 320 l 1,6,-1
 288 352 l 1,7,-1
 256 352 l 1,8,-1
 256 384 l 1,9,-1
 128 384 l 1,10,-1
 128 352 l 1,11,-1
 96 352 l 1,12,-1
 96 128 l 1,13,-1
 128 128 l 1,14,-1
 128 96 l 1,15,-1
 256 96 l 1,0,-1
128 0 m 1,16,-1
 128 32 l 1,17,-1
 64 32 l 1,18,-1
 64 64 l 1,19,-1
 32 64 l 1,20,-1
 32 128 l 1,21,-1
 0 128 l 1,22,-1
 0 352 l 1,23,-1
 32 352 l 1,24,-1
 32 416 l 1,25,-1
 64 416 l 1,26,-1
 64 448 l 1,27,-1
 128 448 l 1,28,-1
 128 480 l 1,29,-1
 256 480 l 1,30,-1
 256 448 l 1,31,-1
 288 448 l 1,32,-1
 288 416 l 1,33,-1
 320 416 l 1,34,-1
 320 480 l 1,35,-1
 416 480 l 1,36,-1
 416 0 l 1,37,-1
 320 0 l 1,38,-1
 320 64 l 1,39,-1
 288 64 l 1,40,-1
 288 32 l 1,41,-1
 256 32 l 1,42,-1
 256 0 l 1,43,-1
 128 0 l 1,16,-1
160 544 m 1,44,-1
 160 576 l 1,45,-1
 192 576 l 1,46,-1
 192 608 l 1,47,-1
 224 608 l 1,48,-1
 224 640 l 1,49,-1
 320 640 l 1,50,-1
 320 608 l 1,51,-1
 288 608 l 1,52,-1
 288 576 l 1,53,-1
 256 576 l 1,54,-1
 256 544 l 1,55,-1
 160 544 l 1,44,-1
EndSplineSet
EndChar

StartChar: acircumflex
Encoding: 226 226 162
Width: 512
Flags: W
LayerCount: 2
Fore
SplineSet
256 96 m 1,0,-1
 256 128 l 1,1,-1
 288 128 l 1,2,-1
 288 160 l 1,3,-1
 320 160 l 1,4,-1
 320 320 l 1,5,-1
 288 320 l 1,6,-1
 288 352 l 1,7,-1
 256 352 l 1,8,-1
 256 384 l 1,9,-1
 128 384 l 1,10,-1
 128 352 l 1,11,-1
 96 352 l 1,12,-1
 96 128 l 1,13,-1
 128 128 l 1,14,-1
 128 96 l 1,15,-1
 256 96 l 1,0,-1
128 0 m 1,16,-1
 128 32 l 1,17,-1
 64 32 l 1,18,-1
 64 64 l 1,19,-1
 32 64 l 1,20,-1
 32 128 l 1,21,-1
 0 128 l 1,22,-1
 0 352 l 1,23,-1
 32 352 l 1,24,-1
 32 416 l 1,25,-1
 64 416 l 1,26,-1
 64 448 l 1,27,-1
 128 448 l 1,28,-1
 128 480 l 1,29,-1
 256 480 l 1,30,-1
 256 448 l 1,31,-1
 288 448 l 1,32,-1
 288 416 l 1,33,-1
 320 416 l 1,34,-1
 320 480 l 1,35,-1
 416 480 l 1,36,-1
 416 0 l 1,37,-1
 320 0 l 1,38,-1
 320 64 l 1,39,-1
 288 64 l 1,40,-1
 288 32 l 1,41,-1
 256 32 l 1,42,-1
 256 0 l 1,43,-1
 128 0 l 1,16,-1
64 512 m 1,44,-1
 64 544 l 1,45,-1
 96 544 l 1,46,-1
 96 576 l 1,47,-1
 128 576 l 1,48,-1
 128 608 l 1,49,-1
 160 608 l 1,50,-1
 160 640 l 1,51,-1
 288 640 l 1,52,-1
 288 608 l 1,53,-1
 320 608 l 1,54,-1
 320 576 l 1,55,-1
 352 576 l 1,56,-1
 352 544 l 1,57,-1
 384 544 l 1,58,-1
 384 512 l 1,59,-1
 320 512 l 1,60,-1
 320 544 l 1,61,-1
 256 544 l 1,62,-1
 256 576 l 1,63,-1
 192 576 l 1,64,-1
 192 544 l 1,65,-1
 128 544 l 1,66,-1
 128 512 l 1,67,-1
 64 512 l 1,44,-1
EndSplineSet
EndChar

StartChar: atilde
Encoding: 227 227 163
Width: 512
Flags: W
LayerCount: 2
Fore
SplineSet
256 96 m 1,0,-1
 256 128 l 1,1,-1
 288 128 l 1,2,-1
 288 160 l 1,3,-1
 320 160 l 1,4,-1
 320 320 l 1,5,-1
 288 320 l 1,6,-1
 288 352 l 1,7,-1
 256 352 l 1,8,-1
 256 384 l 1,9,-1
 128 384 l 1,10,-1
 128 352 l 1,11,-1
 96 352 l 1,12,-1
 96 128 l 1,13,-1
 128 128 l 1,14,-1
 128 96 l 1,15,-1
 256 96 l 1,0,-1
128 0 m 1,16,-1
 128 32 l 1,17,-1
 64 32 l 1,18,-1
 64 64 l 1,19,-1
 32 64 l 1,20,-1
 32 128 l 1,21,-1
 0 128 l 1,22,-1
 0 352 l 1,23,-1
 32 352 l 1,24,-1
 32 416 l 1,25,-1
 64 416 l 1,26,-1
 64 448 l 1,27,-1
 128 448 l 1,28,-1
 128 480 l 1,29,-1
 256 480 l 1,30,-1
 256 448 l 1,31,-1
 288 448 l 1,32,-1
 288 416 l 1,33,-1
 320 416 l 1,34,-1
 320 480 l 1,35,-1
 416 480 l 1,36,-1
 416 0 l 1,37,-1
 320 0 l 1,38,-1
 320 64 l 1,39,-1
 288 64 l 1,40,-1
 288 32 l 1,41,-1
 256 32 l 1,42,-1
 256 0 l 1,43,-1
 128 0 l 1,16,-1
224 512 m 1,44,-1
 224 544 l 1,45,-1
 192 544 l 1,46,-1
 192 576 l 1,47,-1
 160 576 l 1,48,-1
 160 608 l 1,49,-1
 96 608 l 1,50,-1
 96 576 l 1,51,-1
 64 576 l 1,52,-1
 64 544 l 1,53,-1
 32 544 l 1,54,-1
 32 608 l 1,55,-1
 64 608 l 1,56,-1
 64 640 l 1,57,-1
 96 640 l 1,58,-1
 96 672 l 1,59,-1
 192 672 l 1,60,-1
 192 640 l 1,61,-1
 224 640 l 1,62,-1
 224 608 l 1,63,-1
 256 608 l 1,64,-1
 256 576 l 1,65,-1
 320 576 l 1,66,-1
 320 608 l 1,67,-1
 352 608 l 1,68,-1
 352 640 l 1,69,-1
 384 640 l 1,70,-1
 384 576 l 1,71,-1
 352 576 l 1,72,-1
 352 544 l 1,73,-1
 320 544 l 1,74,-1
 320 512 l 1,75,-1
 224 512 l 1,44,-1
EndSplineSet
EndChar

StartChar: adieresis
Encoding: 228 228 164
Width: 512
Flags: W
LayerCount: 2
Fore
SplineSet
256 96 m 1,0,-1
 256 128 l 1,1,-1
 288 128 l 1,2,-1
 288 160 l 1,3,-1
 320 160 l 1,4,-1
 320 320 l 1,5,-1
 288 320 l 1,6,-1
 288 352 l 1,7,-1
 256 352 l 1,8,-1
 256 384 l 1,9,-1
 128 384 l 1,10,-1
 128 352 l 1,11,-1
 96 352 l 1,12,-1
 96 128 l 1,13,-1
 128 128 l 1,14,-1
 128 96 l 1,15,-1
 256 96 l 1,0,-1
128 0 m 1,16,-1
 128 32 l 1,17,-1
 64 32 l 1,18,-1
 64 64 l 1,19,-1
 32 64 l 1,20,-1
 32 128 l 1,21,-1
 0 128 l 1,22,-1
 0 352 l 1,23,-1
 32 352 l 1,24,-1
 32 416 l 1,25,-1
 64 416 l 1,26,-1
 64 448 l 1,27,-1
 128 448 l 1,28,-1
 128 480 l 1,29,-1
 256 480 l 1,30,-1
 256 448 l 1,31,-1
 288 448 l 1,32,-1
 288 416 l 1,33,-1
 320 416 l 1,34,-1
 320 480 l 1,35,-1
 416 480 l 1,36,-1
 416 0 l 1,37,-1
 320 0 l 1,38,-1
 320 64 l 1,39,-1
 288 64 l 1,40,-1
 288 32 l 1,41,-1
 256 32 l 1,42,-1
 256 0 l 1,43,-1
 128 0 l 1,16,-1
96 544 m 1,44,-1
 96 640 l 1,45,-1
 192 640 l 1,46,-1
 192 544 l 1,47,-1
 96 544 l 1,44,-1
256 544 m 1,48,-1
 256 640 l 1,49,-1
 352 640 l 1,50,-1
 352 544 l 1,51,-1
 256 544 l 1,48,-1
EndSplineSet
EndChar

StartChar: aring
Encoding: 229 229 165
Width: 512
Flags: W
LayerCount: 2
Fore
SplineSet
256 96 m 1,0,-1
 256 128 l 1,1,-1
 288 128 l 1,2,-1
 288 160 l 1,3,-1
 320 160 l 1,4,-1
 320 320 l 1,5,-1
 288 320 l 1,6,-1
 288 352 l 1,7,-1
 256 352 l 1,8,-1
 256 384 l 1,9,-1
 128 384 l 1,10,-1
 128 352 l 1,11,-1
 96 352 l 1,12,-1
 96 128 l 1,13,-1
 128 128 l 1,14,-1
 128 96 l 1,15,-1
 256 96 l 1,0,-1
224 512 m 1,16,-1
 224 544 l 1,17,-1
 256 544 l 1,18,-1
 256 576 l 1,19,-1
 224 576 l 1,20,-1
 224 608 l 1,21,-1
 192 608 l 1,22,-1
 192 576 l 1,23,-1
 160 576 l 1,24,-1
 160 544 l 1,25,-1
 192 544 l 1,26,-1
 192 512 l 1,27,-1
 224 512 l 1,16,-1
128 0 m 1,28,-1
 128 32 l 1,29,-1
 64 32 l 1,30,-1
 64 64 l 1,31,-1
 32 64 l 1,32,-1
 32 128 l 1,33,-1
 0 128 l 1,34,-1
 0 352 l 1,35,-1
 32 352 l 1,36,-1
 32 416 l 1,37,-1
 64 416 l 1,38,-1
 64 448 l 1,39,-1
 128 448 l 1,40,-1
 128 480 l 1,41,-1
 160 480 l 1,42,-1
 160 512 l 1,43,-1
 128 512 l 1,44,-1
 128 608 l 1,45,-1
 160 608 l 1,46,-1
 160 640 l 1,47,-1
 256 640 l 1,48,-1
 256 608 l 1,49,-1
 288 608 l 1,50,-1
 288 512 l 1,51,-1
 256 512 l 1,52,-1
 256 448 l 1,53,-1
 288 448 l 1,54,-1
 288 416 l 1,55,-1
 320 416 l 1,56,-1
 320 480 l 1,57,-1
 416 480 l 1,58,-1
 416 0 l 1,59,-1
 320 0 l 1,60,-1
 320 64 l 1,61,-1
 288 64 l 1,62,-1
 288 32 l 1,63,-1
 256 32 l 1,64,-1
 256 0 l 1,65,-1
 128 0 l 1,28,-1
EndSplineSet
EndChar

StartChar: ae
Encoding: 230 230 166
Width: 800
Flags: W
LayerCount: 2
Fore
SplineSet
256 96 m 1,0,-1
 256 128 l 1,1,-1
 288 128 l 1,2,-1
 288 224 l 1,3,-1
 128 224 l 1,4,-1
 128 192 l 1,5,-1
 96 192 l 1,6,-1
 96 128 l 1,7,-1
 128 128 l 1,8,-1
 128 96 l 1,9,-1
 256 96 l 1,0,-1
608 288 m 1,10,-1
 608 352 l 1,11,-1
 576 352 l 1,12,-1
 576 384 l 1,13,-1
 448 384 l 1,14,-1
 448 352 l 1,15,-1
 416 352 l 1,16,-1
 416 288 l 1,17,-1
 608 288 l 1,10,-1
128 0 m 1,18,-1
 128 32 l 1,19,-1
 64 32 l 1,20,-1
 64 64 l 1,21,-1
 32 64 l 1,22,-1
 32 128 l 1,23,-1
 0 128 l 1,24,-1
 0 224 l 1,25,-1
 32 224 l 1,26,-1
 32 256 l 1,27,-1
 64 256 l 1,28,-1
 64 288 l 1,29,-1
 288 288 l 1,30,-1
 288 352 l 1,31,-1
 256 352 l 1,32,-1
 256 384 l 1,33,-1
 128 384 l 1,34,-1
 128 352 l 1,35,-1
 32 352 l 1,36,-1
 32 416 l 1,37,-1
 64 416 l 1,38,-1
 64 448 l 1,39,-1
 128 448 l 1,40,-1
 128 480 l 1,41,-1
 256 480 l 1,42,-1
 256 448 l 1,43,-1
 288 448 l 1,44,-1
 288 416 l 1,45,-1
 320 416 l 1,46,-1
 320 384 l 1,47,-1
 352 384 l 1,48,-1
 352 416 l 1,49,-1
 384 416 l 1,50,-1
 384 448 l 1,51,-1
 448 448 l 1,52,-1
 448 480 l 1,53,-1
 576 480 l 1,54,-1
 576 448 l 1,55,-1
 640 448 l 1,56,-1
 640 416 l 1,57,-1
 672 416 l 1,58,-1
 672 352 l 1,59,-1
 704 352 l 1,60,-1
 704 224 l 1,61,-1
 416 224 l 1,62,-1
 416 128 l 1,63,-1
 448 128 l 1,64,-1
 448 96 l 1,65,-1
 576 96 l 1,66,-1
 576 128 l 1,67,-1
 608 128 l 1,68,-1
 608 160 l 1,69,-1
 704 160 l 1,70,-1
 704 96 l 1,71,-1
 672 96 l 1,72,-1
 672 64 l 1,73,-1
 640 64 l 1,74,-1
 640 32 l 1,75,-1
 576 32 l 1,76,-1
 576 0 l 1,77,-1
 448 0 l 1,78,-1
 448 32 l 1,79,-1
 384 32 l 1,80,-1
 384 64 l 1,81,-1
 352 64 l 1,82,-1
 352 96 l 1,83,-1
 320 96 l 1,84,-1
 320 64 l 1,85,-1
 288 64 l 1,86,-1
 288 32 l 1,87,-1
 256 32 l 1,88,-1
 256 0 l 1,89,-1
 128 0 l 1,18,-1
EndSplineSet
EndChar

StartChar: ccedilla
Encoding: 231 231 167
Width: 448
Flags: W
LayerCount: 2
Fore
SplineSet
128 -192 m 1,0,-1
 128 -160 l 1,1,-1
 96 -160 l 1,2,-1
 96 -96 l 1,3,-1
 128 -96 l 1,4,-1
 128 -128 l 1,5,-1
 192 -128 l 1,6,-1
 192 -64 l 1,7,-1
 128 -64 l 1,8,-1
 128 32 l 1,9,-1
 64 32 l 1,10,-1
 64 64 l 1,11,-1
 32 64 l 1,12,-1
 32 128 l 1,13,-1
 0 128 l 1,14,-1
 0 352 l 1,15,-1
 32 352 l 1,16,-1
 32 416 l 1,17,-1
 64 416 l 1,18,-1
 64 448 l 1,19,-1
 128 448 l 1,20,-1
 128 480 l 1,21,-1
 256 480 l 1,22,-1
 256 448 l 1,23,-1
 320 448 l 1,24,-1
 320 416 l 1,25,-1
 352 416 l 1,26,-1
 352 320 l 1,27,-1
 288 320 l 1,28,-1
 288 352 l 1,29,-1
 256 352 l 1,30,-1
 256 384 l 1,31,-1
 128 384 l 1,32,-1
 128 352 l 1,33,-1
 96 352 l 1,34,-1
 96 128 l 1,35,-1
 128 128 l 1,36,-1
 128 96 l 1,37,-1
 256 96 l 1,38,-1
 256 128 l 1,39,-1
 288 128 l 1,40,-1
 288 160 l 1,41,-1
 352 160 l 1,42,-1
 352 64 l 1,43,-1
 320 64 l 1,44,-1
 320 32 l 1,45,-1
 256 32 l 1,46,-1
 256 0 l 1,47,-1
 160 0 l 1,48,-1
 160 -32 l 1,49,-1
 256 -32 l 1,50,-1
 256 -64 l 1,51,-1
 288 -64 l 1,52,-1
 288 -160 l 1,53,-1
 256 -160 l 1,54,-1
 256 -192 l 1,55,-1
 128 -192 l 1,0,-1
EndSplineSet
EndChar

StartChar: egrave
Encoding: 232 232 168
Width: 480
Flags: W
LayerCount: 2
Fore
SplineSet
288 288 m 1,0,-1
 288 352 l 1,1,-1
 256 352 l 1,2,-1
 256 384 l 1,3,-1
 128 384 l 1,4,-1
 128 352 l 1,5,-1
 96 352 l 1,6,-1
 96 288 l 1,7,-1
 288 288 l 1,0,-1
128 0 m 1,8,-1
 128 32 l 1,9,-1
 64 32 l 1,10,-1
 64 64 l 1,11,-1
 32 64 l 1,12,-1
 32 128 l 1,13,-1
 0 128 l 1,14,-1
 0 352 l 1,15,-1
 32 352 l 1,16,-1
 32 416 l 1,17,-1
 64 416 l 1,18,-1
 64 448 l 1,19,-1
 128 448 l 1,20,-1
 128 480 l 1,21,-1
 256 480 l 1,22,-1
 256 448 l 1,23,-1
 320 448 l 1,24,-1
 320 416 l 1,25,-1
 352 416 l 1,26,-1
 352 352 l 1,27,-1
 384 352 l 1,28,-1
 384 224 l 1,29,-1
 96 224 l 1,30,-1
 96 128 l 1,31,-1
 128 128 l 1,32,-1
 128 96 l 1,33,-1
 256 96 l 1,34,-1
 256 128 l 1,35,-1
 288 128 l 1,36,-1
 288 160 l 1,37,-1
 384 160 l 1,38,-1
 384 96 l 1,39,-1
 352 96 l 1,40,-1
 352 64 l 1,41,-1
 320 64 l 1,42,-1
 320 32 l 1,43,-1
 256 32 l 1,44,-1
 256 0 l 1,45,-1
 128 0 l 1,8,-1
160 544 m 1,46,-1
 160 576 l 1,47,-1
 128 576 l 1,48,-1
 128 608 l 1,49,-1
 96 608 l 1,50,-1
 96 640 l 1,51,-1
 192 640 l 1,52,-1
 192 608 l 1,53,-1
 224 608 l 1,54,-1
 224 576 l 1,55,-1
 256 576 l 1,56,-1
 256 544 l 1,57,-1
 160 544 l 1,46,-1
EndSplineSet
EndChar

StartChar: eacute
Encoding: 233 233 169
Width: 484
Flags: W
LayerCount: 2
Fore
SplineSet
288 288 m 1,0,-1
 288 352 l 1,1,-1
 256 352 l 1,2,-1
 256 384 l 1,3,-1
 128 384 l 1,4,-1
 128 352 l 1,5,-1
 96 352 l 1,6,-1
 96 288 l 1,7,-1
 288 288 l 1,0,-1
128 0 m 1,8,-1
 128 32 l 1,9,-1
 64 32 l 1,10,-1
 64 64 l 1,11,-1
 32 64 l 1,12,-1
 32 128 l 1,13,-1
 0 128 l 1,14,-1
 0 352 l 1,15,-1
 32 352 l 1,16,-1
 32 416 l 1,17,-1
 64 416 l 1,18,-1
 64 448 l 1,19,-1
 128 448 l 1,20,-1
 128 480 l 1,21,-1
 256 480 l 1,22,-1
 256 448 l 1,23,-1
 320 448 l 1,24,-1
 320 416 l 1,25,-1
 352 416 l 1,26,-1
 352 352 l 1,27,-1
 384 352 l 1,28,-1
 384 224 l 1,29,-1
 96 224 l 1,30,-1
 96 128 l 1,31,-1
 128 128 l 1,32,-1
 128 96 l 1,33,-1
 256 96 l 1,34,-1
 256 128 l 1,35,-1
 288 128 l 1,36,-1
 288 160 l 1,37,-1
 384 160 l 1,38,-1
 384 96 l 1,39,-1
 352 96 l 1,40,-1
 352 64 l 1,41,-1
 320 64 l 1,42,-1
 320 32 l 1,43,-1
 256 32 l 1,44,-1
 256 0 l 1,45,-1
 128 0 l 1,8,-1
160 544 m 1,46,-1
 160 576 l 1,47,-1
 192 576 l 1,48,-1
 192 608 l 1,49,-1
 224 608 l 1,50,-1
 224 640 l 1,51,-1
 320 640 l 1,52,-1
 320 608 l 1,53,-1
 288 608 l 1,54,-1
 288 576 l 1,55,-1
 256 576 l 1,56,-1
 256 544 l 1,57,-1
 160 544 l 1,46,-1
EndSplineSet
EndChar

StartChar: ecircumflex
Encoding: 234 234 170
Width: 480
Flags: W
LayerCount: 2
Fore
SplineSet
288 288 m 1,0,-1
 288 352 l 1,1,-1
 256 352 l 1,2,-1
 256 384 l 1,3,-1
 128 384 l 1,4,-1
 128 352 l 1,5,-1
 96 352 l 1,6,-1
 96 288 l 1,7,-1
 288 288 l 1,0,-1
128 0 m 1,8,-1
 128 32 l 1,9,-1
 64 32 l 1,10,-1
 64 64 l 1,11,-1
 32 64 l 1,12,-1
 32 128 l 1,13,-1
 0 128 l 1,14,-1
 0 352 l 1,15,-1
 32 352 l 1,16,-1
 32 416 l 1,17,-1
 64 416 l 1,18,-1
 64 448 l 1,19,-1
 128 448 l 1,20,-1
 128 480 l 1,21,-1
 256 480 l 1,22,-1
 256 448 l 1,23,-1
 320 448 l 1,24,-1
 320 416 l 1,25,-1
 352 416 l 1,26,-1
 352 352 l 1,27,-1
 384 352 l 1,28,-1
 384 224 l 1,29,-1
 96 224 l 1,30,-1
 96 128 l 1,31,-1
 128 128 l 1,32,-1
 128 96 l 1,33,-1
 256 96 l 1,34,-1
 256 128 l 1,35,-1
 288 128 l 1,36,-1
 288 160 l 1,37,-1
 384 160 l 1,38,-1
 384 96 l 1,39,-1
 352 96 l 1,40,-1
 352 64 l 1,41,-1
 320 64 l 1,42,-1
 320 32 l 1,43,-1
 256 32 l 1,44,-1
 256 0 l 1,45,-1
 128 0 l 1,8,-1
32 512 m 1,46,-1
 32 544 l 1,47,-1
 64 544 l 1,48,-1
 64 576 l 1,49,-1
 96 576 l 1,50,-1
 96 608 l 1,51,-1
 128 608 l 1,52,-1
 128 640 l 1,53,-1
 256 640 l 1,54,-1
 256 608 l 1,55,-1
 288 608 l 1,56,-1
 288 576 l 1,57,-1
 320 576 l 1,58,-1
 320 544 l 1,59,-1
 352 544 l 1,60,-1
 352 512 l 1,61,-1
 288 512 l 1,62,-1
 288 544 l 1,63,-1
 224 544 l 1,64,-1
 224 576 l 1,65,-1
 160 576 l 1,66,-1
 160 544 l 1,67,-1
 96 544 l 1,68,-1
 96 512 l 1,69,-1
 32 512 l 1,46,-1
EndSplineSet
EndChar

StartChar: edieresis
Encoding: 235 235 171
Width: 484
Flags: W
LayerCount: 2
Fore
SplineSet
288 288 m 1,0,-1
 288 352 l 1,1,-1
 256 352 l 1,2,-1
 256 384 l 1,3,-1
 128 384 l 1,4,-1
 128 352 l 1,5,-1
 96 352 l 1,6,-1
 96 288 l 1,7,-1
 288 288 l 1,0,-1
128 0 m 1,8,-1
 128 32 l 1,9,-1
 64 32 l 1,10,-1
 64 64 l 1,11,-1
 32 64 l 1,12,-1
 32 128 l 1,13,-1
 0 128 l 1,14,-1
 0 352 l 1,15,-1
 32 352 l 1,16,-1
 32 416 l 1,17,-1
 64 416 l 1,18,-1
 64 448 l 1,19,-1
 128 448 l 1,20,-1
 128 480 l 1,21,-1
 256 480 l 1,22,-1
 256 448 l 1,23,-1
 320 448 l 1,24,-1
 320 416 l 1,25,-1
 352 416 l 1,26,-1
 352 352 l 1,27,-1
 384 352 l 1,28,-1
 384 224 l 1,29,-1
 96 224 l 1,30,-1
 96 128 l 1,31,-1
 128 128 l 1,32,-1
 128 96 l 1,33,-1
 256 96 l 1,34,-1
 256 128 l 1,35,-1
 288 128 l 1,36,-1
 288 160 l 1,37,-1
 384 160 l 1,38,-1
 384 96 l 1,39,-1
 352 96 l 1,40,-1
 352 64 l 1,41,-1
 320 64 l 1,42,-1
 320 32 l 1,43,-1
 256 32 l 1,44,-1
 256 0 l 1,45,-1
 128 0 l 1,8,-1
64 544 m 1,46,-1
 64 640 l 1,47,-1
 160 640 l 1,48,-1
 160 544 l 1,49,-1
 64 544 l 1,46,-1
224 544 m 1,50,-1
 224 640 l 1,51,-1
 320 640 l 1,52,-1
 320 544 l 1,53,-1
 224 544 l 1,50,-1
EndSplineSet
EndChar

StartChar: igrave
Encoding: 236 236 172
Width: 192
Flags: W
LayerCount: 2
Fore
SplineSet
0 0 m 1,0,-1
 0 480 l 1,1,-1
 96 480 l 1,2,-1
 96 0 l 1,3,-1
 0 0 l 1,0,-1
0 544 m 1,4,-1
 0 576 l 1,5,-1
 -32 576 l 1,6,-1
 -32 608 l 1,7,-1
 -64 608 l 1,8,-1
 -64 640 l 1,9,-1
 32 640 l 1,10,-1
 32 608 l 1,11,-1
 64 608 l 1,12,-1
 64 576 l 1,13,-1
 96 576 l 1,14,-1
 96 544 l 1,15,-1
 0 544 l 1,4,-1
EndSplineSet
EndChar

StartChar: iacute
Encoding: 237 237 173
Width: 256
Flags: W
LayerCount: 2
Fore
SplineSet
0 0 m 1,0,-1
 0 480 l 1,1,-1
 96 480 l 1,2,-1
 96 0 l 1,3,-1
 0 0 l 1,0,-1
0 544 m 1,4,-1
 0 576 l 1,5,-1
 32 576 l 1,6,-1
 32 608 l 1,7,-1
 64 608 l 1,8,-1
 64 640 l 1,9,-1
 160 640 l 1,10,-1
 160 608 l 1,11,-1
 128 608 l 1,12,-1
 128 576 l 1,13,-1
 96 576 l 1,14,-1
 96 544 l 1,15,-1
 0 544 l 1,4,-1
EndSplineSet
EndChar

StartChar: icircumflex
Encoding: 238 238 174
Width: 288
Flags: W
LayerCount: 2
Fore
SplineSet
0 0 m 1,0,-1
 0 480 l 1,1,-1
 96 480 l 1,2,-1
 96 0 l 1,3,-1
 0 0 l 1,0,-1
-96 512 m 1,4,-1
 -96 544 l 1,5,-1
 -64 544 l 1,6,-1
 -64 576 l 1,7,-1
 -32 576 l 1,8,-1
 -32 608 l 1,9,-1
 0 608 l 1,10,-1
 0 640 l 1,11,-1
 32 640 l 1,12,-1
 32 672 l 1,13,-1
 64 672 l 1,14,-1
 64 640 l 1,15,-1
 96 640 l 1,16,-1
 96 608 l 1,17,-1
 128 608 l 1,18,-1
 128 576 l 1,19,-1
 160 576 l 1,20,-1
 160 544 l 1,21,-1
 192 544 l 1,22,-1
 192 512 l 1,23,-1
 128 512 l 1,24,-1
 128 544 l 1,25,-1
 64 544 l 1,26,-1
 64 576 l 1,27,-1
 32 576 l 1,28,-1
 32 544 l 1,29,-1
 -32 544 l 1,30,-1
 -32 512 l 1,31,-1
 -96 512 l 1,4,-1
EndSplineSet
EndChar

StartChar: idieresis
Encoding: 239 239 175
Width: 288
Flags: W
LayerCount: 2
Fore
SplineSet
0 0 m 1,0,-1
 0 480 l 1,1,-1
 96 480 l 1,2,-1
 96 0 l 1,3,-1
 0 0 l 1,0,-1
-96 544 m 1,4,-1
 -96 640 l 1,5,-1
 0 640 l 1,6,-1
 0 544 l 1,7,-1
 -96 544 l 1,4,-1
96 544 m 1,8,-1
 96 640 l 1,9,-1
 192 640 l 1,10,-1
 192 544 l 1,11,-1
 96 544 l 1,8,-1
EndSplineSet
EndChar

StartChar: eth
Encoding: 240 240 176
Width: 512
Flags: W
LayerCount: 2
Fore
SplineSet
288 96 m 1,0,-1
 288 128 l 1,1,-1
 320 128 l 1,2,-1
 320 352 l 1,3,-1
 288 352 l 1,4,-1
 288 384 l 1,5,-1
 128 384 l 1,6,-1
 128 352 l 1,7,-1
 96 352 l 1,8,-1
 96 128 l 1,9,-1
 128 128 l 1,10,-1
 128 96 l 1,11,-1
 288 96 l 1,0,-1
128 0 m 1,12,-1
 128 32 l 1,13,-1
 64 32 l 1,14,-1
 64 64 l 1,15,-1
 32 64 l 1,16,-1
 32 128 l 1,17,-1
 0 128 l 1,18,-1
 0 352 l 1,19,-1
 32 352 l 1,20,-1
 32 416 l 1,21,-1
 64 416 l 1,22,-1
 64 448 l 1,23,-1
 128 448 l 1,24,-1
 128 480 l 1,25,-1
 288 480 l 1,26,-1
 288 448 l 1,27,-1
 320 448 l 1,28,-1
 320 512 l 1,29,-1
 288 512 l 1,30,-1
 288 544 l 1,31,-1
 224 544 l 1,32,-1
 224 512 l 1,33,-1
 128 512 l 1,34,-1
 128 544 l 1,35,-1
 160 544 l 1,36,-1
 160 576 l 1,37,-1
 192 576 l 1,38,-1
 192 608 l 1,39,-1
 96 608 l 1,40,-1
 96 672 l 1,41,-1
 224 672 l 1,42,-1
 224 640 l 1,43,-1
 256 640 l 1,44,-1
 256 672 l 1,45,-1
 288 672 l 1,46,-1
 288 704 l 1,47,-1
 352 704 l 1,48,-1
 352 640 l 1,49,-1
 320 640 l 1,50,-1
 320 576 l 1,51,-1
 352 576 l 1,52,-1
 352 544 l 1,53,-1
 384 544 l 1,54,-1
 384 512 l 1,55,-1
 416 512 l 1,56,-1
 416 128 l 1,57,-1
 384 128 l 1,58,-1
 384 64 l 1,59,-1
 352 64 l 1,60,-1
 352 32 l 1,61,-1
 288 32 l 1,62,-1
 288 0 l 1,63,-1
 128 0 l 1,12,-1
EndSplineSet
EndChar

StartChar: ntilde
Encoding: 241 241 177
Width: 512
Flags: W
LayerCount: 2
Fore
SplineSet
0 0 m 1,0,-1
 0 480 l 1,1,-1
 96 480 l 1,2,-1
 96 416 l 1,3,-1
 128 416 l 1,4,-1
 128 448 l 1,5,-1
 160 448 l 1,6,-1
 160 480 l 1,7,-1
 288 480 l 1,8,-1
 288 448 l 1,9,-1
 352 448 l 1,10,-1
 352 416 l 1,11,-1
 384 416 l 1,12,-1
 384 352 l 1,13,-1
 416 352 l 1,14,-1
 416 0 l 1,15,-1
 320 0 l 1,16,-1
 320 352 l 1,17,-1
 288 352 l 1,18,-1
 288 384 l 1,19,-1
 160 384 l 1,20,-1
 160 352 l 1,21,-1
 128 352 l 1,22,-1
 128 320 l 1,23,-1
 96 320 l 1,24,-1
 96 0 l 1,25,-1
 0 0 l 1,0,-1
224 512 m 1,26,-1
 224 544 l 1,27,-1
 192 544 l 1,28,-1
 192 576 l 1,29,-1
 160 576 l 1,30,-1
 160 608 l 1,31,-1
 96 608 l 1,32,-1
 96 576 l 1,33,-1
 64 576 l 1,34,-1
 64 544 l 1,35,-1
 32 544 l 1,36,-1
 32 608 l 1,37,-1
 64 608 l 1,38,-1
 64 640 l 1,39,-1
 96 640 l 1,40,-1
 96 672 l 1,41,-1
 192 672 l 1,42,-1
 192 640 l 1,43,-1
 224 640 l 1,44,-1
 224 608 l 1,45,-1
 256 608 l 1,46,-1
 256 576 l 1,47,-1
 320 576 l 1,48,-1
 320 608 l 1,49,-1
 352 608 l 1,50,-1
 352 640 l 1,51,-1
 384 640 l 1,52,-1
 384 576 l 1,53,-1
 352 576 l 1,54,-1
 352 544 l 1,55,-1
 320 544 l 1,56,-1
 320 512 l 1,57,-1
 224 512 l 1,26,-1
EndSplineSet
EndChar

StartChar: ograve
Encoding: 242 242 178
Width: 480
Flags: W
LayerCount: 2
Fore
SplineSet
256 96 m 1,0,-1
 256 128 l 1,1,-1
 288 128 l 1,2,-1
 288 352 l 1,3,-1
 256 352 l 1,4,-1
 256 384 l 1,5,-1
 128 384 l 1,6,-1
 128 352 l 1,7,-1
 96 352 l 1,8,-1
 96 128 l 1,9,-1
 128 128 l 1,10,-1
 128 96 l 1,11,-1
 256 96 l 1,0,-1
128 0 m 1,12,-1
 128 32 l 1,13,-1
 64 32 l 1,14,-1
 64 64 l 1,15,-1
 32 64 l 1,16,-1
 32 128 l 1,17,-1
 0 128 l 1,18,-1
 0 352 l 1,19,-1
 32 352 l 1,20,-1
 32 416 l 1,21,-1
 64 416 l 1,22,-1
 64 448 l 1,23,-1
 128 448 l 1,24,-1
 128 480 l 1,25,-1
 256 480 l 1,26,-1
 256 448 l 1,27,-1
 320 448 l 1,28,-1
 320 416 l 1,29,-1
 352 416 l 1,30,-1
 352 352 l 1,31,-1
 384 352 l 1,32,-1
 384 128 l 1,33,-1
 352 128 l 1,34,-1
 352 64 l 1,35,-1
 320 64 l 1,36,-1
 320 32 l 1,37,-1
 256 32 l 1,38,-1
 256 0 l 1,39,-1
 128 0 l 1,12,-1
160 544 m 1,40,-1
 160 576 l 1,41,-1
 128 576 l 1,42,-1
 128 608 l 1,43,-1
 96 608 l 1,44,-1
 96 640 l 1,45,-1
 192 640 l 1,46,-1
 192 608 l 1,47,-1
 224 608 l 1,48,-1
 224 576 l 1,49,-1
 256 576 l 1,50,-1
 256 544 l 1,51,-1
 160 544 l 1,40,-1
EndSplineSet
EndChar

StartChar: oacute
Encoding: 243 243 179
Width: 480
Flags: W
LayerCount: 2
Fore
SplineSet
256 96 m 1,0,-1
 256 128 l 1,1,-1
 288 128 l 1,2,-1
 288 352 l 1,3,-1
 256 352 l 1,4,-1
 256 384 l 1,5,-1
 128 384 l 1,6,-1
 128 352 l 1,7,-1
 96 352 l 1,8,-1
 96 128 l 1,9,-1
 128 128 l 1,10,-1
 128 96 l 1,11,-1
 256 96 l 1,0,-1
128 0 m 1,12,-1
 128 32 l 1,13,-1
 64 32 l 1,14,-1
 64 64 l 1,15,-1
 32 64 l 1,16,-1
 32 128 l 1,17,-1
 0 128 l 1,18,-1
 0 352 l 1,19,-1
 32 352 l 1,20,-1
 32 416 l 1,21,-1
 64 416 l 1,22,-1
 64 448 l 1,23,-1
 128 448 l 1,24,-1
 128 480 l 1,25,-1
 256 480 l 1,26,-1
 256 448 l 1,27,-1
 320 448 l 1,28,-1
 320 416 l 1,29,-1
 352 416 l 1,30,-1
 352 352 l 1,31,-1
 384 352 l 1,32,-1
 384 128 l 1,33,-1
 352 128 l 1,34,-1
 352 64 l 1,35,-1
 320 64 l 1,36,-1
 320 32 l 1,37,-1
 256 32 l 1,38,-1
 256 0 l 1,39,-1
 128 0 l 1,12,-1
160 544 m 1,40,-1
 160 576 l 1,41,-1
 192 576 l 1,42,-1
 192 608 l 1,43,-1
 224 608 l 1,44,-1
 224 640 l 1,45,-1
 320 640 l 1,46,-1
 320 608 l 1,47,-1
 288 608 l 1,48,-1
 288 576 l 1,49,-1
 256 576 l 1,50,-1
 256 544 l 1,51,-1
 160 544 l 1,40,-1
EndSplineSet
EndChar

StartChar: ocircumflex
Encoding: 244 244 180
Width: 480
Flags: W
LayerCount: 2
Fore
SplineSet
256 96 m 1,0,-1
 256 128 l 1,1,-1
 288 128 l 1,2,-1
 288 352 l 1,3,-1
 256 352 l 1,4,-1
 256 384 l 1,5,-1
 128 384 l 1,6,-1
 128 352 l 1,7,-1
 96 352 l 1,8,-1
 96 128 l 1,9,-1
 128 128 l 1,10,-1
 128 96 l 1,11,-1
 256 96 l 1,0,-1
128 0 m 1,12,-1
 128 32 l 1,13,-1
 64 32 l 1,14,-1
 64 64 l 1,15,-1
 32 64 l 1,16,-1
 32 128 l 1,17,-1
 0 128 l 1,18,-1
 0 352 l 1,19,-1
 32 352 l 1,20,-1
 32 416 l 1,21,-1
 64 416 l 1,22,-1
 64 448 l 1,23,-1
 128 448 l 1,24,-1
 128 480 l 1,25,-1
 256 480 l 1,26,-1
 256 448 l 1,27,-1
 320 448 l 1,28,-1
 320 416 l 1,29,-1
 352 416 l 1,30,-1
 352 352 l 1,31,-1
 384 352 l 1,32,-1
 384 128 l 1,33,-1
 352 128 l 1,34,-1
 352 64 l 1,35,-1
 320 64 l 1,36,-1
 320 32 l 1,37,-1
 256 32 l 1,38,-1
 256 0 l 1,39,-1
 128 0 l 1,12,-1
32 512 m 1,40,-1
 32 544 l 1,41,-1
 64 544 l 1,42,-1
 64 576 l 1,43,-1
 96 576 l 1,44,-1
 96 608 l 1,45,-1
 128 608 l 1,46,-1
 128 640 l 1,47,-1
 256 640 l 1,48,-1
 256 608 l 1,49,-1
 288 608 l 1,50,-1
 288 576 l 1,51,-1
 320 576 l 1,52,-1
 320 544 l 1,53,-1
 352 544 l 1,54,-1
 352 512 l 1,55,-1
 288 512 l 1,56,-1
 288 544 l 1,57,-1
 224 544 l 1,58,-1
 224 576 l 1,59,-1
 160 576 l 1,60,-1
 160 544 l 1,61,-1
 96 544 l 1,62,-1
 96 512 l 1,63,-1
 32 512 l 1,40,-1
EndSplineSet
EndChar

StartChar: otilde
Encoding: 245 245 181
Width: 480
Flags: W
LayerCount: 2
Fore
SplineSet
256 96 m 1,0,-1
 256 128 l 1,1,-1
 288 128 l 1,2,-1
 288 352 l 1,3,-1
 256 352 l 1,4,-1
 256 384 l 1,5,-1
 128 384 l 1,6,-1
 128 352 l 1,7,-1
 96 352 l 1,8,-1
 96 128 l 1,9,-1
 128 128 l 1,10,-1
 128 96 l 1,11,-1
 256 96 l 1,0,-1
128 0 m 1,12,-1
 128 32 l 1,13,-1
 64 32 l 1,14,-1
 64 64 l 1,15,-1
 32 64 l 1,16,-1
 32 128 l 1,17,-1
 0 128 l 1,18,-1
 0 352 l 1,19,-1
 32 352 l 1,20,-1
 32 416 l 1,21,-1
 64 416 l 1,22,-1
 64 448 l 1,23,-1
 128 448 l 1,24,-1
 128 480 l 1,25,-1
 256 480 l 1,26,-1
 256 448 l 1,27,-1
 320 448 l 1,28,-1
 320 416 l 1,29,-1
 352 416 l 1,30,-1
 352 352 l 1,31,-1
 384 352 l 1,32,-1
 384 128 l 1,33,-1
 352 128 l 1,34,-1
 352 64 l 1,35,-1
 320 64 l 1,36,-1
 320 32 l 1,37,-1
 256 32 l 1,38,-1
 256 0 l 1,39,-1
 128 0 l 1,12,-1
224 512 m 1,40,-1
 224 544 l 1,41,-1
 192 544 l 1,42,-1
 192 576 l 1,43,-1
 160 576 l 1,44,-1
 160 608 l 1,45,-1
 96 608 l 1,46,-1
 96 576 l 1,47,-1
 64 576 l 1,48,-1
 64 544 l 1,49,-1
 32 544 l 1,50,-1
 32 608 l 1,51,-1
 64 608 l 1,52,-1
 64 640 l 1,53,-1
 96 640 l 1,54,-1
 96 672 l 1,55,-1
 192 672 l 1,56,-1
 192 640 l 1,57,-1
 224 640 l 1,58,-1
 224 608 l 1,59,-1
 256 608 l 1,60,-1
 256 576 l 1,61,-1
 320 576 l 1,62,-1
 320 608 l 1,63,-1
 352 608 l 1,64,-1
 352 640 l 1,65,-1
 384 640 l 1,66,-1
 384 576 l 1,67,-1
 352 576 l 1,68,-1
 352 544 l 1,69,-1
 320 544 l 1,70,-1
 320 512 l 1,71,-1
 224 512 l 1,40,-1
EndSplineSet
EndChar

StartChar: odieresis
Encoding: 246 246 182
Width: 480
Flags: W
LayerCount: 2
Fore
SplineSet
256 96 m 1,0,-1
 256 128 l 1,1,-1
 288 128 l 1,2,-1
 288 352 l 1,3,-1
 256 352 l 1,4,-1
 256 384 l 1,5,-1
 128 384 l 1,6,-1
 128 352 l 1,7,-1
 96 352 l 1,8,-1
 96 128 l 1,9,-1
 128 128 l 1,10,-1
 128 96 l 1,11,-1
 256 96 l 1,0,-1
128 0 m 1,12,-1
 128 32 l 1,13,-1
 64 32 l 1,14,-1
 64 64 l 1,15,-1
 32 64 l 1,16,-1
 32 128 l 1,17,-1
 0 128 l 1,18,-1
 0 352 l 1,19,-1
 32 352 l 1,20,-1
 32 416 l 1,21,-1
 64 416 l 1,22,-1
 64 448 l 1,23,-1
 128 448 l 1,24,-1
 128 480 l 1,25,-1
 256 480 l 1,26,-1
 256 448 l 1,27,-1
 320 448 l 1,28,-1
 320 416 l 1,29,-1
 352 416 l 1,30,-1
 352 352 l 1,31,-1
 384 352 l 1,32,-1
 384 128 l 1,33,-1
 352 128 l 1,34,-1
 352 64 l 1,35,-1
 320 64 l 1,36,-1
 320 32 l 1,37,-1
 256 32 l 1,38,-1
 256 0 l 1,39,-1
 128 0 l 1,12,-1
64 544 m 1,40,-1
 64 640 l 1,41,-1
 160 640 l 1,42,-1
 160 544 l 1,43,-1
 64 544 l 1,40,-1
224 544 m 1,44,-1
 224 640 l 1,45,-1
 320 640 l 1,46,-1
 320 544 l 1,47,-1
 224 544 l 1,44,-1
EndSplineSet
EndChar

StartChar: divide
Encoding: 247 247 183
Width: 480
Flags: W
LayerCount: 2
Fore
SplineSet
160 64 m 1,0,-1
 160 160 l 1,1,-1
 256 160 l 1,2,-1
 256 64 l 1,3,-1
 160 64 l 1,0,-1
0 224 m 1,4,-1
 0 288 l 1,5,-1
 416 288 l 1,6,-1
 416 224 l 1,7,-1
 0 224 l 1,4,-1
160 352 m 1,8,-1
 160 448 l 1,9,-1
 256 448 l 1,10,-1
 256 352 l 1,11,-1
 160 352 l 1,8,-1
EndSplineSet
EndChar

StartChar: oslash
Encoding: 248 248 184
Width: 544
Flags: W
LayerCount: 2
Fore
SplineSet
256 96 m 1,0,-1
 256 128 l 1,1,-1
 288 128 l 1,2,-1
 288 256 l 1,3,-1
 256 256 l 1,4,-1
 256 224 l 1,5,-1
 224 224 l 1,6,-1
 224 192 l 1,7,-1
 192 192 l 1,8,-1
 192 160 l 1,9,-1
 160 160 l 1,10,-1
 160 128 l 1,11,-1
 128 128 l 1,12,-1
 128 96 l 1,13,-1
 256 96 l 1,0,-1
128 160 m 1,14,-1
 128 192 l 1,15,-1
 160 192 l 1,16,-1
 160 224 l 1,17,-1
 192 224 l 1,18,-1
 192 256 l 1,19,-1
 224 256 l 1,20,-1
 224 288 l 1,21,-1
 256 288 l 1,22,-1
 256 320 l 1,23,-1
 288 320 l 1,24,-1
 288 352 l 1,25,-1
 256 352 l 1,26,-1
 256 384 l 1,27,-1
 128 384 l 1,28,-1
 128 352 l 1,29,-1
 96 352 l 1,30,-1
 96 160 l 1,31,-1
 128 160 l 1,14,-1
-32 -32 m 1,32,-1
 -32 32 l 1,33,-1
 0 32 l 1,34,-1
 0 64 l 1,35,-1
 32 64 l 1,36,-1
 32 128 l 1,37,-1
 0 128 l 1,38,-1
 0 352 l 1,39,-1
 32 352 l 1,40,-1
 32 416 l 1,41,-1
 64 416 l 1,42,-1
 64 448 l 1,43,-1
 128 448 l 1,44,-1
 128 480 l 1,45,-1
 256 480 l 1,46,-1
 256 448 l 1,47,-1
 320 448 l 1,48,-1
 320 416 l 1,49,-1
 384 416 l 1,50,-1
 384 448 l 1,51,-1
 416 448 l 1,52,-1
 416 480 l 1,53,-1
 448 480 l 1,54,-1
 448 416 l 1,55,-1
 416 416 l 1,56,-1
 416 384 l 1,57,-1
 384 384 l 1,58,-1
 384 128 l 1,59,-1
 352 128 l 1,60,-1
 352 64 l 1,61,-1
 320 64 l 1,62,-1
 320 32 l 1,63,-1
 256 32 l 1,64,-1
 256 0 l 1,65,-1
 128 0 l 1,66,-1
 128 32 l 1,67,-1
 32 32 l 1,68,-1
 32 0 l 1,69,-1
 0 0 l 1,70,-1
 0 -32 l 1,71,-1
 -32 -32 l 1,32,-1
EndSplineSet
EndChar

StartChar: ugrave
Encoding: 249 249 185
Width: 480
Flags: W
LayerCount: 2
Fore
SplineSet
64 0 m 1,0,-1
 64 32 l 1,1,-1
 32 32 l 1,2,-1
 32 64 l 1,3,-1
 0 64 l 1,4,-1
 0 480 l 1,5,-1
 96 480 l 1,6,-1
 96 128 l 1,7,-1
 128 128 l 1,8,-1
 128 96 l 1,9,-1
 224 96 l 1,10,-1
 224 128 l 1,11,-1
 256 128 l 1,12,-1
 256 160 l 1,13,-1
 288 160 l 1,14,-1
 288 480 l 1,15,-1
 384 480 l 1,16,-1
 384 0 l 1,17,-1
 288 0 l 1,18,-1
 288 64 l 1,19,-1
 256 64 l 1,20,-1
 256 32 l 1,21,-1
 224 32 l 1,22,-1
 224 0 l 1,23,-1
 64 0 l 1,0,-1
160 544 m 1,24,-1
 160 576 l 1,25,-1
 128 576 l 1,26,-1
 128 608 l 1,27,-1
 96 608 l 1,28,-1
 96 640 l 1,29,-1
 192 640 l 1,30,-1
 192 608 l 1,31,-1
 224 608 l 1,32,-1
 224 576 l 1,33,-1
 256 576 l 1,34,-1
 256 544 l 1,35,-1
 160 544 l 1,24,-1
EndSplineSet
EndChar

StartChar: uacute
Encoding: 250 250 186
Width: 480
Flags: W
LayerCount: 2
Fore
SplineSet
64 0 m 1,0,-1
 64 32 l 1,1,-1
 32 32 l 1,2,-1
 32 64 l 1,3,-1
 0 64 l 1,4,-1
 0 480 l 1,5,-1
 96 480 l 1,6,-1
 96 128 l 1,7,-1
 128 128 l 1,8,-1
 128 96 l 1,9,-1
 224 96 l 1,10,-1
 224 128 l 1,11,-1
 256 128 l 1,12,-1
 256 160 l 1,13,-1
 288 160 l 1,14,-1
 288 480 l 1,15,-1
 384 480 l 1,16,-1
 384 0 l 1,17,-1
 288 0 l 1,18,-1
 288 64 l 1,19,-1
 256 64 l 1,20,-1
 256 32 l 1,21,-1
 224 32 l 1,22,-1
 224 0 l 1,23,-1
 64 0 l 1,0,-1
128 544 m 1,24,-1
 128 576 l 1,25,-1
 160 576 l 1,26,-1
 160 608 l 1,27,-1
 192 608 l 1,28,-1
 192 640 l 1,29,-1
 288 640 l 1,30,-1
 288 608 l 1,31,-1
 256 608 l 1,32,-1
 256 576 l 1,33,-1
 224 576 l 1,34,-1
 224 544 l 1,35,-1
 128 544 l 1,24,-1
EndSplineSet
EndChar

StartChar: ucircumflex
Encoding: 251 251 187
Width: 480
Flags: W
LayerCount: 2
Fore
SplineSet
64 0 m 1,0,-1
 64 32 l 1,1,-1
 32 32 l 1,2,-1
 32 64 l 1,3,-1
 0 64 l 1,4,-1
 0 480 l 1,5,-1
 96 480 l 1,6,-1
 96 128 l 1,7,-1
 128 128 l 1,8,-1
 128 96 l 1,9,-1
 224 96 l 1,10,-1
 224 128 l 1,11,-1
 256 128 l 1,12,-1
 256 160 l 1,13,-1
 288 160 l 1,14,-1
 288 480 l 1,15,-1
 384 480 l 1,16,-1
 384 0 l 1,17,-1
 288 0 l 1,18,-1
 288 64 l 1,19,-1
 256 64 l 1,20,-1
 256 32 l 1,21,-1
 224 32 l 1,22,-1
 224 0 l 1,23,-1
 64 0 l 1,0,-1
32 512 m 1,24,-1
 32 544 l 1,25,-1
 64 544 l 1,26,-1
 64 576 l 1,27,-1
 96 576 l 1,28,-1
 96 608 l 1,29,-1
 128 608 l 1,30,-1
 128 640 l 1,31,-1
 256 640 l 1,32,-1
 256 608 l 1,33,-1
 288 608 l 1,34,-1
 288 576 l 1,35,-1
 320 576 l 1,36,-1
 320 544 l 1,37,-1
 352 544 l 1,38,-1
 352 512 l 1,39,-1
 288 512 l 1,40,-1
 288 544 l 1,41,-1
 224 544 l 1,42,-1
 224 576 l 1,43,-1
 160 576 l 1,44,-1
 160 544 l 1,45,-1
 96 544 l 1,46,-1
 96 512 l 1,47,-1
 32 512 l 1,24,-1
EndSplineSet
EndChar

StartChar: udieresis
Encoding: 252 252 188
Width: 480
Flags: W
LayerCount: 2
Fore
SplineSet
64 0 m 1,0,-1
 64 32 l 1,1,-1
 32 32 l 1,2,-1
 32 64 l 1,3,-1
 0 64 l 1,4,-1
 0 480 l 1,5,-1
 96 480 l 1,6,-1
 96 128 l 1,7,-1
 128 128 l 1,8,-1
 128 96 l 1,9,-1
 224 96 l 1,10,-1
 224 128 l 1,11,-1
 256 128 l 1,12,-1
 256 160 l 1,13,-1
 288 160 l 1,14,-1
 288 480 l 1,15,-1
 384 480 l 1,16,-1
 384 0 l 1,17,-1
 288 0 l 1,18,-1
 288 64 l 1,19,-1
 256 64 l 1,20,-1
 256 32 l 1,21,-1
 224 32 l 1,22,-1
 224 0 l 1,23,-1
 64 0 l 1,0,-1
64 544 m 1,24,-1
 64 640 l 1,25,-1
 160 640 l 1,26,-1
 160 544 l 1,27,-1
 64 544 l 1,24,-1
224 544 m 1,28,-1
 224 640 l 1,29,-1
 320 640 l 1,30,-1
 320 544 l 1,31,-1
 224 544 l 1,28,-1
EndSplineSet
EndChar

StartChar: yacute
Encoding: 253 253 189
Width: 480
Flags: W
LayerCount: 2
Fore
SplineSet
96 -192 m 1,0,-1
 96 -96 l 1,1,-1
 128 -96 l 1,2,-1
 128 0 l 1,3,-1
 160 0 l 1,4,-1
 160 64 l 1,5,-1
 128 64 l 1,6,-1
 128 128 l 1,7,-1
 96 128 l 1,8,-1
 96 192 l 1,9,-1
 64 192 l 1,10,-1
 64 288 l 1,11,-1
 32 288 l 1,12,-1
 32 384 l 1,13,-1
 0 384 l 1,14,-1
 0 480 l 1,15,-1
 96 480 l 1,16,-1
 96 384 l 1,17,-1
 128 384 l 1,18,-1
 128 288 l 1,19,-1
 160 288 l 1,20,-1
 160 192 l 1,21,-1
 192 192 l 1,22,-1
 192 160 l 1,23,-1
 224 160 l 1,24,-1
 224 288 l 1,25,-1
 256 288 l 1,26,-1
 256 384 l 1,27,-1
 288 384 l 1,28,-1
 288 480 l 1,29,-1
 384 480 l 1,30,-1
 384 384 l 1,31,-1
 352 384 l 1,32,-1
 352 288 l 1,33,-1
 320 288 l 1,34,-1
 320 192 l 1,35,-1
 288 192 l 1,36,-1
 288 96 l 1,37,-1
 256 96 l 1,38,-1
 256 0 l 1,39,-1
 224 0 l 1,40,-1
 224 -96 l 1,41,-1
 192 -96 l 1,42,-1
 192 -192 l 1,43,-1
 96 -192 l 1,0,-1
128 544 m 1,44,-1
 128 576 l 1,45,-1
 160 576 l 1,46,-1
 160 608 l 1,47,-1
 192 608 l 1,48,-1
 192 640 l 1,49,-1
 288 640 l 1,50,-1
 288 608 l 1,51,-1
 256 608 l 1,52,-1
 256 576 l 1,53,-1
 224 576 l 1,54,-1
 224 544 l 1,55,-1
 128 544 l 1,44,-1
EndSplineSet
EndChar

StartChar: thorn
Encoding: 254 254 190
Width: 448
Flags: W
LayerCount: 2
Fore
SplineSet
256 160 m 1,0,-1
 256 192 l 1,1,-1
 288 192 l 1,2,-1
 288 256 l 1,3,-1
 256 256 l 1,4,-1
 256 288 l 1,5,-1
 96 288 l 1,6,-1
 96 160 l 1,7,-1
 256 160 l 1,0,-1
0 0 m 1,8,-1
 0 480 l 1,9,-1
 96 480 l 1,10,-1
 96 352 l 1,11,-1
 320 352 l 1,12,-1
 320 320 l 1,13,-1
 352 320 l 1,14,-1
 352 288 l 1,15,-1
 384 288 l 1,16,-1
 384 160 l 1,17,-1
 352 160 l 1,18,-1
 352 128 l 1,19,-1
 320 128 l 1,20,-1
 320 96 l 1,21,-1
 96 96 l 1,22,-1
 96 0 l 1,23,-1
 0 0 l 1,8,-1
EndSplineSet
EndChar

StartChar: ydieresis
Encoding: 255 255 191
Width: 480
Flags: W
LayerCount: 2
Fore
SplineSet
96 -192 m 1,0,-1
 96 -96 l 1,1,-1
 128 -96 l 1,2,-1
 128 0 l 1,3,-1
 160 0 l 1,4,-1
 160 64 l 1,5,-1
 128 64 l 1,6,-1
 128 128 l 1,7,-1
 96 128 l 1,8,-1
 96 192 l 1,9,-1
 64 192 l 1,10,-1
 64 288 l 1,11,-1
 32 288 l 1,12,-1
 32 384 l 1,13,-1
 0 384 l 1,14,-1
 0 480 l 1,15,-1
 96 480 l 1,16,-1
 96 384 l 1,17,-1
 128 384 l 1,18,-1
 128 288 l 1,19,-1
 160 288 l 1,20,-1
 160 192 l 1,21,-1
 192 192 l 1,22,-1
 192 160 l 1,23,-1
 224 160 l 1,24,-1
 224 288 l 1,25,-1
 256 288 l 1,26,-1
 256 384 l 1,27,-1
 288 384 l 1,28,-1
 288 480 l 1,29,-1
 384 480 l 1,30,-1
 384 384 l 1,31,-1
 352 384 l 1,32,-1
 352 288 l 1,33,-1
 320 288 l 1,34,-1
 320 192 l 1,35,-1
 288 192 l 1,36,-1
 288 96 l 1,37,-1
 256 96 l 1,38,-1
 256 0 l 1,39,-1
 224 0 l 1,40,-1
 224 -96 l 1,41,-1
 192 -96 l 1,42,-1
 192 -192 l 1,43,-1
 96 -192 l 1,0,-1
64 544 m 1,44,-1
 64 640 l 1,45,-1
 160 640 l 1,46,-1
 160 544 l 1,47,-1
 64 544 l 1,44,-1
224 544 m 1,48,-1
 224 640 l 1,49,-1
 320 640 l 1,50,-1
 320 544 l 1,51,-1
 224 544 l 1,48,-1
EndSplineSet
EndChar

StartChar: oe
Encoding: 339 339 192
Width: 736
Flags: W
LayerCount: 2
Fore
SplineSet
256 96 m 1,0,-1
 256 128 l 1,1,-1
 288 128 l 1,2,-1
 288 352 l 1,3,-1
 256 352 l 1,4,-1
 256 384 l 1,5,-1
 128 384 l 1,6,-1
 128 352 l 1,7,-1
 96 352 l 1,8,-1
 96 128 l 1,9,-1
 128 128 l 1,10,-1
 128 96 l 1,11,-1
 256 96 l 1,0,-1
576 288 m 1,12,-1
 576 352 l 1,13,-1
 544 352 l 1,14,-1
 544 384 l 1,15,-1
 416 384 l 1,16,-1
 416 352 l 1,17,-1
 384 352 l 1,18,-1
 384 288 l 1,19,-1
 576 288 l 1,12,-1
128 0 m 1,20,-1
 128 32 l 1,21,-1
 64 32 l 1,22,-1
 64 64 l 1,23,-1
 32 64 l 1,24,-1
 32 128 l 1,25,-1
 0 128 l 1,26,-1
 0 352 l 1,27,-1
 32 352 l 1,28,-1
 32 416 l 1,29,-1
 64 416 l 1,30,-1
 64 448 l 1,31,-1
 128 448 l 1,32,-1
 128 480 l 1,33,-1
 256 480 l 1,34,-1
 256 448 l 1,35,-1
 320 448 l 1,36,-1
 320 416 l 1,37,-1
 352 416 l 1,38,-1
 352 448 l 1,39,-1
 416 448 l 1,40,-1
 416 480 l 1,41,-1
 544 480 l 1,42,-1
 544 448 l 1,43,-1
 608 448 l 1,44,-1
 608 416 l 1,45,-1
 640 416 l 1,46,-1
 640 352 l 1,47,-1
 672 352 l 1,48,-1
 672 224 l 1,49,-1
 384 224 l 1,50,-1
 384 128 l 1,51,-1
 416 128 l 1,52,-1
 416 96 l 1,53,-1
 544 96 l 1,54,-1
 544 128 l 1,55,-1
 576 128 l 1,56,-1
 576 160 l 1,57,-1
 672 160 l 1,58,-1
 672 96 l 1,59,-1
 640 96 l 1,60,-1
 640 64 l 1,61,-1
 608 64 l 1,62,-1
 608 32 l 1,63,-1
 544 32 l 1,64,-1
 544 0 l 1,65,-1
 416 0 l 1,66,-1
 416 32 l 1,67,-1
 352 32 l 1,68,-1
 352 64 l 1,69,-1
 320 64 l 1,70,-1
 320 32 l 1,71,-1
 256 32 l 1,72,-1
 256 0 l 1,73,-1
 128 0 l 1,20,-1
EndSplineSet
EndChar

StartChar: scaron
Encoding: 353 353 193
Width: 416
Flags: W
LayerCount: 2
Fore
SplineSet
64 0 m 1,0,-1
 64 32 l 1,1,-1
 32 32 l 1,2,-1
 32 64 l 1,3,-1
 0 64 l 1,4,-1
 0 128 l 1,5,-1
 32 128 l 1,6,-1
 32 160 l 1,7,-1
 64 160 l 1,8,-1
 64 128 l 1,9,-1
 96 128 l 1,10,-1
 96 96 l 1,11,-1
 128 96 l 1,12,-1
 128 64 l 1,13,-1
 192 64 l 1,14,-1
 192 96 l 1,15,-1
 224 96 l 1,16,-1
 224 160 l 1,17,-1
 192 160 l 1,18,-1
 192 192 l 1,19,-1
 160 192 l 1,20,-1
 160 224 l 1,21,-1
 96 224 l 1,22,-1
 96 256 l 1,23,-1
 64 256 l 1,24,-1
 64 288 l 1,25,-1
 32 288 l 1,26,-1
 32 320 l 1,27,-1
 0 320 l 1,28,-1
 0 416 l 1,29,-1
 32 416 l 1,30,-1
 32 448 l 1,31,-1
 64 448 l 1,32,-1
 64 480 l 1,33,-1
 256 480 l 1,34,-1
 256 448 l 1,35,-1
 288 448 l 1,36,-1
 288 352 l 1,37,-1
 224 352 l 1,38,-1
 224 384 l 1,39,-1
 192 384 l 1,40,-1
 192 416 l 1,41,-1
 128 416 l 1,42,-1
 128 384 l 1,43,-1
 96 384 l 1,44,-1
 96 352 l 1,45,-1
 128 352 l 1,46,-1
 128 320 l 1,47,-1
 160 320 l 1,48,-1
 160 288 l 1,49,-1
 224 288 l 1,50,-1
 224 256 l 1,51,-1
 256 256 l 1,52,-1
 256 224 l 1,53,-1
 288 224 l 1,54,-1
 288 192 l 1,55,-1
 320 192 l 1,56,-1
 320 64 l 1,57,-1
 288 64 l 1,58,-1
 288 32 l 1,59,-1
 256 32 l 1,60,-1
 256 0 l 1,61,-1
 64 0 l 1,0,-1
96 512 m 1,62,-1
 96 544 l 1,63,-1
 64 544 l 1,64,-1
 64 576 l 1,65,-1
 32 576 l 1,66,-1
 32 608 l 1,67,-1
 0 608 l 1,68,-1
 0 640 l 1,69,-1
 64 640 l 1,70,-1
 64 608 l 1,71,-1
 128 608 l 1,72,-1
 128 576 l 1,73,-1
 192 576 l 1,74,-1
 192 608 l 1,75,-1
 256 608 l 1,76,-1
 256 640 l 1,77,-1
 320 640 l 1,78,-1
 320 608 l 1,79,-1
 288 608 l 1,80,-1
 288 576 l 1,81,-1
 256 576 l 1,82,-1
 256 544 l 1,83,-1
 224 544 l 1,84,-1
 224 512 l 1,85,-1
 96 512 l 1,62,-1
EndSplineSet
EndChar

StartChar: Ydieresis
Encoding: 376 376 194
Width: 640
Flags: W
LayerCount: 2
Fore
SplineSet
224 0 m 1,0,-1
 224 224 l 1,1,-1
 192 224 l 1,2,-1
 192 288 l 1,3,-1
 160 288 l 1,4,-1
 160 352 l 1,5,-1
 128 352 l 1,6,-1
 128 416 l 1,7,-1
 96 416 l 1,8,-1
 96 480 l 1,9,-1
 64 480 l 1,10,-1
 64 544 l 1,11,-1
 32 544 l 1,12,-1
 32 608 l 1,13,-1
 0 608 l 1,14,-1
 0 640 l 1,15,-1
 128 640 l 1,16,-1
 128 576 l 1,17,-1
 160 576 l 1,18,-1
 160 512 l 1,19,-1
 192 512 l 1,20,-1
 192 448 l 1,21,-1
 224 448 l 1,22,-1
 224 384 l 1,23,-1
 256 384 l 1,24,-1
 256 320 l 1,25,-1
 288 320 l 1,26,-1
 288 384 l 1,27,-1
 320 384 l 1,28,-1
 320 448 l 1,29,-1
 352 448 l 1,30,-1
 352 512 l 1,31,-1
 384 512 l 1,32,-1
 384 576 l 1,33,-1
 416 576 l 1,34,-1
 416 640 l 1,35,-1
 544 640 l 1,36,-1
 544 608 l 1,37,-1
 512 608 l 1,38,-1
 512 544 l 1,39,-1
 480 544 l 1,40,-1
 480 480 l 1,41,-1
 448 480 l 1,42,-1
 448 416 l 1,43,-1
 416 416 l 1,44,-1
 416 352 l 1,45,-1
 384 352 l 1,46,-1
 384 288 l 1,47,-1
 352 288 l 1,48,-1
 352 224 l 1,49,-1
 320 224 l 1,50,-1
 320 0 l 1,51,-1
 224 0 l 1,0,-1
128 704 m 1,52,-1
 128 800 l 1,53,-1
 224 800 l 1,54,-1
 224 704 l 1,55,-1
 128 704 l 1,52,-1
320 704 m 1,56,-1
 320 800 l 1,57,-1
 416 800 l 1,58,-1
 416 704 l 1,59,-1
 320 704 l 1,56,-1
EndSplineSet
EndChar

StartChar: uni1E9E
Encoding: 7838 7838 195
Width: 576
Flags: W
LayerCount: 2
Fore
SplineSet
0 0 m 1,0,-1
 0 512 l 1,1,-1
 32 512 l 1,2,-1
 32 576 l 1,3,-1
 64 576 l 1,4,-1
 64 608 l 1,5,-1
 128 608 l 1,6,-1
 128 640 l 1,7,-1
 352 640 l 1,8,-1
 352 608 l 1,9,-1
 384 608 l 1,10,-1
 384 544 l 1,11,-1
 416 544 l 1,12,-1
 416 384 l 1,13,-1
 384 384 l 1,14,-1
 384 352 l 1,15,-1
 352 352 l 1,16,-1
 352 320 l 1,17,-1
 384 320 l 1,18,-1
 384 288 l 1,19,-1
 416 288 l 1,20,-1
 416 256 l 1,21,-1
 448 256 l 1,22,-1
 448 224 l 1,23,-1
 480 224 l 1,24,-1
 480 96 l 1,25,-1
 448 96 l 1,26,-1
 448 64 l 1,27,-1
 416 64 l 1,28,-1
 416 32 l 1,29,-1
 384 32 l 1,30,-1
 384 0 l 1,31,-1
 128 0 l 1,32,-1
 128 96 l 1,33,-1
 352 96 l 1,34,-1
 352 128 l 1,35,-1
 384 128 l 1,36,-1
 384 192 l 1,37,-1
 352 192 l 1,38,-1
 352 224 l 1,39,-1
 320 224 l 1,40,-1
 320 256 l 1,41,-1
 256 256 l 1,42,-1
 256 288 l 1,43,-1
 224 288 l 1,44,-1
 224 352 l 1,45,-1
 256 352 l 1,46,-1
 256 384 l 1,47,-1
 288 384 l 1,48,-1
 288 416 l 1,49,-1
 320 416 l 1,50,-1
 320 512 l 1,51,-1
 288 512 l 1,52,-1
 288 544 l 1,53,-1
 128 544 l 1,54,-1
 128 512 l 1,55,-1
 96 512 l 1,56,-1
 96 0 l 1,57,-1
 0 0 l 1,0,-1
EndSplineSet
EndChar

StartChar: emdash
Encoding: 8212 8212 196
Width: 704
Flags: W
LayerCount: 2
Fore
SplineSet
0 320 m 1,0,-1
 0 384 l 1,1,-1
 608 384 l 1,2,-1
 608 320 l 1,3,-1
 0 320 l 1,0,-1
EndSplineSet
EndChar

StartChar: quoteleft
Encoding: 8216 8216 197
Width: 160
Flags: W
LayerCount: 2
Fore
SplineSet
0 480 m 1,0,-1
 0 608 l 1,1,-1
 32 608 l 1,2,-1
 32 640 l 1,3,-1
 96 640 l 1,4,-1
 96 608 l 1,5,-1
 64 608 l 1,6,-1
 64 544 l 1,7,-1
 96 544 l 1,8,-1
 96 480 l 1,9,-1
 0 480 l 1,0,-1
EndSplineSet
EndChar

StartChar: quoteright
Encoding: 8217 8217 198
Width: 160
Flags: W
LayerCount: 2
Fore
SplineSet
0 480 m 1,0,-1
 0 512 l 1,1,-1
 32 512 l 1,2,-1
 32 576 l 1,3,-1
 0 576 l 1,4,-1
 0 640 l 1,5,-1
 96 640 l 1,6,-1
 96 512 l 1,7,-1
 64 512 l 1,8,-1
 64 480 l 1,9,-1
 0 480 l 1,0,-1
EndSplineSet
EndChar

StartChar: quotesinglbase
Encoding: 8218 8218 199
Width: 192
Flags: W
LayerCount: 2
Fore
SplineSet
0 -96 m 1,0,-1
 0 -64 l 1,1,-1
 32 -64 l 1,2,-1
 32 -32 l 1,3,-1
 64 -32 l 1,4,-1
 64 0 l 1,5,-1
 0 0 l 1,6,-1
 0 96 l 1,7,-1
 96 96 l 1,8,-1
 96 -64 l 1,9,-1
 64 -64 l 1,10,-1
 64 -96 l 1,11,-1
 0 -96 l 1,0,-1
EndSplineSet
EndChar

StartChar: quotereversed
Encoding: 8219 8219 200
Width: 192
Flags: W
LayerCount: 2
Fore
SplineSet
32 448 m 1,0,-1
 32 480 l 1,1,-1
 0 480 l 1,2,-1
 0 640 l 1,3,-1
 96 640 l 1,4,-1
 96 544 l 1,5,-1
 32 544 l 1,6,-1
 32 512 l 1,7,-1
 64 512 l 1,8,-1
 64 480 l 1,9,-1
 96 480 l 1,10,-1
 96 448 l 1,11,-1
 32 448 l 1,0,-1
EndSplineSet
EndChar

StartChar: quotedblleft
Encoding: 8220 8220 201
Width: 288
Flags: W
LayerCount: 2
Fore
SplineSet
0 480 m 1,0,-1
 0 608 l 1,1,-1
 32 608 l 1,2,-1
 32 640 l 1,3,-1
 96 640 l 1,4,-1
 96 608 l 1,5,-1
 64 608 l 1,6,-1
 64 544 l 1,7,-1
 96 544 l 1,8,-1
 96 480 l 1,9,-1
 0 480 l 1,0,-1
128 480 m 1,10,-1
 128 608 l 1,11,-1
 160 608 l 1,12,-1
 160 640 l 1,13,-1
 224 640 l 1,14,-1
 224 608 l 1,15,-1
 192 608 l 1,16,-1
 192 544 l 1,17,-1
 224 544 l 1,18,-1
 224 480 l 1,19,-1
 128 480 l 1,10,-1
EndSplineSet
EndChar

StartChar: quotedblright
Encoding: 8221 8221 202
Width: 288
Flags: W
LayerCount: 2
Fore
SplineSet
0 480 m 1,0,-1
 0 512 l 1,1,-1
 32 512 l 1,2,-1
 32 576 l 1,3,-1
 0 576 l 1,4,-1
 0 640 l 1,5,-1
 96 640 l 1,6,-1
 96 512 l 1,7,-1
 64 512 l 1,8,-1
 64 480 l 1,9,-1
 0 480 l 1,0,-1
128 480 m 1,10,-1
 128 512 l 1,11,-1
 160 512 l 1,12,-1
 160 576 l 1,13,-1
 128 576 l 1,14,-1
 128 640 l 1,15,-1
 224 640 l 1,16,-1
 224 512 l 1,17,-1
 192 512 l 1,18,-1
 192 480 l 1,19,-1
 128 480 l 1,10,-1
EndSplineSet
EndChar

